<?xml version="1.0" encoding="UTF-8"?>
<svg id="_图层_2" data-name="图层 2" xmlns="http://www.w3.org/2000/svg" viewBox="0 0 296.66665 484.29595">
  <defs>
    <style>
      .cls-1 {
        fill: none;
        stroke: #000;
        stroke-miterlimit: 10;
        stroke-width: 4px;
      }

      .cls-2 {
        stroke-width: 0px;
      }

      .cls-3 {
        font-family: CyberPrincess-Italic, 'Cyber Princess';
        font-size: 16.65985px;
        font-style: italic;
        letter-spacing: .19995em;
      }
    </style>
  </defs>
  <g id="_图层_1-2" data-name="图层 1">
    <g>
      <g>
        <polygon class="cls-2" points="296.66665 186.51817 267.43393 213.18483 267.43393 225.18483 296.66665 198.51817 296.66665 186.51817"/>
        <polygon class="cls-2" points="268.83331 58.3515 267.43393 59.62805 267.43393 199.18483 268.83331 197.90829 268.83331 58.3515"/>
        <polygon class="cls-2" points="275.50129 46.51817 274.10191 47.79471 274.10191 192.51686 275.50129 191.24031 275.50129 46.51817"/>
        <polygon class="cls-2" points="296.66665 206.51817 267.43393 233.18483 267.43393 245.18483 296.66665 218.51817 296.66665 206.51817"/>
        <polygon class="cls-2" points="296.66665 226.51817 267.43393 253.18483 267.43393 265.18483 296.66665 238.51817 296.66665 226.51817"/>
        <g>
          <path class="cls-2" d="m264.97491,447.04553l-17.44055,3.15997,17.44055,3.15991-1.31128,2.92072c2.3855-3.79688,3.77026-8.28619,3.77026-13.10132v-.78137l-5.69043-2.55493,3.23145,7.19702Z"/>
          <polygon class="cls-2" points="296.62701 450.21265 296.66656 450.20551 296.62701 450.19836 296.62701 450.21265"/>
        </g>
        <text class="cls-3" transform="translate(280.26909 44.50368) rotate(89.99997) scale(.72029) skewX(43.92131)"><tspan x="0" y="0">Dansela Blog</tspan></text>
        <g>
          <polygon class="cls-2" points="7.02515 342.51819 21.64148 329.18488 21.64148 328.4071 7.02515 341.74042 7.02515 342.51819"/>
          <polygon class="cls-2" points="7.02515 387.80988 21.64148 374.4765 21.64148 373.69873 7.02515 387.0321 7.02515 387.80988"/>
          <polygon class="cls-2" points="7.02515 260.62927 21.64148 247.29596 21.64148 246.51813 7.02515 259.8515 7.02515 260.62927"/>
          <polygon class="cls-2" points="7.02515 130.44586 21.64148 117.11255 21.64148 116.33478 7.02515 129.66809 7.02515 130.44586"/>
          <polygon class="cls-2" points="7.02515 21.30463 7.02515 22.0824 21.64148 8.74908 21.64148 7.97131 7.02515 21.30463"/>
          <polygon class="cls-2" points="7.02515 68.62927 21.64148 55.29596 21.64148 54.51813 7.02515 67.8515 7.02515 68.62927"/>
          <polygon class="cls-2" points="7.02515 439.60901 21.64148 426.27563 21.64148 425.49786 7.02515 438.83124 7.02515 439.60901"/>
          <polygon class="cls-2" points="7.02515 457.26105 21.64148 443.92773 21.64148 443.14996 7.02515 456.48328 7.02515 457.26105"/>
        </g>
        <g>
          <path class="cls-2" d="m279.91433,17.12556c-1.12631,0-2.03937-.91306-2.03937-2.03937,0,1.12631-.91306,2.03937-2.03937,2.03937,1.12631,0,2.03937.91305,2.03937,2.03936,0-1.12631.91306-2.03936,2.03937-2.03936Z"/>
          <path class="cls-2" d="m251.15918,16.7801c-2.17066,0-3.93034-1.75968-3.93034-3.93034,0,2.17066-1.75967,3.93034-3.93034,3.93034,2.17066,0,3.93034,1.75967,3.93034,3.93033,0-2.17066,1.75967-3.93033,3.93034-3.93033Z"/>
          <ellipse class="cls-1" cx="263.91454" cy="30.23979" rx="29.11678" ry="4.33223" transform="translate(2.05549 74.90706) rotate(-16.21675)"/>
          <path class="cls-2" d="m264.39287,15.38477c-8.57227,0-15.52147,6.94921-15.52147,15.52148s6.9492,15.52146,15.52147,15.52146,15.52146-6.94919,15.52146-15.52146-6.9492-15.52148-15.52146-15.52148Zm-7.01507,10.19508c-1.03575,0-1.87538-.83964-1.87538-1.87537s.83963-1.87541,1.87538-1.87541,1.87539.83964,1.87539,1.87541-.83964,1.87537-1.87539,1.87537Zm10.7414,15.31255c-1.77528,0-3.21443-1.43916-3.21443-3.21443s1.43915-3.21443,3.21443-3.21443,3.21443,1.43914,3.21443,3.21443-1.43915,3.21443-3.21443,3.21443Zm6.3281-5.26091c-.94283,0-1.70715-.76433-1.70715-1.70716s.76432-1.70716,1.70715-1.70716,1.70716.76431,1.70716,1.70716-.76432,1.70716-1.70716,1.70716Z"/>
        </g>
        <g>
          <path class="cls-2" d="m15.56915,295.66595l-4.40527.15332c-.17627-.00098-.26465.08691-.26465.2627v6.31934c0,.17578.08838.26465.26465.26465l4.40527-.15332c.18652-.0127.28076-.10742.28076-.2832v-6.31934c0-.17676-.09424-.25781-.28076-.24414Z"/>
          <path class="cls-2" d="m15.5672,36.55707l-2.17627.07812v6.68262l2.17627-.07812c.1875-.01367.28271-.11426.28271-.30078v-6.12207c0-.18652-.09521-.27344-.28271-.25977Z"/>
          <path class="cls-2" d="m15.5672,395.91693l-2.17627.07812v6.68262l2.17627-.07812c.1875-.01367.28271-.11426.28271-.30078v-6.12207c0-.18652-.09521-.27344-.28271-.25977Z"/>
          <path class="cls-2" d="m15.25519,367.3515l.31396.00488c.18652-.01367.28076-.11426.28076-.30078v-6.69922l-.875.03613v6.69824c0,.1875.09375.27441.28027.26074Z"/>
          <path class="cls-2" d="m15.84991,89.23676v-6.12207c0-.18652-.09521-.27344-.28271-.25977l-2.17627.07812v6.68262l2.17627-.07812c.1875-.01367.28271-.11426.28271-.30078Z"/>
          <path class="cls-2" d="m15.56915,232.01019l-4.40527.15332c-.17627-.00146-.26465.08691-.26465.2627v6.31934c0,.17578.08838.26416.26465.26465l4.40527-.15332c.18652-.0127.28076-.10742.28076-.2832v-6.31934c0-.17676-.09424-.25781-.28076-.24414Z"/>
          <path class="cls-2" d="m15.5672,119.46722l-2.17627.07812v6.68262l2.17627-.07812c.1875-.01367.28271-.11426.28271-.30078v-6.12207c0-.18652-.09521-.27344-.28271-.25977Z"/>
          <path class="cls-2" d="m12.94562,250.62885l.01611,6.38184c0,.16504.08887.25195.26611.26367l2.35645-.08984c.1875-.01367.28174-.1084.28174-.28418l-.01611-6.38184-2.9043.11035Z"/>
          <path class="cls-2" d="m29.18732,36.66949c0-13.62299,11.04364-24.66663,24.66669-24.66663l242.78971.00003V0H0s0,469.18481,0,469.18481v15.11109s296.64373.00004,296.64373.00004l-.01671-34.0833-17.40112,3.15277,3.23145,7.19702-7.19702-3.23145-3.15991,17.44061-3.15991-17.44061-7.19702,3.23145,1.92017-4.27631c-4.36377,6.94537-12.0885,11.56537-20.89636,11.56537H28.66663l.52069-431.18201Zm-13.3374,187.18542v-8.54688l-.875.03613v8.51367l-3.2168.10547v-8.51367l-4.10889.16113v-3.2168l11.41748-.40869v11.76465l-3.2168.10498Zm3.2168,8.29346v6.31934c0,.48438-.09033.94141-.27197,1.37109-.18115.42969-.42969.80859-.74219,1.13281-.31396.32617-.68555.58789-1.11377.78809-.4292.2002-.88623.31055-1.36963.33203l-4.40527.15332c-.49512.0127-.95459-.06641-1.37842-.23633-.42334-.16895-.79395-.4043-1.11377-.70508-.31836-.30078-.56836-.65918-.75049-1.0752-.18115-.41846-.27197-.86865-.27197-1.35205v-6.31934c0-.48438.09082-.94434.27197-1.37988.18213-.43604.43213-.81641.75049-1.14355.31982-.32617.69043-.58887,1.11377-.78711.42383-.19873.8833-.30518,1.37842-.31738l4.40527-.15332c.4834-.021.94043.05322,1.36963.2207.42822.16943.7998.4043,1.11377.70605.3125.30176.56104.66357.74219,1.08643.18164.42188.27197.875.27197,1.35938Zm-11.41748-62.61963v-3.21777l11.40137-.42041v3.00293l-6.73242,7.29688,6.73242-.25195v3.23438l-11.40137.42041v-3.01953l6.74854-7.30078-6.74854.25586Zm0-8.31543v-3.25098l11.40137-.42041v3.25l-11.40137.42139Zm.27197,25.62109c.18213-.43018.43213-.80859.75049-1.13477.31982-.32715.69043-.58887,1.11377-.78809.42383-.19873.87793-.30859,1.36133-.33008l4.42236-.15625c.4834-.021.9375.0498,1.36084.21533.42383.16357.79248.39893,1.10547.70703.31348.30713.56104.66943.74316,1.08594.18066.41699.27197.86719.27197,1.35156v6.1377c0,.4834-.09131.94043-.27393,1.37158-.18311.43018-.43115.81055-.74609,1.14258-.31543.33105-.68604.5957-1.11182.79492-.42529.19873-.88037.30957-1.3667.33057l-1.00537.03564v-3.23438l1.00537-.03467c.1875-.01318.28076-.10889.28076-.28467v-6.1377c0-.1875-.09326-.27344-.27881-.26074l-4.40723.15332c-.16504-.00293-.24756.08887-.24756.27637v6.1377c0,.17578.08252.26562.24756.26855l.47852-.02002v-3.89355l2.30957-.09473v7.14453l-2.30957.09473v-.0166l-.47852.01904c-.4834.02148-.9375-.05322-1.36133-.22266-.42334-.16992-.79395-.4082-1.11377-.71387-.31836-.30566-.56836-.66748-.75049-1.08398-.18115-.41699-.27197-.86719-.27197-1.35156v-6.1377c0-.48438.09082-.94141.27197-1.37109Zm7.92871-33.84473v-3.64648l-8.20068.30273v-3.25l8.20068-.30273v-3.67969l3.2168-.10596v10.57715l-3.2168.10498Zm-8.20068-14.97559v-3.25098l11.40137-.42041v3.25l-11.40137.42139Zm11.14551-10.89209c-.18115.43555-.42969.81689-.74219,1.14111-.31396.32617-.68555.58838-1.11377.78809-.4292.20068-.88623.31104-1.36963.33203l-7.91992.28223v-3.2334l2.52393-.09912v-6.68164l-2.52393.09814v-3.21777l7.91992-.28223c.4834-.021.94043.05322,1.36963.2207.42822.16943.7998.4043,1.11377.70508.3125.30273.56104.66455.74219,1.08643.18164.42285.27197.87598.27197,1.36035v6.12109c0,.48438-.09033.94336-.27197,1.37891Zm-11.14551-43.98486v-3.21777l7.91992-.28223c.4834-.021.94043.05322,1.36963.2207.42822.16943.7998.4043,1.11377.70508.3125.30273.56104.66455.74219,1.08643.18164.42285.27197.87598.27197,1.36035v6.12109c0,.48438-.09033.94336-.27197,1.37891-.18115.43555-.42969.81689-.74219,1.14111-.31396.32617-.68555.58838-1.11377.78809-.4292.20068-.88623.31104-1.36963.33203l-7.91992.28223v-3.2334l2.52393-.09912v-6.68164l-2.52393.09814Zm.396-24.56738l4.65283-3.58008-5.04883.18066v-3.2334l11.40137-.42139v3.08594l-4.91748,3.74463,4.91748,3.3999v3.08496l-11.40137.42041v-3.2334l5.04883-.18066-4.65283-3.26758Zm10.74951-14.35791c-.18115.43555-.42969.81689-.74219,1.14111-.31396.32617-.68555.58838-1.11377.78809-.4292.20068-.88623.31104-1.36963.33203l-7.91992.28223v-3.2334l2.52393-.09912v-6.68164l-2.52393.09814v-3.21777l7.91992-.28223c.4834-.021.94043.05322,1.36963.2207.42822.16943.7998.4043,1.11377.70508.3125.30273.56104.66455.74219,1.08643.18164.42285.27197.87598.27197,1.36035v6.12109c0,.48438-.09033.94336-.27197,1.37891ZM7.64874,15.78558l11.40137-.42041v3.25l-11.40137.42139v-3.25098Zm-.01562,92.5l4.71826-3.74512-4.71826-3.39941v-3.08496l11.40137-.40479v3.23438l-5.04932.18115,4.45508,3.26611-4.47217,3.58447,5.06641-.18408v3.2168l-11.40137.40479v-3.06934Zm3.53076,212.81006l7.90283-.2793v3.21875l-7.90283.27832c-.49512.0127-.95459-.06641-1.37842-.23633-.42334-.16895-.79395-.4043-1.11377-.70508-.31836-.30078-.56836-.6582-.75049-1.0752-.18115-.41797-.27197-.86816-.27197-1.35254v-6.20312c0-.48438.09082-.94141.27197-1.37109.18213-.42969.43213-.81152.75049-1.14355.31982-.33203.69043-.59766,1.11377-.7959.42383-.19922.8833-.30566,1.37842-.31738l7.90283-.27734v3.23242l-7.90283.2793c-.17627,0-.26465.08691-.26465.2627v6.2041c0,.1875.08838.28125.26465.28125Zm7.63086-17.60059c-.18115.42969-.42969.80762-.74219,1.13184-.31396.32617-.68555.58789-1.11377.78809-.4292.2002-.88623.31055-1.36963.33203l-4.40527.15332c-.49512.01172-.95459-.06641-1.37842-.23633-.42334-.16895-.79395-.4043-1.11377-.70508-.31836-.30078-.56836-.6582-.75049-1.0752-.18115-.41797-.27197-.86816-.27197-1.35156v-6.31934c0-.48438.09082-.94434.27197-1.37988.18213-.43555.43213-.81641.75049-1.14355.31982-.32617.69043-.58887,1.11377-.78711.42383-.19922.8833-.30469,1.37842-.31738l4.40527-.15332c.4834-.02148.94043.05273,1.36963.2207.42822.16895.7998.4043,1.11377.70605.3125.30176.56104.66406.74219,1.08691.18164.4209.27197.875.27197,1.35938v6.31836c0,.48438-.09033.94141-.27197,1.37207Zm.25586-25.63965l-4.58545.16504c-.18799.01465-.28174.11328-.28174.30078v5.70898c0,.17578.09375.25781.28174.24414l4.58545-.16504v3.23438l-4.57031.16016c-.49512.02441-.95459-.04883-1.37842-.21875-.42334-.16992-.79395-.4082-1.11377-.71387-.31836-.30566-.56836-.66699-.75049-1.08398-.18115-.41699-.27197-.86719-.27197-1.35156v-1.2207l-3.31641.12988v-3.2334l3.31641-.13086v-1.25391c0-.48438.09082-.94043.27197-1.37109.18213-.42969.43213-.80859.75049-1.13477.31982-.32617.69043-.58887,1.11377-.78809.42383-.19824.8833-.30957,1.37842-.33301l4.57031-.16113v3.2168Zm-8.15137,186.37305l-3.25.12988v-3.25098l3.25-.12988v3.25098Zm8.15137-17.21875l-4.58545.16406c-.18799.01465-.28174.11328-.28174.30078v5.70898c0,.17578.09375.25781.28174.24414l4.58545-.16406v3.23242l-4.57031.16113c-.49512.02441-.95459-.04883-1.37842-.21875-.42334-.16992-.79395-.4082-1.11377-.71387-.31836-.30566-.56836-.66699-.75049-1.08398-.18115-.41699-.27197-.86719-.27197-1.35156v-1.2207l-3.31641.12988v-3.2334l3.31641-.13086v-1.25391c0-.48438.09082-.94043.27197-1.37109.18213-.42969.43213-.80859.75049-1.13477.31982-.32617.69043-.58887,1.11377-.78809.42383-.19824.8833-.30957,1.37842-.33301l4.57031-.16016v3.2168Zm.01611-7.62695l-3.2168.10547v-3.64648l-8.20068.30273v-3.25l8.20068-.30273v-3.67969l3.2168-.10547v10.57617Zm0-25.29492l-7.90283.2793c-.17627,0-.26465.08691-.26465.2627v6.2041c0,.1875.08838.28125.26465.28125l7.90283-.2793v3.21875l-7.90283.27832c-.49512.0127-.95459-.06641-1.37842-.23633-.42334-.16895-.79395-.4043-1.11377-.70508-.31836-.30078-.56836-.6582-.75049-1.0752-.18115-.41797-.27197-.86816-.27197-1.35254v-6.20312c0-.48438.09082-.94141.27197-1.37109.18213-.42969.43213-.81152.75049-1.14355.31982-.33203.69043-.59766,1.11377-.7959.42383-.19922.8833-.30566,1.37842-.31738l7.90283-.27734v3.23242Zm0-11.89453c0,.48438-.09033.94238-.27197,1.37891-.18115.43555-.42969.81641-.74219,1.14062-.31396.32617-.68555.58789-1.11377.78809-.4292.2002-.88623.31055-1.36963.33203l-7.91992.28223v-3.2334l2.52393-.09863v-6.68164l-2.52393.09766v-3.21777l7.91992-.28223c.4834-.02148.94043.05273,1.36963.2207.42822.16895.7998.4043,1.11377.70508.3125.30273.56104.66504.74219,1.08691.18164.42188.27197.87598.27197,1.36035v6.12109Zm0-14.57031l-3.2168.10645v-8.92676l-.875.03516v8.84375l-3.2168.10645v-8.84375l-.85889.03125v8.92578l-3.25.13086v-12.14453l11.41748-.40723v12.14258Zm0-20.67188c0,.48242-.09033.94238-.27197,1.37891-.18115.43555-.42969.81543-.74219,1.14062-.31396.3252-.68555.58789-1.11377.78809-.4292.19922-.88623.31055-1.36963.33105l-.31396-.00391c-.37402.01562-.7085-.01465-1.00635-.08887-.29688-.0752-.59326-.20117-.89111-.38086-.29639.19434-.59424.3418-.89062.44434-.29688.10059-.62646.15723-.98975.1709l-.31348.01172c-.49512.0127-.95459-.06641-1.37842-.23535-.42334-.16992-.79395-.40527-1.11377-.70605-.31836-.2998-.56836-.66113-.75049-1.08301-.18115-.42285-.27197-.87598-.27197-1.36035v-9.93262l11.41748-.4082v9.93359Zm-.25488-26.7168c-.18213.43164-.42969.80762-.74316,1.13379-.31396.3252-.68457.58789-1.11377.78809-.42822.19922-.88525.31055-1.36963.33105l-2.34277.08691c-.61621.02051-1.19922-.12305-1.74902-.43262-.5498-.30859-.98486-.73145-1.30322-1.26855-.4624.3457-.89648.72852-1.30322,1.14844-.40771.41992-.81396.78516-1.22168,1.0957v-3.97656l2.07959-1.88574-.01709-4.4502-2.07861.08594v-3.2168l11.41748-.4082.01709,9.59863c0,.4834-.09131.94043-.27197,1.37012Zm0-82.06934c-.18213.43066-.42969.80762-.74316,1.13379-.31396.3252-.68457.58789-1.11377.78809-.42822.19922-.88525.31055-1.36963.33105l-2.34277.08691c-.61621.02051-1.19922-.12305-1.74902-.43262-.5498-.30859-.98486-.73145-1.30322-1.26855-.4624.3457-.89648.72852-1.30322,1.14844-.40771.41992-.81396.78516-1.22168,1.0957v-3.97656l2.07959-1.88574-.01709-4.4502-2.07861.08594v-3.2168l11.41748-.40918.01709,9.59961c0,.4834-.09131.94043-.27197,1.37012Z"/>
          <path class="cls-2" d="m12.94562,332.69818l.01611,6.38184c0,.16504.08887.25195.26611.26367l2.35645-.08984c.1875-.01367.28174-.1084.28174-.28418l-.01611-6.38184-2.9043.11035Z"/>
          <path class="cls-2" d="m11.16388,367.5097l.31348-.0127c.18701-.0127.28076-.11328.28076-.2998v-6.69922l-.85889.03125v6.69922c0,.18652.08838.28027.26465.28125Z"/>
          <polygon class="cls-2" points="296.66656 450.20551 296.62701 450.19836 296.62701 450.21265 296.66656 450.20551"/>
          <path class="cls-2" d="m267.4339,442.40344l-5.69043-2.55493,3.23145,7.19702-17.44055,3.15997,17.44055,3.15991-1.31128,2.92072c2.3855-3.79688,3.77026-8.28619,3.77026-13.10132v-.78137Z"/>
        </g>
      </g>
      <g>
        <path class="cls-2" d="m279.37823,287.64349l5.80371-4.89062c.23047-.2002.3457-.41406.3457-.63672l.02246-7.7627-6.51855,5.49316v7.74023c0,.22461.11523.24414.34668.05664Z"/>
        <path class="cls-2" d="m285.15851,401.97064l-2.8457,2.39941v8.01758l2.8457-2.39941c.24609-.21484.36914-.43652.36914-.66113v-7.34375c0-.22461-.12305-.22754-.36914-.0127Z"/>
        <path class="cls-2" d="m285.15851,296.59369l-2.8457,2.39941v8.01758l2.8457-2.39941c.24609-.21484.36914-.43652.36914-.66113v-7.34375c0-.22461-.12305-.22754-.36914-.0127Z"/>
        <path class="cls-2" d="m267.4339,273.18481v169.21863l1.50659.67651,3.15991-17.44061,3.15991,17.44061,7.19702-3.23145-3.23145,7.19702,17.40112,3.15283.03955-203.68024-29.23267,26.66669Zm22.30273,132.60907c0,.58008-.11914,1.22852-.35645,1.94336-.2373.71582-.56055,1.43359-.9707,2.15625-.41016.72168-.89648,1.43164-1.45703,2.125-.56055.69238-1.15918,1.31055-1.79102,1.84766l-10.35938,8.72559v-3.88086l3.30176-2.79004v-8.01758l-3.30176,2.79004v-3.85938l10.35938-8.72559c.63184-.53711,1.23047-.93457,1.79102-1.18555.56055-.25195,1.04688-.36426,1.45703-.33203.41016.0293.7334.20215.9707.51562.2373.31445.35645.76172.35645,1.34375v7.34375Zm-14.93457-5.0791v-12.70898l14.91309-12.57812v3.85938l-10.66113,8.98047v8.84961l-4.25195,3.59766Zm14.93457-31.54395l-4.20898,3.5332v-10.70898l-1.14355.96875v10.61133l-4.20898,3.53516v-10.61133l-1.12109.94434v10.71094l-4.25195,3.59766v-14.57031l14.93457-12.58105v14.57031Zm-14.93457-41.99707v-3.86133l14.91309-12.57812v3.60352l-8.80566,15.88379,8.80566-7.43066v3.87891l-14.91309,12.57812v-3.62109l8.82715-15.90723-8.82715,7.4541Zm4.25195,14.73242v11.18359c0,.22461.10742.25195.32324.08105l.43164-.36816c.22949-.19922.3457-.41113.3457-.63574v-6.96875c0-.59375.11816-1.24414.35547-1.95312.2373-.70703.56152-1.42578.97168-2.15625.41016-.72754.89551-1.43652,1.45605-2.12402.56152-.6875,1.16504-1.30762,1.81348-1.86133l.41016-.3252c.63184-.53711,1.22559-.93262,1.78027-1.18457.55273-.25,1.03613-.3584,1.44629-.32031.40918.03516.7334.20801.9707.51562.2373.30859.35645.75977.35645,1.35352v11.18555l-4.20898,3.55273v-11.18555c0-.22461-.12305-.22754-.36621-.01367l-.41016.3252c-.24512.21484-.36719.43359-.36719.6582v6.96875c0,.58008-.11914,1.22754-.35547,1.94141s-.56348,1.43555-.97949,2.16406c-.41699.72949-.90039,1.43652-1.4541,2.12109-.55176.68652-1.14453,1.29688-1.77539,1.83301l-.43164.36816c-.63184.53613-1.22363.92676-1.77637,1.16895-.55176.24316-1.03711.35156-1.45312.32031-.41699-.03027-.74316-.20117-.97949-.5166-.2373-.31738-.35547-.76465-.35547-1.34473v-11.18555l4.25195-3.59766Zm10.68262-41.48926c0,.58008-.11914,1.22852-.35645,1.94336-.2373.71582-.56055,1.43359-.9707,2.15625-.41016.72168-.89648,1.43164-1.45703,2.125-.56055.69238-1.15918,1.31055-1.79102,1.84766l-10.35938,8.72559v-3.88086l3.30176-2.79004v-8.01758l-3.30176,2.79004v-3.85938l10.35938-8.72559c.63184-.53711,1.23047-.93457,1.79102-1.18555.56055-.25195,1.04688-.36426,1.45703-.33203.41016.0293.7334.20215.9707.51562.2373.31445.35645.76172.35645,1.34375v7.34375Zm-.02148-21.83301c0,.58008-.11914,1.22461-.35645,1.93359-.2373.70801-.56152,1.42578-.9707,2.15625-.41016.72754-.89355,1.43945-1.44629,2.13281-.55469.69336-1.14844,1.30957-1.78027,1.84668l-5.78418,4.87109c-.64746.54004-1.24902.93359-1.80176,1.17676-.55469.24512-1.04004.34766-1.45703.3125-.41797-.03418-.74414-.20703-.98145-.51562-.23828-.30762-.35645-.75098-.35645-1.33301l.02148-11.60254,14.93457-12.58105-.02148,11.60254Z"/>
      </g>
    </g>
  </g>
</svg>