<?xml version="1.0" encoding="UTF-8"?>
<svg id="_图层_2" data-name="图层 2" xmlns="http://www.w3.org/2000/svg" viewBox="0 0 385.62402 76.7041">
  <defs>
    <style>
      .cls-1 {
        fill: #71c6cd;
        stroke-width: 0px;
      }
    </style>
  </defs>
  <g id="_图层_1-2" data-name="图层 1">
    <g>
      <path class="cls-1" d="m54.91211,9.02441c.19189.89648.28809,1.85645.28809,2.87988,0,2.17676-.33643,4.78516-1.0083,7.82422-.67188,3.04004-1.66504,6.23926-2.97607,9.59961-1.3125,3.36035-2.94434,6.71973-4.896,10.08008-1.95264,3.36035-4.24023,6.47949-6.86377,9.36035-2.625,2.87988-5.55322,5.37598-8.78418,7.4873-3.23242,2.1123-6.80078,3.55273-10.7041,4.32031-.3208.12793-.64014.19238-.95996.19238h-.95996c-1.28076,0-2.38477-.27344-3.31201-.81641-.92822-.54492-1.69629-1.2168-2.30371-2.01562-.60889-.80176-1.05615-1.71191-1.34424-2.73633-.28809-1.02344-.43213-2.01562-.43213-2.97559,0-1.9834.7998-3.56738,2.40039-4.75195,1.59863-1.18359,3.45605-2.06445,5.56787-2.64062s4.15967-.95996,6.14404-1.15234c1.98291-.19141,3.35986-.28711,4.12793-.28711h.47998c.95996,0,1.43994.41699,1.43994,1.24805,0,.32031-.0957.6084-.28809.86328-.19189.25684-.47998.41699-.86377.48047-2.625.32031-4.9126.89648-6.86426,1.72754-1.95264.83301-3.58496,1.69629-4.896,2.5918-1.3125.89746-2.30371,1.72852-2.97559,2.49609-.67236.76855-1.0083,1.24805-1.0083,1.44043,0,.25684.31934.38379.95996.38379.51172,0,1.2002-.0791,2.06396-.24023.86426-.1582,1.93506-.49414,3.21631-1.00781,2.68799-.95996,5.18408-2.44824,7.48779-4.46387,2.3042-2.01562,4.41602-4.32031,6.33594-6.91211s3.63184-5.35938,5.13623-8.30371c1.50293-2.94336,2.76758-5.85645,3.79199-8.73633,1.02295-2.87988,1.80762-5.61621,2.35205-8.20801.54297-2.5918.81592-4.81445.81592-6.67188,0-1.91992-.28809-3.31152-.86426-4.17578-.57568-.86426-1.34375-1.2959-2.30371-1.2959-1.08887,0-2.35205.54395-3.79199,1.63184-1.43994,1.08887-2.92822,2.56055-4.46436,4.41602-1.53564,1.85645-3.04004,4.0166-4.51172,6.47949-1.47314,2.46484-2.80078,5.07324-3.98389,7.82422-1.18506,2.75293-2.14502,5.53711-2.88037,8.35254-.73633,2.81641-1.13672,5.53613-1.19971,8.16016.06299.12891.0957.32031.0957.5752,0,.32129-.06445.60938-.19189.86426-.12891.25684-.44824.38379-.95996.38379-.12891,0-.28809-.01465-.47998-.04785-.19189-.03125-.35254-.04785-.47998-.04785-.19189,0-.41699-.06348-.67188-.19238-.12891-.0625-.2251-.12695-.28809-.19141-.12891,0-.19189.06445-.19189.19141-.95996-.25488-1.50439-.43164-1.63232-.52734-.12891-.09668-.25635-.14453-.38379-.14453-.06445,0-.1123.0332-.14404.09668-.03271.06445-.1123.0957-.23975.0957-.83252,0-1.48828-.14453-1.96826-.43262-.47998-.28711-.84912-.63867-1.104-1.05566-.25635-.41504-.41699-.87891-.47998-1.3916-.06445-.51172-.09619-.99219-.09619-1.44043,0-2.1748.43213-4.84766,1.29639-8.01562.86377-3.16797,1.88672-6.36816,3.07178-9.60059,1.18359-3.23047,2.3999-6.28809,3.64795-9.16797s2.2876-5.15039,3.12012-6.81543c-1.85693.76758-3.74414,2.16016-5.66406,4.17578s-3.66455,4.28809-5.23193,6.81641c-1.56885,2.52832-2.84863,5.10449-3.83984,7.72754-.99316,2.625-1.48828,4.86426-1.48828,6.71973,0,1.28125.24023,2.25586.72021,2.92871.47998.67188.71973,1.16797.71973,1.4873-.12891.12891-.22461.24023-.2876.33594-.06494.09668-.16064.14453-.28809.14453-.06445,0-.12891-.01562-.19189-.04785-.06494-.03223-.12939-.04785-.19238-.04785-.12891,0-.19189.03223-.19189.0957,0,.06445-.06445.0957-.19189.0957-.44873,0-.80127-.0957-1.05615-.28809-.06445,0-.1123.0166-.14404.04785-.03271.0332-.08105.04883-.14404.04883-.95996,0-1.84033-.20703-2.63965-.62402-.80127-.41602-1.48828-.92773-2.06396-1.53613-.57617-.60742-1.0249-1.2959-1.34424-2.06445-.3208-.76758-.47998-1.50293-.47998-2.20801,0-1.53613.39893-3.2793,1.2002-5.23145.79932-1.95215,1.85547-3.93652,3.16797-5.95215,1.31104-2.0166,2.83203-3.96777,4.56006-5.85645,1.72754-1.88672,3.51855-3.58301,5.37598-5.08789,1.85547-1.50293,3.71094-2.70312,5.56787-3.59961,1.85547-.89551,3.5835-1.34473,5.18408-1.34473.57568,0,1.0874.09668,1.53564.28809.44727.19238.95996.32129,1.53613.38477.19189.06445.41553.12891.67188.19141.51172.12891.76807.32129.76807.57617,0,.5127-.3208,1.47266-.95996,2.87988-.12891.12891-.3208.48047-.57568,1.05566-.25684.57617-.54492,1.16895-.86426,1.77637-.3208.60938-.64062,1.2002-.95996,1.77637-.3208.57617-.57617.92773-.76807,1.05566-.12891.12891.06299-.22363.57617-1.05566.51123-.83105,1.0874-1.77637,1.72803-2.83203.63867-1.05664,1.23145-2.04785,1.77588-2.97656.54297-.92676.75146-1.3916.62402-1.3916,0,.06445.11084.19238.33594.38379.22363.19238.39893.54492.52783,1.05566,0,1.53613-.43164,3.18457-1.2959,4.94434-.86377,1.76074-1.64844,3.47266-2.35205,5.13574,2.94336-4.28711,6.06299-7.75879,9.36035-10.41602,3.29541-2.6543,6.47998-4.04688,9.55176-4.17578.31934,0,.57617.0332.76807.0957.76807.19238,1.58398.60938,2.44775,1.24805.86426.64062,1.66357,1.39258,2.40039,2.25684.73486.86328,1.37549,1.77539,1.91992,2.73535.54297.95996.91211,1.85742,1.104,2.68848ZM3.35986,32.35254c-1.02441-1.28027-1.53564-2.84766-1.53564-4.7041,0-2.30469.73486-4.99219,2.20801-8.06445-2.04932,3.3291-3.07227,6.0166-3.07227,8.06445,0,1.98438.79932,3.55176,2.3999,4.7041Zm13.82422-5.47266c.19189-.63867.41553-1.3584.67188-2.16016.25488-.79883.54297-1.67969.86426-2.63965.19189-.57617.44678-1.2959.76758-2.16016.31982-.86328.63916-1.69434.96045-2.49609.31934-.79883.59082-1.53613.81592-2.20801.22314-.67188.33594-1.10352.33594-1.2959l-.67188,1.34473c-1.66504,4.99121-3.07227,9.05664-4.22412,12.19141-1.15234,3.13672-1.72803,5.12109-1.72803,5.95215,0,.25684.12744.38379.38379.38379.12744,0,.36768-.68652.72021-2.06348.35107-1.37598.71973-2.99121,1.104-4.84863Zm5.75977-7.00781c0-.12695-.06445-.0791-.19189.14453-.12891.22461-.28809.65625-.47998,1.2959-.70508,1.85645-1.3291,3.56836-1.87207,5.13574-.54443,1.56934-1.02441,2.94434-1.43994,4.12793-.41699,1.18457-.73633,2.12891-.95996,2.83203-.2251.70508-.33594,1.08887-.33594,1.15234,0,.25586.15918.38379.47998.38379.19189,0,.31934-.24023.38379-.71973.06299-.48047.25537-1.35938.57617-2.64062.06299-.31934.30322-.99121.72021-2.01562.41504-1.02344.86377-2.16016,1.34375-3.4082s.89551-2.46289,1.24805-3.64844c.35107-1.18262.52783-2.06348.52783-2.63965Zm3.93604-1.91992c.57617-1.15234,1.24805-2.28711,2.01611-3.4082.76807-1.11914,1.55078-2.19141,2.35205-3.21582.79932-1.02344,1.59912-1.96777,2.3999-2.83203.79932-.86426,1.51953-1.61523,2.16016-2.25586-.12891,0-.25684.06445-.38428.19238-.64014.38379-1.18506.76758-1.63184,1.15137-.44873.38379-.89697.86426-1.34375,1.44043-.44873.57617-.86426,1.24805-1.24805,2.01562-.25684.32129-.62402.86426-1.104,1.63184-.47998.76855-.95996,1.55273-1.44043,2.35254-.47998.80078-.91162,1.52051-1.2959,2.16016-.38379.63965-.60889.99219-.67188,1.05566.06299,0,.09619-.03125.09619-.0957l.0957-.19238Zm9.50391-10.75195c.12793-.12793.19238-.22363.19238-.28809.19189,0-.11279.33594-.91211,1.00781-.80127.67188-1.71289,1.50488-2.73584,2.49609-1.0249.99316-1.96826,2.04883-2.83203,3.16797-.86426,1.12109-1.29639,2.12891-1.29639,3.02441-.06445,0,.24023-.43262.91211-1.2959.67188-.86426,1.45508-1.85547,2.35205-2.97656.89551-1.11914,1.75977-2.1748,2.5918-3.16797.83105-.99121,1.40723-1.64648,1.72803-1.96777Zm6.72021,28.22363c.06299-.0625.09619-.22363.09619-.47949-.25684.57617-.68848,1.36035-1.29639,2.35156-.60889.99316-1.3125,2.08105-2.11182,3.26465-.80078,1.18457-1.64844,2.38477-2.54395,3.59961-.89697,1.2168-1.77588,2.30371-2.64014,3.26367-.86377.95996-1.66504,1.74512-2.3999,2.35254-.73633.6084-1.36035.91211-1.87207.91211,1.40723-.51172,2.73584-1.35938,3.98389-2.54395,1.24805-1.18359,2.41504-2.49609,3.50439-3.93652,1.0874-1.43945,2.06396-2.92773,2.92773-4.46387.86426-1.53613,1.64697-2.97559,2.35205-4.32031Zm-10.65576,11.80859c-.12939.12891-.19238.22461-.19238.28809.12744,0,.47998-.28809,1.05615-.86426,1.02295-.95996,2.03076-2.0957,3.02393-3.4082.9917-1.31055,1.91992-2.65527,2.78418-4.03223.86377-1.375,1.63184-2.73535,2.30371-4.08008.67236-1.34375,1.23145-2.49512,1.68018-3.45605-.3208.32129-.49658.46582-.52783.43262-.0332-.03125-.17725.17676-.43213.62402-.12891.12891-.19189.24023-.19189.33594s-.0332.17676-.09619.24023l-.09619.0957c-.95996,1.72754-1.84033,3.26367-2.63965,4.6084-.80127,1.34375-1.53613,2.52832-2.20801,3.55176-.67188,1.02441-1.3291,1.93652-1.96826,2.73535-.64014.80176-1.34375,1.58398-2.11182,2.35254-.25635.25684-.38379.44824-.38379.57617Z"/>
      <path class="cls-1" d="m84.76709,38.0166c.63916-.57617,1.23145-1.05664,1.77588-1.44043.54297-.38379.9751-.57617,1.2959-.57617.31982,0,.47998.16113.47998.48047,0,.12891-.2085.64062-.62354,1.53613-.41699.89648-.94531,2.01562-1.58447,3.35938-.64014,1.34375-1.3916,2.81738-2.25586,4.41602-.86377,1.60059-1.72803,3.15332-2.5918,4.65625-.86426,1.50488-1.72803,2.84863-2.59229,4.03223-.86377,1.18457-1.64844,2.06348-2.35205,2.63965-.44824.31934-.89697.54297-1.34375.67188-.44873.12793-.86426.19238-1.24805.19238-.57617,0-1.15186-.09668-1.72803-.28809l-.38379-.19238c-1.28125-.38379-2.27246-1.10352-2.97607-2.16016-.70508-1.05566-1.18506-2.31836-1.43994-3.79199-1.15234,1.34473-2.5293,2.67383-4.12793,3.98438-1.60059,1.3125-3.26416,2.06445-4.99219,2.25586-1.21631,0-2.24121-.32129-3.07227-.95996-.83203-.63867-1.521-1.42383-2.06396-2.35156-.54443-.92773-.92822-1.90332-1.15186-2.92871-.2251-1.02246-.33594-1.88672-.33594-2.5918,0-2.75098.43213-5.61621,1.2959-8.5918.86426-2.97559,2.01611-5.69531,3.45605-8.16016,1.43994-2.46289,3.08691-4.49512,4.94385-6.0957,1.85547-1.59961,3.74414-2.40039,5.66406-2.40039.83105,0,1.69531.16113,2.59229.48047.89551.32031,1.71143.80078,2.44775,1.43945.73486.64062,1.37549,1.44043,1.91992,2.40039.54297.95996.91211,2.08008,1.104,3.36035.89551.32031,1.83936.91113,2.83203,1.77539.9917.86426,1.48828,1.80957,1.48828,2.83203,0,.25684-.06445.57617-.19238.95996-1.28076,2.49609-2.35156,5.15234-3.21582,7.96777-.86377,2.81738-1.2959,5.44141-1.2959,7.87207,1.02295-.89551,1.99951-2.01562,2.92773-3.35938.92725-1.34473,1.79102-2.73633,2.59229-4.17578.79932-1.44043,1.59912-2.81641,2.3999-4.12891.79932-1.31055,1.58398-2.35156,2.35205-3.11914Zm-26.87988-3.45605c.25488-.44727.62402-1.07129,1.104-1.87207.47998-.7998.9751-1.58398,1.48779-2.35254.51172-.76758.9751-1.43945,1.39209-2.01562.41553-.57617.68701-.86426.81592-.86426-.5127.5127-1.104,1.10449-1.77588,1.77637s-1.2959,1.4082-1.87207,2.20801c-.57617.80078-1.07227,1.66504-1.48779,2.5918-.41699.92871-.65723,1.87207-.72021,2.83203.06299-.06348.22363-.39941.47998-1.00781.25488-.60742.44727-1.04004.57617-1.2959Zm10.08008,4.99121c.19189-.44629.36719-1.02246.52783-1.72754.15918-.70312.31934-1.45508.47998-2.25586.15918-.7998.27148-1.58398.33594-2.35254.06299-.76758.09619-1.43945.09619-2.01562,0-.89551-.19238-1.34375-.57617-1.34375-.51318,0-1.12061.46484-1.82422,1.3916-.70459.92871-1.43994,2.1123-2.20752,3.55176-.76807,1.44043-1.53613,3.04102-2.3042,4.80078-.76807,1.76074-1.45654,3.45605-2.06396,5.08789-.60889,1.63184-1.104,3.12012-1.48828,4.46387-.38379,1.34375-.57568,2.33691-.57568,2.97559,0,.44922.0957.67188.28809.67188.25488,0,.94336-.49512,2.06396-1.4873,1.11865-.99219,2.271-2.14355,3.45605-3.45605,1.18311-1.31152,2.25586-2.57617,3.21582-3.79199.95996-1.21484,1.43994-2.0166,1.43994-2.40039-.19189-.12695-.41699-.33594-.67188-.62402-.25684-.28809-.38428-.59082-.38428-.91211,0-.12695.06299-.31934.19238-.57617Zm-3.84033-10.75195c-.12891,0-.57568.35254-1.34375,1.05664-.76807.70508-1.40869,1.37695-1.91992,2.01562,0,.06445-.11279.25684-.33643.57617-.22461.32129-.44824.67188-.67188,1.05566-.2251.38379-.43213.73633-.62402,1.05664s-.25635.47949-.19189.47949c-.19189,0,.24023-.55957,1.2959-1.67969,1.05615-1.11914,2.19141-2.51074,3.4082-4.17578l.38379-.38477Zm9.4082,13.44043c.38379-1.2793.71973-2.46289,1.00781-3.55176.28809-1.08789.43213-1.82422.43213-2.20801,0-.06348.01514-.09668.04785-.09668.03174,0,.04834-.03125.04834-.0957v-.0957c-.06494,0-.17725.08105-.33643.24023-.16016.16016-.3042.49609-.43164,1.00781-.57617,2.30371-1.08936,4.38379-1.53613,6.23926-.38379,1.60059-.73633,3.05762-1.05615,4.36816-.3208,1.3125-.44824,2.0332-.38379,2.16016.19189-.83105.52783-2.03125,1.00781-3.59961.47998-1.56738.87891-3.02441,1.2002-4.36816Z"/>
      <path class="cls-1" d="m117.40576,38.0166c.57568-.57617,1.15186-1.05664,1.72803-1.44043.57568-.38379,1.02295-.57617,1.34424-.57617.25488,0,.38379.16113.38379.48047,0,.19141-.24023.84863-.71973,1.96777-.48047,1.12012-1.13721,2.44824-1.96826,3.98438-.83252,1.53516-1.80908,3.2002-2.92822,4.99121-1.12061,1.79297-2.28906,3.4248-3.50391,4.89648-1.2168,1.47266-2.49609,2.7041-3.83984,3.69629-1.34424.99219-2.625,1.4873-3.84033,1.4873-1.28076,0-2.44775-.59082-3.50391-1.77539-1.05615-1.18359-1.58398-2.89551-1.58398-5.13672,0-1.79102.27148-3.75879.81592-5.90332.54297-2.14355,1.15186-4.16016,1.82422-6.04785.67188-1.8877,1.32715-3.55273,1.96777-4.99219.63916-1.44043,1.05615-2.41504,1.24805-2.92871-.38379.32129-1.21631,1.29688-2.49609,2.92871-1.28076,1.63184-2.7207,3.63281-4.31982,6-1.60059,2.36816-3.20117,4.97656-4.7998,7.82422-1.60059,2.84766-2.91309,5.64844-3.93604,8.39941-.12939.64062-.54492.95996-1.24805.95996-.76807,0-1.58398-.51172-2.44824-1.53613-.86377-1.02246-1.2959-2.84668-1.2959-5.47168,0-2.43164.57617-5.72656,1.72803-9.8877,1.15186-4.16016,3.32715-9.375,6.52783-15.64844.25537-.57617.73535-.86426,1.43994-.86426.76807,0,1.63232.32129,2.59229.95996.95996.64062,1.75928,1.3125,2.3999,2.0166l-.47998.57617c-.19189.32031-.56104.92773-1.104,1.82324-.54443.89746-1.08887,1.87207-1.63184,2.92871-.54443,1.05566-1.04102,2.09668-1.48828,3.12012-.44824,1.02441-.67188,1.85645-.67188,2.49512,0,.25684.03125.44922.09619.57617.12744-.70312.46338-1.69434,1.00781-2.97559.54297-1.2793,1.11914-2.54395,1.72803-3.79199.60742-1.24805,1.18359-2.33594,1.72803-3.26465.54297-.92676.84766-1.3916.91211-1.3916.51123.64062.76758,1.24805.76758,1.82422,0,.32129-.16016.80078-.47998,1.43945-.3208.64062-.68848,1.3125-1.104,2.0166-.41699.70508-.84863,1.4248-1.2959,2.16016-.44824.73633-.80078,1.36035-1.05566,1.87207,1.0874-1.53613,2.19141-3.00781,3.31201-4.41602,1.11865-1.40723,2.22266-2.64062,3.31201-3.69629,1.0874-1.05566,2.15967-1.90332,3.21582-2.54395,1.05615-.63965,2.06396-.95996,3.02393-.95996,1.34424,0,2.54395.46484,3.6001,1.3916,1.05615.92871,1.58398,2.03223,1.58398,3.3125,0,.64062-.41699,1.93652-1.24805,3.8877-.83252,1.95312-1.76123,4.12793-2.78418,6.52832-1.02441,2.39941-1.96777,4.81641-2.83203,7.24805-.86377,2.43262-1.32861,4.51172-1.3916,6.23926,1.21484-.76758,2.35156-1.82324,3.40771-3.16797,1.05615-1.34375,2.06396-2.73535,3.02393-4.17578.95996-1.43945,1.87207-2.83203,2.73633-4.17578.86377-1.34375,1.71143-2.43164,2.54395-3.26367Zm-15.74414,15.35938c0-.0625-.04785-.30273-.14404-.71973-.0957-.41602-.14404-.91211-.14404-1.48828,0-.70312.09619-1.61523.28809-2.73535.19189-1.11914.41553-2.25684.67188-3.4082.25537-1.2793.57617-2.68848.95996-4.22461-.5127,1.47363-.91162,2.72168-1.19971,3.74414-.28809,1.02441-.56104,2.04883-.81592,3.07227-.25684,1.02441-.38428,1.85742-.38428,2.49609,0,.06445.01514.27246.04785.62402.03174.35254.07959.71973.14404,1.10352.06299.38477.14404.7373.24023,1.05664.09619.32031.20703.47949.33594.47949Zm2.3042-9.12012c-.06445,0-.14404.19238-.24023.57617-.0957.38379-.2085.86426-.33594,1.44043-.12891.57617-.24023,1.16797-.33594,1.77539-.09619.60938-.14404,1.1377-.14404,1.58398v.76855c0,.25586.03125.54395.09619.86426,0,.32031.03125.67188.0957,1.05566.06299,0,.12744-.33594.19189-1.00781.06299-.67188.12793-1.44043.19238-2.30469.06299-.86328.12744-1.69434.19189-2.49609.06299-.79883.15869-1.3584.28809-1.67969v-.57617Z"/>
      <path class="cls-1" d="m137.08545,23.04004c0,.83301-.41602,1.82422-1.24805,2.97656.0625.19141.0957.47949.0957.86328,0,.83301-.30469,1.66504-.91211,2.49609-.60742.83301-1.32812,1.61719-2.16016,2.35254-.83203.73633-1.69531,1.4248-2.5918,2.06348-.89648.64062-1.59961,1.18555-2.11133,1.63184-.19141.95996-.28711,1.91992-.28711,2.87988,0,1.34473.12695,2.75293.38281,4.22461.25586,1.47266.57617,2.92773.96094,4.36816.38281,1.43945.7832,2.83203,1.19922,4.17578s.7832,2.5918,1.10352,3.74414c.06445.25586.0957.6084.0957,1.05566,0,1.08887-.52734,1.85547-1.58398,2.30371-1.05469.44727-2.28906.67285-3.69531.67285-1.28125,0-2.51172-.14453-3.69531-.43262-1.18555-.28809-2.09766-.62402-2.73633-1.00781-.64062-.38379-1.29639-.91211-1.96826-1.58398s-1.28076-1.3916-1.82373-2.16016c-.54297-.76758-.9917-1.51953-1.34424-2.25586-.35107-.73535-.52783-1.3916-.52783-1.96777,0-.76855.14404-1.51953.43213-2.25586.2876-.73535.78418-1.16699,1.48779-1.29688l.28809.09668c.51123.38379,1.02295.86426,1.53613,1.43945.51123.57617,1.05566,1.16895,1.63184,1.77637.5752.60938,1.15137,1.18457,1.72754,1.72754.57617.54492,1.18359,1.00879,1.82422,1.39258-.89648-1.91992-1.64844-4.28711-2.25586-7.10449-.60938-2.81543-.91211-5.47168-.91211-7.96777,0-1.98242.22461-3.61523.67188-4.89551.51172-1.34473,1.39258-2.70312,2.64062-4.08008,1.24805-1.37598,2.57422-2.60742,3.98438-3.69629,1.40625-1.08789,2.7832-1.9834,4.12695-2.68848,1.34375-.70312,2.36719-1.05566,3.07227-1.05566.0625,0,.22266.06445.48047.19238.25391,0,.38281.0957.38281.28809,0,.12891-.0332.25586-.0957.38379l.48047-.28809.38477.0957c.12695.12891.30273.38379.52734.76855.22266.38379.36719.64062.43164.76758Zm-14.6875,8.63965c2.23828-2.81543,5.18359-5.63086,8.83203-8.44727-2.04883,1.08887-3.80859,2.35156-5.28125,3.79199-1.47266,1.43945-2.65625,2.99219-3.55078,4.65527Zm1.91992-.76758c.63867-.76758,1.34375-1.53613,2.11133-2.30371.76758-.76855,1.66406-1.53613,2.68945-2.30469-2.24219,1.28125-3.8418,2.81738-4.80078,4.6084Zm5.08789,21.21582c-1.59961-4.15918-2.5293-8.51074-2.7832-13.05566,0,.32129-.01758.62402-.04883.91211-.0332.28809-.04883.59277-.04883.91211,0,4.16113.96094,7.9043,2.88086,11.23145Z"/>
      <path class="cls-1" d="m161.85303,38.0166c1.53613-1.28027,2.55957-1.9209,3.07227-1.9209.19238,0,.28809.12988.28809.38477,0,.57617-.35254,1.50391-1.05566,2.78418l-1.15234,2.01562c-1.02441,1.85645-2.09668,3.74414-3.21582,5.66406-1.12109,1.91992-2.35254,3.66406-3.69629,5.23145-1.34375,1.56934-2.81738,2.84863-4.41602,3.84082-1.60059.99219-3.39258,1.4873-5.37598,1.4873-1.53613,0-2.96094-.25586-4.27148-.76758-1.3125-.51172-2.44824-1.18359-3.4082-2.0166-.95996-.83008-1.71289-1.77539-2.25586-2.83203-.54492-1.05566-.81641-2.15918-.81641-3.31152,0-2.30371.51172-4.87988,1.53613-7.72754,1.02246-2.84766,2.36719-5.52051,4.03223-8.0166,1.66309-2.49609,3.53516-4.5918,5.61523-6.28809,2.0791-1.69434,4.14355-2.54395,6.19238-2.54395,1.81836,0,3.36133.60938,4.62793,1.82422,1.26562,1.2168,1.90039,2.625,1.90039,4.22363,0,1.60059-.46875,3.28125-1.40137,5.04004-.93262,1.76172-2.10938,3.37695-3.52539,4.84863-1.41699,1.47266-2.96191,2.6875-4.63574,3.64746s-3.2207,1.44043-4.63672,1.44043c-.5791,0-1.09473-.09668-1.54492-.28809-.12891.44824-.22559.89648-.28809,1.34375-.06445.44824-.0957.89746-.0957,1.34375,0,1.28125.31934,2.38574.95996,3.3125.63867.92871,1.82324,1.3916,3.55176,1.3916,1.53613,0,3.00781-.62402,4.41602-1.87207,1.40723-1.24805,2.71973-2.6875,3.93555-4.31934,1.21582-1.63281,2.30469-3.2168,3.26465-4.75195.95996-1.53613,1.75879-2.59277,2.39941-3.16797Zm-21.26855-1.44043c.25488-.44727.7041-1.10352,1.34473-1.96777.63867-.86426,1.2793-1.72852,1.91992-2.5918.63867-.86426,1.19922-1.63281,1.67969-2.30469s.71973-1.07031.71973-1.2002c-2.36816,2.1123-4.1123,4.20898-5.23145,6.28809-1.12109,2.08105-1.68066,3.53711-1.68066,4.36816.12793,0,.28809-.35059.48047-1.05566.19238-.7041.44727-1.21484.76758-1.53613Zm2.74121-.28809c.0625,0,.39844-.36719,1.00781-1.10352.60742-.73535,1.24805-1.56836,1.91992-2.49609s1.55078-2.19141,2.63965-3.79199c-.06445,0-.38379.28809-.95996.86328-.57617.57617-1.2002,1.26465-1.87207,2.06445-.67188.80078-1.2959,1.61719-1.87207,2.44824-.5752.83203-.86328,1.50391-.86328,2.01562Zm9.9834-5.75977c-.19141-.19238-.38379-.28809-.57617-.28809-.63965,0-1.4248.56055-2.35156,1.67969-.92871,1.12109-1.82422,2.40039-2.68848,3.83984-.86328,1.44043-1.61621,2.81738-2.25586,4.12793-.64062,1.3125-.99316,2.16016-1.05566,2.54492.12793.06445.35059.0957.67188.0957,1.15234,0,2.23926-.46387,3.26367-1.39258,1.02344-.92676,1.9209-1.99902,2.68848-3.21582.76758-1.21484,1.375-2.44727,1.82422-3.69531.44629-1.24805.67188-2.22363.67188-2.92871,0-.25488-.06445-.51074-.19238-.76758Zm-5.32617,11.9043c3.04688-1.47168,5.0459-4.38379,5.99805-8.73633-1.20605,3.71191-3.20508,6.62402-5.99805,8.73633Z"/>
      <path class="cls-1" d="m180.28564,38.0166c.63965-.63965,1.23145-1.15234,1.77637-1.53613.54297-.38477.97461-.57617,1.2959-.57617.31934,0,.47949.16016.47949.47949,0,.32129-.25586.99316-.76758,2.0166-.83203,1.47266-1.76074,3.29688-2.78418,5.47168-1.02441,2.17676-2.16016,4.27246-3.4082,6.28809s-2.57617,3.74414-3.9834,5.18359c-1.4082,1.44043-2.87988,2.16016-4.41602,2.16016-2.20508,0-3.74707-.86328-4.62891-2.5918-.88184-1.72754-1.32324-3.99902-1.32324-6.81641,0-2.49512.29883-5.2627.89746-8.30371.59766-3.03906,1.33789-6.12695,2.21973-9.26367.88184-3.13477,1.87793-6.20703,2.99121-9.21582,1.11133-3.00781,2.17871-5.69629,3.20312-8.06445,1.02344-2.36719,1.93555-4.28711,2.73633-5.75977.7998-1.47168,1.35938-2.27148,1.67969-2.40039.12793-.0625.35156-.0957.67285-.0957.89551,0,1.75879.60938,2.5918,1.82422.83105,1.21582,1.24805,2.5918,1.24805,4.12793,0,1.08887-.16113,1.98438-.48047,2.6875-.89648,2.1123-2.01562,4.76855-3.35938,7.96875-1.34473,3.2002-2.64062,6.5752-3.88867,10.12793-1.24805,3.55176-2.32031,7.04102-3.21582,10.46387-.89648,3.42383-1.34375,6.38379-1.34375,8.87988,0,.38379.01465.75293.04785,1.10352.03125.35254.0791.68848.14355,1.00879,1.28027-.63965,2.44824-1.63281,3.50488-2.97656,1.05566-1.34375,2.03027-2.78418,2.92773-4.32031.89551-1.53516,1.75977-3.02344,2.5918-4.46387.83105-1.43945,1.69531-2.5752,2.5918-3.40723Zm-15.58594,3.45605c.70312-3.58398,1.69434-7.45508,2.97559-11.61621,1.2793-4.16016,2.81543-8.76758,4.6084-13.82422-1.98438,4.6084-3.61719,9.08887-4.89648,13.44043-1.28125,4.35254-2.17676,8.35156-2.6875,12Z"/>
      <path class="cls-1" d="m212.63623,38.0166c.63965-.57617,1.23242-1.05664,1.77637-1.44043.54297-.38379.97559-.57617,1.2959-.57617.31934,0,.48047.16113.48047.48047,0,.12891-.20898.64062-.62402,1.53613-.41699.89648-.94531,2.01562-1.58398,3.35938-.64062,1.34375-1.39258,2.81738-2.25586,4.41602-.86426,1.60059-1.72852,3.15332-2.59277,4.65625-.86328,1.50488-1.72754,2.84863-2.5918,4.03223-.86426,1.18457-1.64844,2.06348-2.35156,2.63965-.44922.31934-.89746.54297-1.34473.67188-.44824.12793-.86328.19238-1.24707.19238-.57617,0-1.15234-.09668-1.72852-.28809l-.38379-.19238c-1.28125-.38379-2.27246-1.10352-2.97656-2.16016-.70508-1.05566-1.18457-2.31836-1.43945-3.79199-1.15234,1.34473-2.5293,2.67383-4.12793,3.98438-1.60059,1.3125-3.26465,2.06445-4.99219,2.25586-1.2168,0-2.24121-.32129-3.07227-.95996-.83203-.63867-1.52051-1.42383-2.06348-2.35156-.54492-.92773-.92871-1.90332-1.15234-2.92871-.22461-1.02246-.33594-1.88672-.33594-2.5918,0-2.75098.43164-5.61621,1.2959-8.5918s2.01562-5.69531,3.45605-8.16016c1.44043-2.46289,3.08691-4.49512,4.94434-6.0957,1.85547-1.59961,3.74414-2.40039,5.66406-2.40039.83105,0,1.69434.16113,2.5918.48047.89551.32031,1.71094.80078,2.44824,1.43945.73438.64062,1.375,1.44043,1.91992,2.40039.54297.95996.91211,2.08008,1.10352,3.36035.89551.32031,1.83887.91113,2.83203,1.77539.99121.86426,1.48828,1.80957,1.48828,2.83203,0,.25684-.06445.57617-.19238.95996-1.28027,2.49609-2.35156,5.15234-3.21582,7.96777-.86426,2.81738-1.2959,5.44141-1.2959,7.87207,1.02344-.89551,1.99902-2.01562,2.92773-3.35938.92676-1.34473,1.79102-2.73633,2.5918-4.17578.7998-1.44043,1.59961-2.81641,2.40039-4.12891.7998-1.31055,1.58398-2.35156,2.35156-3.11914Zm-26.87988-3.45605c.25488-.44727.62402-1.07129,1.10449-1.87207.47949-.7998.97461-1.58398,1.48828-2.35254.51074-.76758.97461-1.43945,1.3916-2.01562.41504-.57617.68652-.86426.81641-.86426-.51367.5127-1.10449,1.10449-1.77637,1.77637s-1.2959,1.4082-1.87207,2.20801c-.57617.80078-1.07227,1.66504-1.48828,2.5918-.41699.92871-.65625,1.87207-.71973,2.83203.06348-.06348.22363-.39941.48047-1.00781.25488-.60742.44629-1.04004.5752-1.2959Zm10.08008,4.99121c.19238-.44629.36816-1.02246.52832-1.72754.15918-.70312.31934-1.45508.47949-2.25586.15918-.7998.27148-1.58398.33691-2.35254.0625-.76758.0957-1.43945.0957-2.01562,0-.89551-.19238-1.34375-.57617-1.34375-.5127,0-1.12012.46484-1.82422,1.3916-.70508.92871-1.43945,2.1123-2.20801,3.55176-.76758,1.44043-1.53613,3.04102-2.30371,4.80078-.76758,1.76074-1.45605,3.45605-2.06445,5.08789s-1.10352,3.12012-1.4873,4.46387c-.38477,1.34375-.57617,2.33691-.57617,2.97559,0,.44922.0957.67188.28809.67188.25488,0,.94336-.49512,2.06348-1.4873,1.11914-.99219,2.27148-2.14355,3.45605-3.45605,1.18359-1.31152,2.25586-2.57617,3.21582-3.79199.96094-1.21484,1.44043-2.0166,1.44043-2.40039-.19238-.12695-.41699-.33594-.67188-.62402-.25684-.28809-.38379-.59082-.38379-.91211,0-.12695.0625-.31934.19141-.57617Zm-3.83984-10.75195c-.12891,0-.57617.35254-1.34375,1.05664-.76855.70508-1.4082,1.37695-1.91992,2.01562,0,.06445-.1123.25684-.33594.57617-.22559.32129-.44922.67188-.67188,1.05566-.22559.38379-.43262.73633-.62402,1.05664-.19238.32031-.25684.47949-.19238.47949-.19238,0,.24023-.55957,1.2959-1.67969,1.05566-1.11914,2.19141-2.51074,3.4082-4.17578l.38379-.38477Zm9.4082,13.44043c.38379-1.2793.71973-2.46289,1.00781-3.55176.28809-1.08789.43164-1.82422.43164-2.20801,0-.06348.01562-.09668.04883-.09668.03125,0,.04785-.03125.04785-.0957v-.0957c-.06445,0-.17676.08105-.33594.24023-.16113.16016-.30469.49609-.43262,1.00781-.5752,2.30371-1.08887,4.38379-1.53613,6.23926-.38379,1.60059-.73633,3.05762-1.05566,4.36816-.32129,1.3125-.44824,2.0332-.38379,2.16016.19238-.83105.52832-2.03125,1.00781-3.59961.48047-1.56738.87891-3.02441,1.2002-4.36816Z"/>
      <path class="cls-1" d="m225.8833,9.98438c0,.76758-.30371,1.82422-.91113,3.16797-.60938,1.34375-1.3291,2.65625-2.16016,3.93555-.83301,1.28125-1.71289,2.38574-2.64062,3.3125-.92773.92871-1.71289,1.3916-2.35156,1.3916-.5127,0-.95996-.22363-1.34375-.67188-.38477-.44727-.57617-.89551-.57617-1.34375,0-.19238.03125-.35156.0957-.48047.63867-.95996,1.23145-2.14355,1.77637-3.55176.54297-1.40723,1.07031-2.75098,1.58398-4.03223.51172-1.2793,1.03906-2.38281,1.58398-3.31152.54297-.92676,1.2002-1.39258,1.96777-1.39258.70312,0,1.37598.28809,2.01562.86426s.95996,1.28125.95996,2.1123Zm-5.18359,8.63965c2.62402-3.13477,4.19141-5.91895,4.7041-8.35156-.64062,1.28027-1.34375,2.6084-2.1123,3.9834-.76758,1.37695-1.63184,2.83203-2.5918,4.36816Z"/>
      <path class="cls-1" d="m241.05078,23.04004c0,.83301-.41699,1.82422-1.24805,2.97656.0625.19141.0957.47949.0957.86328,0,.83301-.30469,1.66504-.91211,2.49609-.6084.83301-1.3291,1.61719-2.16016,2.35254-.83203.73633-1.69629,1.4248-2.5918,2.06348-.89648.64062-1.60059,1.18555-2.1123,1.63184-.19141.95996-.28711,1.91992-.28711,2.87988,0,1.34473.12695,2.75293.38379,4.22461.25488,1.47266.57617,2.92773.95996,4.36816.38379,1.43945.7832,2.83203,1.2002,4.17578.41504,1.34375.78223,2.5918,1.10352,3.74414.06348.25586.0957.6084.0957,1.05566,0,1.08887-.52734,1.85547-1.58398,2.30371-1.05566.44727-2.28906.67285-3.69531.67285-1.28125,0-2.5127-.14453-3.69629-.43262-1.18408-.28809-2.09619-.62402-2.73584-1.00781-.64062-.38379-1.2959-.91211-1.96777-1.58398s-1.28125-1.3916-1.82422-2.16016c-.54297-.76758-.99121-1.51953-1.34375-2.25586-.35059-.73535-.52832-1.3916-.52832-1.96777,0-.76855.14453-1.51953.43262-2.25586.28809-.73535.78418-1.16699,1.4873-1.29688l.28809.09668c.51172.38379,1.02344.86426,1.53613,1.43945.51172.57617,1.05664,1.16895,1.63184,1.77637.57617.60938,1.15234,1.18457,1.72852,1.72754.57617.54492,1.18311,1.00879,1.82373,1.39258-.89697-1.91992-1.64795-4.28711-2.25537-7.10449-.60938-2.81543-.91211-5.47168-.91211-7.96777,0-1.98242.22363-3.61523.67188-4.89551.51172-1.34473,1.3916-2.70312,2.63916-4.08008,1.24805-1.37598,2.5752-2.60742,3.98438-3.69629,1.40723-1.08789,2.78418-1.9834,4.12793-2.68848,1.34375-.70312,2.36719-1.05566,3.07227-1.05566.0625,0,.22266.06445.47949.19238.25488,0,.38379.0957.38379.28809,0,.12891-.0332.25586-.0957.38379l.47949-.28809.38477.0957c.12695.12891.30273.38379.52734.76855.22363.38379.36816.64062.43262.76758Zm-14.68799,8.63965c2.23877-2.81543,5.18408-5.63086,8.83154-8.44727-2.04883,1.08887-3.80859,2.35156-5.28027,3.79199-1.47266,1.43945-2.65625,2.99219-3.55127,4.65527Zm1.91943-.76758c.63965-.76758,1.34473-1.53613,2.1123-2.30371.76758-.76855,1.66309-1.53613,2.68848-2.30469-2.24121,1.28125-3.84082,2.81738-4.80078,4.6084Zm5.08789,21.21582c-1.59961-4.15918-2.52832-8.51074-2.7832-13.05566,0,.32129-.0166.62402-.04883.91211s-.04785.59277-.04785.91211c0,4.16113.95996,7.9043,2.87988,11.23145Z"/>
      <path class="cls-1" d="m303.35156,26.5918c1.47168.95996,2.7998,2.0332,3.98438,3.2168,1.18359,1.18457,1.77637,2.44727,1.77637,3.79199,0,3.71191-.88086,7.19922-2.64062,10.46387-1.76074,3.26367-4.08008,6.16016-6.95996,8.6875-2.87988,2.5293-6.17676,4.5918-9.8877,6.19238-3.71289,1.59863-7.52148,2.5918-11.42383,2.97559-1.08887,0-2.09766-.24023-3.02441-.71973-.92871-.48047-1.72754-1.13672-2.39941-1.96777-.67285-.83301-1.18555-1.76172-1.53613-2.78418-.35254-1.02344-.52832-2.1123-.52832-3.26367,0-1.53613.57617-2.84766,1.72852-3.93652,1.15137-1.08691,2.60645-1.99902,4.36719-2.73633,1.75977-.73438,3.66309-1.2627,5.71191-1.58398,2.04785-.31934,3.93652-.47949,5.66406-.47949,1.79102,0,2.68848.41699,2.68848,1.24805,0,.32129-.1123.62402-.33594.91211-.22559.28809-.49707.43164-.81641.43164-2.49609.32129-4.7207.86426-6.67188,1.63184-1.95312.76855-3.59961,1.58398-4.94434,2.44824-1.34375.86426-2.38477,1.66504-3.11914,2.40039-.7373.73633-1.10449,1.23242-1.10449,1.4873,0,.25684.28809.38477.86426.38477.76758,0,1.90332-.24023,3.4082-.7207,1.50293-.47949,3.16797-1.18359,4.99121-2.11133,1.82422-.92773,3.71094-2.03125,5.66406-3.3125,1.95215-1.2793,3.71094-2.71973,5.28027-4.32031,1.56738-1.59863,2.86328-3.34277,3.8877-5.23145,1.02344-1.88672,1.53613-3.85547,1.53613-5.9043,0-1.21484-.71973-2.1123-2.16016-2.6875-1.43945-.57617-2.99219-.86426-4.65527-.86426-.19238,0-.38477.0332-.57617.0957-.19238.06445-.35254.09668-.48047.09668-.12891,0-.19141-.09668-.19141-.28809,0-.06348.03125-.12793.0957-.19238l.0957-.0957c-.06445,0-.19141.0332-.38379.0957-.19238.06445-.35254.0957-.47949.0957-.32129,0-.48047-.1582-.48047-.47949v-.86426.19238c0,.06445-.06445.0957-.19238.0957-.12891,0-.30371-.0957-.52734-.28809-.22559-.19238-.33594-.44727-.33594-.76758,0-.12793.03125-.25488.0957-.38477.06348-.12695.0957-.31934.0957-.5752l-.28809-.38477c0-.38379.60742-.99121,1.82422-1.82324,1.08789-.7041,2.28809-1.56836,3.60059-2.59277,1.31055-1.02246,2.62305-2.11133,3.93555-3.26367,1.31152-1.15234,2.5918-2.35156,3.83984-3.59961s2.35254-2.41504,3.3125-3.50391c.95996-1.08789,1.72754-2.0957,2.30371-3.02441.57617-.92676.86426-1.67969.86426-2.25586,0-.51172-.24023-.84766-.7207-1.00781-.47949-.15918-.97559-.24023-1.4873-.24023-1.28125,0-2.78418.5127-4.5127,1.53613-1.72754,1.02441-3.50391,2.41602-5.32715,4.17578-1.82422,1.76074-3.60059,3.83984-5.32812,6.24023-1.72852,2.39941-3.29688,4.97656-4.7041,7.72754-1.4082,2.75293-2.54395,5.63281-3.4082,8.64062-.86426,3.00879-1.2959,5.98438-1.2959,8.92773.0625.12891.0957.32129.0957.57617,0,.32031-.06445.6084-.19141.86328-.12891.25684-.44922.38477-.95996.38477h-.95996c-.19238,0-.36914-.04883-.52832-.14453-.16016-.0957-.36914-.14355-.62402-.14355-.19238-.06348-.35254-.09668-.48047-.09668-.32031,0-.5127-.03125-.5752-.0957-.44922,0-.64062-.0625-.57617-.19043.0625-.12793.03125-.19238-.09668-.19238-.32031,0-.46484.0166-.43164.04883.03125.03125-.0166.0459-.14355.0459-1.66504,0-2.70508-.47852-3.12012-1.43555-.41699-.95703-.62402-1.88379-.62402-2.77734,0-2.1709.43164-4.83594,1.2959-7.99707.86426-3.16016,1.88672-6.36914,3.07227-9.625,1.18262-3.25684,2.39941-6.32129,3.64746-9.19531s2.28809-5.14062,3.12012-6.80078c-1.85742.7666-3.74414,2.15527-5.66406,4.16699s-3.66406,4.27734-5.23242,6.79883c-1.56836,2.52344-2.84766,5.09277-3.83984,7.70996-.99219,2.61914-1.4873,4.85449-1.4873,6.70508,0,.70215.19141,1.5.5752,2.39453.38477.89355.6084,1.37402.67285,1.43652,0,.06445.03125.11328.0957.14453.0625.03125.0957.11035.0957.23828-.06445.12891-.16016.28809-.28809.48047-.12891.19141-.25586.28613-.38379.28613-.06445,0-.1123-.03125-.14355-.0957-.0332-.06348-.08105-.09668-.14453-.09668-.12891,0-.19141.0332-.19141.09668,0,.06445-.06543.0957-.19238.0957-2.24121,0-4.11328-.6709-5.61621-2.01172-1.50391-1.34082-2.25586-2.87207-2.25586-4.59766,0-1.53125.39941-3.27148,1.2002-5.21777.79883-1.94727,1.85547-3.92773,3.16797-5.93848,1.31055-2.01172,2.83203-3.95898,4.55957-5.84277,1.72852-1.88379,3.51953-3.57617,5.37598-5.07617,1.85547-1.5,3.71094-2.69824,5.56836-3.59277,1.85547-.89355,3.58301-1.34082,5.18359-1.34082,1.02344,0,1.68066.1123,1.96875.33594.28711.22559.65527.33594,1.10352.33594-.06445,0-.0166.0166.14453.04785.1582.0332.33594.08105.52734.14453.19238.06445.36816.14355.52832.24023.15918.0957.24023.20801.24023.33594,0,.5752-.17773,1.26367-.52832,2.06348-.35254.80078-.73633,1.60059-1.15234,2.40039-.41699.80078-.81543,1.58398-1.19922,2.35156-.38477.76855-.60938,1.37695-.67285,1.82422.83105-1.53613,1.51953-2.81543,2.06445-3.83984.54297-1.02344,1.02246-1.9834,1.43945-2.87988.41602-.89551.62402-1.44043.62402-1.63184,0,.06445.11133.19141.33691.38379.22266.19141.39844.54395.52734,1.05566v.91211c0,.35254-.06445.59277-.19141.71973-.70508,2.04883-1.52148,4.12793-2.44824,6.24023-.92871,2.1123-1.84082,4.28809-2.73633,6.52832,1.47168-2.55957,3.12012-4.97559,4.94434-7.24805,1.82422-2.27148,3.72754-4.27246,5.71191-6,1.9834-1.72852,4.03223-3.12012,6.14355-4.17578,2.1123-1.05664,4.19141-1.58398,6.24023-1.58398,1.08789,0,2.04785.19141,2.87988.5752.83105.38477,1.51953.88086,2.06445,1.48828.54297.60938.95996,1.2959,1.24805,2.06445.28809.76758.43164,1.50391.43164,2.20801,0,1.47266-.33594,3.05664-1.00781,4.75195-.67188,1.69629-1.56934,3.40723-2.68848,5.13574-1.12012,1.72754-2.38477,3.4082-3.79199,5.04004-1.4082,1.63184-2.87988,3.05664-4.41602,4.27148Zm-40.03125,6.81641c-1.02441-1.21484-1.53613-2.75098-1.53613-4.6084,0-2.36621.73438-5.08789,2.20801-8.15918-2.04883,3.32812-3.07227,6.04785-3.07227,8.15918,0,1.91992.7998,3.45605,2.40039,4.6084Zm24.19141-14.01562c.57617-1.08789,1.23145-2.19238,1.96777-3.3125.73535-1.11914,1.51953-2.20801,2.35254-3.26367.83105-1.05664,1.63184-2.0166,2.40039-2.87988.76758-.86426,1.4707-1.61621,2.11133-2.25684-.19141.12988-.5127.38477-.95996.76855-.44824.38379-.83203.73633-1.15137,1.05566-.12988.06445-.28809.19238-.48047.38379-.19238.19238-.5127.59277-.95996,1.2002-.44824.60938-1.07227,1.50488-1.87207,2.68848-.80078,1.18457-1.80859,2.80078-3.02441,4.84766-.25586.25684-.44824.60938-.5752,1.05566v-.0957l.19141-.19141Zm9.50391-10.75195l.19238-.19238v-.0957l-.28809.28809c-.32129.12891-.71973.43164-1.2002.91113-.47949.48047-.84863.84961-1.10352,1.10449-.32129.32129-.76855.86426-1.34473,1.63184-.5752.76855-1.15137,1.60059-1.72754,2.49609-.70508,1.02441-1.4082,2.1123-2.1123,3.26367,1.28027-1.66309,2.35254-3.03906,3.2168-4.12793.86328-1.08691,1.71094-2.14355,2.54395-3.16797.83105-1.02246,1.43945-1.72754,1.82324-2.11133Zm-7.4873,45.59961v.19238c1.4707-.44727,2.89453-1.2002,4.27148-2.25684,1.37598-1.05566,2.65527-2.23926,3.83984-3.55176,1.18359-1.31055,2.28809-2.70312,3.3125-4.17578,1.02246-1.47168,1.88672-2.84668,2.5918-4.12793l.38379-.48047-.28809-.0957c-.5127.95996-1.3291,2.20801-2.44727,3.74414-1.12109,1.53613-2.35254,3.05664-3.69629,4.55957-1.34375,1.50488-2.7207,2.84863-4.12793,4.03223-1.40918,1.18555-2.65625,1.87207-3.74414,2.06445l-.0957.0957Zm.19141-1.82422c.38379,0,1.11914-.38379,2.20801-1.15137,1.08789-.76855,2.19141-1.69531,3.3125-2.78418,1.11914-1.08789,2.12695-2.24023,3.02344-3.45605.89551-1.21484,1.34473-2.30469,1.34473-3.26465,0-.0625-.20898.30469-.62402,1.10449-.41699.80078-1.04102,1.71289-1.87207,2.73633-1.08887,1.28027-2.32129,2.57617-3.69629,3.8877-1.37695,1.3125-2.6084,2.28906-3.69629,2.92773Zm3.36035,2.97656c1.21484-.51172,2.49609-1.32812,3.83984-2.44824,1.34375-1.11914,2.60742-2.36719,3.79199-3.74414,1.18359-1.37598,2.23926-2.76758,3.16797-4.17578.92676-1.40723,1.61523-2.65527,2.06445-3.74414l-.28809-.28809c-1.60059,3.00879-3.4082,5.61621-5.42383,7.82422-2.0166,2.20801-4.59375,4.33594-7.72852,6.38379-.38379.25684-.57617.5127-.57617.76758.06348,0,.22363-.0791.48047-.23926.25488-.15918.47949-.27148.67188-.33594Zm2.78418-31.10449c1.72754-1.2793,3.35938-2.62305,4.89551-4.03223,1.53613-1.40625,2.86328-2.6875,3.98438-3.83984,1.11914-1.15137,2.01562-2.1123,2.6875-2.87988s1.00879-1.21484,1.00879-1.34375c0,.25586-.33691.75293-1.00879,1.4873-.67188.7373-1.50391,1.56934-2.49609,2.49609-.99219.92871-2.08008,1.91992-3.26367,2.97656-1.18457,1.05566-2.27246,2.01562-3.26367,2.87988-.99316.86426-2.19336,1.84082-3.60059,2.92773.19238,0,.54297-.22363,1.05664-.67188Z"/>
      <path class="cls-1" d="m330.13574,38.0166c.63965-.63965,1.23145-1.15234,1.77637-1.53613.54297-.38477.97461-.57617,1.2959-.57617.31934,0,.47949.16016.47949.47949,0,.32129-.25586.99316-.76758,2.0166-.83203,1.47266-1.76074,3.29688-2.78418,5.47168-1.02441,2.17676-2.16016,4.27246-3.4082,6.28809s-2.57617,3.74414-3.9834,5.18359c-1.4082,1.44043-2.87988,2.16016-4.41602,2.16016-2.20508,0-3.74707-.86328-4.62891-2.5918-.88184-1.72754-1.32324-3.99902-1.32324-6.81641,0-2.49512.29883-5.2627.89746-8.30371.59766-3.03906,1.33789-6.12695,2.21973-9.26367.88184-3.13477,1.87793-6.20703,2.99121-9.21582,1.11133-3.00781,2.17871-5.69629,3.20312-8.06445,1.02344-2.36719,1.93555-4.28711,2.73633-5.75977.7998-1.47168,1.35938-2.27148,1.67969-2.40039.12793-.0625.35156-.0957.67285-.0957.89551,0,1.75879.60938,2.5918,1.82422.83105,1.21582,1.24805,2.5918,1.24805,4.12793,0,1.08887-.16113,1.98438-.48047,2.6875-.89648,2.1123-2.01562,4.76855-3.35938,7.96875-1.34473,3.2002-2.64062,6.5752-3.88867,10.12793-1.24805,3.55176-2.32031,7.04102-3.21582,10.46387-.89648,3.42383-1.34375,6.38379-1.34375,8.87988,0,.38379.01465.75293.04785,1.10352.03125.35254.0791.68848.14355,1.00879,1.28027-.63965,2.44824-1.63281,3.50488-2.97656,1.05566-1.34375,2.03027-2.78418,2.92773-4.32031.89551-1.53516,1.75977-3.02344,2.5918-4.46387.83105-1.43945,1.69531-2.5752,2.5918-3.40723Zm-15.58594,3.45605c.70312-3.58398,1.69434-7.45508,2.97559-11.61621,1.2793-4.16016,2.81543-8.76758,4.6084-13.82422-1.98438,4.6084-3.61719,9.08887-4.89648,13.44043-1.28125,4.35254-2.17676,8.35156-2.6875,12Z"/>
      <path class="cls-1" d="m360.85547,37.53613c.63965-.57617,1.23145-1.05566,1.77637-1.44043.54297-.38379.97461-.5752,1.2959-.5752.31934,0,.48047.12891.48047.38379,0,.32129-.25684.99316-.76855,2.01562-1.85645,3.3291-3.72852,6.06445-5.61621,8.20801-1.8877,2.14551-4.17578,3.47266-6.86328,3.98438-1.53613,2.04883-3.26465,3.68066-5.18457,4.89551-1.91992,1.2168-3.96875,1.82422-6.14355,1.82422-1.85742,0-3.45605-.35059-4.7998-1.05566-1.34473-.7041-2.44824-1.63184-3.3125-2.78418s-1.50488-2.44824-1.91992-3.8877c-.41699-1.44043-.62402-2.89551-.62402-4.36816,0-.44727.06348-1.2793.19238-2.49609.12695-1.21484.33594-2.43164.62402-3.64844.28711-1.21484.63867-2.30371,1.05566-3.26367.41504-.95996.87891-1.44043,1.3916-1.44043.44727,0,.97559.11328,1.58398.33691.60742.22461,1.16699.56055,1.68066,1.00781-.06445-.25488-.09668-.49512-.09668-.7207v-.62402c0-1.53516.28809-3.00684.86426-4.41504.57617-1.40723,1.35938-2.64062,2.35254-3.69629.99121-1.05664,2.12695-1.90332,3.40723-2.54395,1.28027-.63965,2.62402-.95996,4.03223-.95996,1.79102,0,3.34375.38379,4.65625,1.15137,1.31055.76855,2.38379,1.74512,3.21582,2.92871.83105,1.18457,1.44043,2.51172,1.82422,3.9834.38379,1.47363.57617,2.91309.57617,4.32031,0,1.79199-.22559,3.61621-.67188,5.47168-.44922,1.85742-1.08984,3.64844-1.9209,5.37598.63965-.44629,1.21582-.97461,1.72852-1.58398.51172-.60742,1.02246-1.2627,1.53613-1.96777.51172-.70312,1.05566-1.42383,1.63184-2.16016.57617-.73438,1.24805-1.48828,2.01562-2.25586Zm-28.41602,0c0-.12793.01562-.24023.04785-.33594s.04883-.20703.04883-.33594c0-.12793.03125-.22363.0957-.28809-.12891,0-.28809.22461-.48047.67188-.19141.44824-.38379,1.02441-.5752,1.72852-.19238.70508-.36914,1.50391-.52832,2.39941-.16016.89746-.24023,1.79297-.24023,2.68848,0,1.08887.08008,2.11133.24023,3.07129.15918.95996.43164,1.79297.81641,2.49609-.38477-1.15137-.57617-2.71875-.57617-4.7041,0-1.4707.11035-2.89453.33594-4.27148.22363-1.37598.49512-2.41504.81543-3.12012Zm6.81641,14.01562c.19238.06445.47949.09668.86426.09668,1.2793,0,2.6543-.57617,4.12793-1.72852-1.47363-.63867-2.81738-1.56738-4.03223-2.78418-1.2168-1.21484-2.27246-2.6543-3.16797-4.31934-.38379,1.34375-.57617,2.56055-.57617,3.64746,0,1.2168.24023,2.27246.71973,3.16797.48047.89746,1.16699,1.53613,2.06445,1.91992Zm7.2002-5.08789c.38379-.63867.79883-1.50293,1.24805-2.5918.44629-1.08691.86328-2.27051,1.24805-3.55176.38379-1.2793.70312-2.5918.95996-3.93652.25488-1.34375.38379-2.5918.38379-3.74316,0-1.66406-.28809-2.99121-.86426-3.98438-.57617-.99121-1.56934-1.48828-2.97559-1.48828-.95996,0-1.82422.27344-2.5918.81641-.76855.54395-1.42578,1.28125-1.96875,2.20801-.54395.92871-.95996,1.96777-1.24805,3.12012-.28809,1.15137-.43164,2.33691-.43164,3.55176,0,1.08887.11133,2.14453.33594,3.16797.22363,1.02441.59082,1.96777,1.10449,2.83203.51074.86426,1.16699,1.61719,1.96777,2.25586.79883.64062,1.74316,1.08887,2.83203,1.34375Zm3.07129-21.31152c.44727.19141.94434.52734,1.48828,1.00781.54297.48047,1.02344,1.00781,1.44043,1.58398.41504.57617.7832,1.15234,1.10352,1.72852.31934.5752.48047,1.08887.48047,1.53516.0625.12891.12695.25684.19141.38477.06348.12891.09668.16016.09668.0957,0-.44727-.12891-1.00781-.38477-1.67969-.25586-.67285-.5918-1.32812-1.00781-1.96875-.41699-.63867-.92871-1.21484-1.53613-1.72754-.6084-.51172-1.23242-.83105-1.87207-.95996Z"/>
      <path class="cls-1" d="m383.99219,34.08008c.44629.32129.83105.78418,1.15137,1.39258s.48047,1.26367.48047,1.96777c0,.44824-.0332.76758-.0957.95996-.64062,2.49609-1.2959,5.16895-1.96875,8.01562-.67188,2.84863-1.4248,5.69727-2.25586,8.54395-.83203,2.84766-1.79199,5.58301-2.87988,8.20801-1.08887,2.62402-2.33691,4.94434-3.74414,6.95996-1.4082,2.0166-3.05664,3.61523-4.94336,4.7998-1.88867,1.18359-4.04883,1.77637-6.48047,1.77637-1.15234,0-2.1748-.25684-3.07227-.76758-.89551-.51367-1.66309-1.1377-2.30371-1.87207-.63867-.73633-1.11914-1.52148-1.44043-2.35254-.31934-.83203-.47949-1.56836-.47949-2.20801,0-.95996.35254-1.43945,1.05566-1.43945.44922,0,.84961.25488,1.2002.76758.35254.51172.75293.76855,1.2002.76855,1.60059,0,3.10352-.41699,4.51172-1.24805,1.40723-.83301,2.71973-1.98535,3.93652-3.45605,1.21484-1.47363,2.35156-3.16797,3.40723-5.08789,1.05664-1.9209,2.06445-3.99902,3.02441-6.24023-1.15234,1.02441-2.33691,1.90527-3.55176,2.63965-1.2168.73633-2.40039,1.10449-3.55176,1.10449-1.40918,0-2.49609-.44727-3.26465-1.34473-.76758-.89551-1.3291-1.87207-1.67969-2.92773-.35254-1.05566-.59277-2.44824-.71973-4.17578,0-2.87988.44629-5.79199,1.34375-8.73633.89551-2.94238,2.06348-5.58301,3.50391-7.91992,1.44043-2.33496,3.02441-4.25488,4.75195-5.75977,1.72754-1.50293,3.45605-2.25586,5.18359-2.25586.83105,0,1.71191.17676,2.64062.52734.92676.35254,1.77539.88086,2.54395,1.58398.76758.70508,1.3916,1.58398,1.87207,2.64062.47949,1.05566.71973,2.25586.71973,3.59961,0,.25684-.0166.51367-.04785.76855-.0332.25586-.04785.5127-.04785.76758Zm-17.85645,3.07227c.19238-.44727.52832-1.15234,1.00781-2.1123.48047-.95996.95996-1.91992,1.44043-2.87988.47949-.95996.94336-1.79102,1.3916-2.49609.44727-.70312.73535-1.05566.86426-1.05566-1.79199,1.85645-3.16797,3.80859-4.12793,5.85547-.95996,2.04883-1.44043,3.71289-1.44043,4.99219v.48047c.06348-.06348.17578-.44727.33691-1.15234.1582-.70312.33594-1.24805.52734-1.63184Zm12.48047,4.60742c-.19238-.0625-.44922-.27148-.76855-.62402-.32031-.35059-.47949-.71973-.47949-1.10352,0-.31934.0791-.84766.24023-1.58398.1582-.73535.35059-1.53613.5752-2.40039.22363-.86328.41602-1.74316.57617-2.63965.15918-.89551.24023-1.63184.24023-2.20801s-.04785-.94336-.14453-1.10449c-.0957-.1582-.23926-.23926-.43164-.23926-.5127,0-1.12012.47949-1.82422,1.43945-.70508.95996-1.45605,2.17676-2.25586,3.64844-.80078,1.47266-1.60059,3.12012-2.39941,4.94336-.80176,1.82422-1.52148,3.58594-2.16016,5.28027-.64062,1.69629-1.15234,3.24902-1.53613,4.65625-.38379,1.4082-.57617,2.46484-.57617,3.16797,0,.5127.0957.76758.28809.76758s.67188-.33594,1.44043-1.00781c.76758-.67188,1.67969-1.55078,2.73535-2.63965,1.05664-1.08789,2.16016-2.36719,3.3125-3.83984,1.15137-1.47168,2.20801-2.97656,3.16797-4.5127Zm-2.1123,21.3125c0-.12891-.0166-.25684-.04785-.38379-.0332-.12891-.08105-.16113-.14453-.09668-.12891.32031-.25586.7041-.38379,1.15234-.12891.44727-.28809.7998-.47949,1.05566-.32129.57617-.78516,1.2959-1.39258,2.16016-.6084.86426-1.24805,1.71191-1.91992,2.54395-.67188.83105-1.24805,1.56738-1.72754,2.20801-.48047.63965-.7207,1.02344-.7207,1.15234.06348,0,.35156-.25684.86426-.76855,1.66406-1.53516,2.97656-3.05664,3.93652-4.55957.95996-1.50488,1.63184-2.99219,2.01562-4.46387Z"/>
    </g>
  </g>
</svg>