<?xml version="1.0" encoding="UTF-8"?>
<svg id="_图层_2" data-name="图层 2" xmlns="http://www.w3.org/2000/svg" viewBox="0 0 216.18896 60.76807">
  <defs>
    <style>
      .cls-1 {
        fill: #71c6cd;
        stroke-width: 0px;
      }
    </style>
  </defs>
  <g id="_图层_1-2" data-name="图层 1">
    <g>
      <path class="cls-1" d="m54.91211,9.02393c.19189.89697.28809,1.85693.28809,2.87988,0,2.17676-.33643,4.78516-1.0083,7.82422-.67188,3.04053-1.66504,6.23975-2.97607,9.6001-1.3125,3.35986-2.94434,6.71973-4.896,10.07959-1.95264,3.36035-4.24023,6.47998-6.86377,9.36035-2.625,2.87988-5.55322,5.37598-8.78418,7.48779-3.23242,2.1123-6.80078,3.55225-10.7041,4.31982-.3208.12793-.64014.19238-.95996.19238h-.95996c-1.28076,0-2.38477-.27295-3.31201-.81592-.92822-.54492-1.69629-1.2168-2.30371-2.01611-.60889-.80127-1.05615-1.71143-1.34424-2.73633-.28809-1.02295-.43213-2.01562-.43213-2.97559,0-1.9834.7998-3.56738,2.40039-4.75195,1.59863-1.18359,3.45605-2.06445,5.56787-2.64014,2.11182-.57617,4.15967-.95996,6.14404-1.15234,1.98291-.19189,3.35986-.2876,4.12793-.2876h.47998c.95996,0,1.43994.41699,1.43994,1.24805,0,.3208-.0957.60889-.28809.86377-.19189.25635-.47998.41699-.86377.47998-2.625.3208-4.9126.89697-6.86426,1.72803-1.95264.83252-3.58496,1.69629-4.896,2.5918-1.3125.89697-2.30371,1.72803-2.97559,2.49609-.67236.76807-1.0083,1.24805-1.0083,1.43994,0,.25684.31934.38428.95996.38428.51172,0,1.2002-.07959,2.06396-.24023.86426-.15869,1.93506-.49463,3.21631-1.00781,2.68799-.95996,5.18408-2.44824,7.48779-4.46387,2.3042-2.01611,4.41602-4.32031,6.33594-6.91211,1.91992-2.59229,3.63184-5.35938,5.13623-8.3042,1.50293-2.94287,2.76758-5.85596,3.79199-8.73584,1.02295-2.87988,1.80762-5.61621,2.35205-8.20801.54297-2.5918.81592-4.81494.81592-6.67188,0-1.91992-.28809-3.31201-.86426-4.17627-.57568-.86377-1.34375-1.2959-2.30371-1.2959-1.08887,0-2.35205.54443-3.79199,1.63184-1.43994,1.08936-2.92822,2.56055-4.46436,4.41602-1.53564,1.85693-3.04004,4.01709-4.51172,6.47998-1.47314,2.46484-2.80078,5.07324-3.98389,7.82422-1.18506,2.75244-2.14502,5.53662-2.88037,8.35205-.73633,2.81689-1.13672,5.53662-1.19971,8.16016.06299.12891.0957.3208.0957.57568,0,.32129-.06445.60889-.19189.86426-.12891.25635-.44824.38379-.95996.38379-.12891,0-.28809-.01514-.47998-.04785-.19189-.03174-.35254-.04834-.47998-.04834-.19189,0-.41699-.06299-.67188-.19189-.12891-.06299-.2251-.12744-.28809-.19189-.12891,0-.19189.06445-.19189.19189-.95996-.25488-1.50439-.43213-1.63232-.52783-.12891-.09619-.25635-.14404-.38379-.14404-.06445,0-.1123.0332-.14404.09619-.03271.06445-.1123.0957-.23975.0957-.83252,0-1.48828-.14404-1.96826-.43213-.47998-.2876-.84912-.63867-1.104-1.05566-.25635-.41553-.41699-.87891-.47998-1.39209-.06445-.51172-.09619-.9917-.09619-1.43994,0-2.17529.43213-4.84814,1.29639-8.01611.86377-3.16797,1.88672-6.36768,3.07178-9.6001,1.18359-3.23096,2.3999-6.28809,3.64795-9.16797s2.2876-5.15088,3.12012-6.81592c-1.85693.76807-3.74414,2.16016-5.66406,4.17578-1.91992,2.01611-3.66455,4.28857-5.23193,6.81641-1.56885,2.52881-2.84863,5.10449-3.83984,7.72803-.99316,2.625-1.48828,4.86426-1.48828,6.71973,0,1.28125.24023,2.25586.72021,2.92822.47998.67188.71973,1.16846.71973,1.48779-.12891.12891-.22461.24023-.2876.33594-.06494.09619-.16064.14404-.28809.14404-.06445,0-.12891-.01514-.19189-.04785-.06494-.03174-.12939-.04785-.19238-.04785-.12891,0-.19189.03271-.19189.0957,0,.06445-.06445.09619-.19189.09619-.44873,0-.80127-.09619-1.05615-.28809-.06445,0-.1123.0166-.14404.04785-.03271.0332-.08105.04834-.14404.04834-.95996,0-1.84033-.20703-2.63965-.62402-.80127-.41553-1.48828-.92725-2.06396-1.53613-.57617-.60742-1.0249-1.2959-1.34424-2.06396-.3208-.76807-.47998-1.50293-.47998-2.20801,0-1.53613.39893-3.2793,1.2002-5.23193.79932-1.95166,1.85547-3.93604,3.16797-5.95215,1.31104-2.01611,2.83203-3.96729,4.56006-5.85596,1.72754-1.88721,3.51855-3.5835,5.37598-5.08789,1.85547-1.50293,3.71094-2.70312,5.56787-3.6001,1.85547-.89551,3.5835-1.34424,5.18408-1.34424.57568,0,1.0874.09619,1.53564.28809.44727.19189.95996.32129,1.53613.38428.19189.06445.41553.12891.67188.19189.51172.12891.76807.3208.76807.57568,0,.51318-.3208,1.47314-.95996,2.88037-.12891.12891-.3208.47998-.57568,1.05566-.25684.57617-.54492,1.16846-.86426,1.77637-.3208.60889-.64062,1.19971-.95996,1.77588-.3208.57617-.57617.92822-.76807,1.05615-.12891.12891.06299-.22363.57617-1.05615.51123-.83105,1.0874-1.77588,1.72803-2.83203.63867-1.05615,1.23145-2.04736,1.77588-2.97607.54297-.92676.75146-1.39209.62402-1.39209,0,.06445.11084.19238.33594.38428.22363.19189.39893.54443.52783,1.05566,0,1.53613-.43164,3.18457-1.2959,4.94434-.86377,1.76074-1.64844,3.47217-2.35205,5.13574,2.94336-4.28711,6.06299-7.75928,9.36035-10.41602,3.29541-2.65479,6.47998-4.04688,9.55176-4.17578.31934,0,.57617.03271.76807.0957.76807.19238,1.58398.60938,2.44775,1.24805.86426.64062,1.66357,1.39209,2.40039,2.25635.73486.86377,1.37549,1.77588,1.91992,2.73584.54297.95996.91211,1.85693,1.104,2.68799ZM3.35986,32.35205c-1.02441-1.27979-1.53564-2.84717-1.53564-4.7041,0-2.3042.73486-4.99219,2.20801-8.06396-2.04932,3.32861-3.07227,6.0166-3.07227,8.06396,0,1.98438.79932,3.55176,2.3999,4.7041Zm13.82422-5.47217c.19189-.63916.41553-1.35889.67188-2.16016.25488-.79932.54297-1.67969.86426-2.63965.19189-.57617.44678-1.29639.76758-2.16016.31982-.86377.63916-1.69482.96045-2.49609.31934-.79932.59082-1.53613.81592-2.20801.22314-.67188.33594-1.104.33594-1.2959l-.67188,1.34424c-1.66504,4.9917-3.07227,9.05664-4.22412,12.19189-1.15234,3.13623-1.72803,5.12109-1.72803,5.95166,0,.25684.12744.38428.38379.38428.12744,0,.36768-.68701.72021-2.06396.35107-1.37549.71973-2.99121,1.104-4.84814Zm5.75977-7.00781c0-.12744-.06445-.07959-.19189.14404-.12891.22461-.28809.65674-.47998,1.2959-.70508,1.85693-1.3291,3.56836-1.87207,5.13574-.54443,1.56934-1.02441,2.94482-1.43994,4.12793-.41699,1.18506-.73633,2.12891-.95996,2.83203-.2251.70508-.33594,1.08936-.33594,1.15234,0,.25635.15918.38379.47998.38379.19189,0,.31934-.23975.38379-.71973.06299-.47998.25537-1.35938.57617-2.64014.06299-.31934.30322-.9917.72021-2.01611.41504-1.02295.86377-2.16016,1.34375-3.40771.47998-1.24805.89551-2.46338,1.24805-3.64844.35107-1.18311.52783-2.06396.52783-2.63965Zm3.93604-1.91992c.57617-1.15234,1.24805-2.2876,2.01611-3.4082.76807-1.11914,1.55078-2.19141,2.35205-3.21582.79932-1.02344,1.59912-1.96826,2.3999-2.83203.79932-.86426,1.51953-1.61572,2.16016-2.25635-.12891,0-.25684.06445-.38428.19238-.64014.38379-1.18506.76758-1.63184,1.15186-.44873.38379-.89697.86377-1.34375,1.43994-.44873.57617-.86426,1.24805-1.24805,2.01611-.25684.3208-.62402.86377-1.104,1.63184s-.95996,1.55273-1.44043,2.35205c-.47998.80078-.91162,1.521-1.2959,2.16016-.38379.64014-.60889.99268-.67188,1.05566.06299,0,.09619-.03125.09619-.0957l.0957-.19189Zm9.50391-10.75244c.12793-.12744.19238-.22314.19238-.2876.19189,0-.11279.33594-.91211,1.00781-.80127.67188-1.71289,1.50439-2.73584,2.49609-1.0249.99268-1.96826,2.04883-2.83203,3.16797-.86426,1.12061-1.29639,2.12842-1.29639,3.02393-.06445,0,.24023-.43213.91211-1.2959.67188-.86426,1.45508-1.85547,2.35205-2.97607.89551-1.11914,1.75977-2.1748,2.5918-3.16797.83105-.9917,1.40723-1.64697,1.72803-1.96826Zm6.72021,28.22412c.06299-.06299.09619-.22363.09619-.47998-.25684.57617-.68848,1.36035-1.29639,2.35205-.60889.99316-1.3125,2.08057-2.11182,3.26416-.80078,1.18506-1.64844,2.38477-2.54395,3.6001-.89697,1.21631-1.77588,2.30371-2.64014,3.26367-.86377.95996-1.66504,1.74463-2.3999,2.35205-.73633.60889-1.36035.91211-1.87207.91211,1.40723-.51172,2.73584-1.35889,3.98389-2.54395,1.24805-1.18359,2.41504-2.49609,3.50439-3.93604,1.0874-1.43994,2.06396-2.92822,2.92773-4.46387.86426-1.53613,1.64697-2.97607,2.35205-4.32031Zm-10.65576,11.80811c-.12939.12891-.19238.2251-.19238.28809.12744,0,.47998-.28809,1.05615-.86426,1.02295-.95996,2.03076-2.09521,3.02393-3.40771.9917-1.31104,1.91992-2.65527,2.78418-4.03223.86377-1.37549,1.63184-2.73584,2.30371-4.08008.67236-1.34375,1.23145-2.49561,1.68018-3.45605-.3208.32129-.49658.46533-.52783.43213-.0332-.03125-.17725.17725-.43213.62402-.12891.12891-.19189.24023-.19189.33594,0,.09619-.0332.17725-.09619.24023l-.09619.0957c-.95996,1.72803-1.84033,3.26416-2.63965,4.6084-.80127,1.34375-1.53613,2.52881-2.20801,3.55176-.67188,1.02441-1.3291,1.93652-1.96826,2.73584-.64014.80127-1.34375,1.58398-2.11182,2.35205-.25635.25684-.38379.44873-.38379.57617Z"/>
      <path class="cls-1" d="m84.76709,38.01611c.63916-.57617,1.23145-1.05615,1.77588-1.44043.54297-.38379.9751-.57568,1.2959-.57568.31982,0,.47998.16064.47998.47998,0,.12891-.2085.64062-.62354,1.53613-.41699.89697-.94531,2.01562-1.58447,3.35986-.64014,1.34375-1.3916,2.81689-2.25586,4.41602-.86377,1.60059-1.72803,3.15283-2.5918,4.65576-.86426,1.50488-1.72803,2.84863-2.59229,4.03223-.86377,1.18506-1.64844,2.06396-2.35205,2.64014-.44824.31934-.89697.54297-1.34375.67188-.44873.12744-.86426.19189-1.24805.19189-.57617,0-1.15186-.09619-1.72803-.28809l-.38379-.19189c-1.28125-.38379-2.27246-1.104-2.97607-2.16016-.70508-1.05566-1.18506-2.31885-1.43994-3.79199-1.15234,1.34424-2.5293,2.67334-4.12793,3.98438-1.60059,1.3125-3.26416,2.06396-4.99219,2.25586-1.21631,0-2.24121-.32129-3.07227-.95996-.83203-.63916-1.521-1.42383-2.06396-2.35205-.54443-.92725-.92822-1.90332-1.15186-2.92822-.2251-1.02295-.33594-1.88672-.33594-2.5918,0-2.75098.43213-5.61621,1.2959-8.5918.86426-2.97607,2.01611-5.6958,3.45605-8.16016,1.43994-2.46289,3.08691-4.49561,4.94385-6.09619,1.85547-1.59912,3.74414-2.3999,5.66406-2.3999.83105,0,1.69531.16064,2.59229.47998.89551.3208,1.71143.80127,2.44775,1.43994.73486.64062,1.37549,1.43994,1.91992,2.3999.54297.95996.91211,2.08057,1.104,3.36035.89551.3208,1.83936.91162,2.83203,1.77588.9917.86377,1.48828,1.80908,1.48828,2.83203,0,.25635-.06445.57568-.19238.95996-1.28076,2.49609-2.35156,5.15234-3.21582,7.96777-.86377,2.81738-1.2959,5.44092-1.2959,7.87207,1.02295-.89551,1.99951-2.01611,2.92773-3.35986.92725-1.34424,1.79102-2.73584,2.59229-4.17578.79932-1.44043,1.59912-2.81592,2.3999-4.12842.79932-1.31104,1.58398-2.35205,2.35205-3.11963Zm-26.87988-3.45605c.25488-.44727.62402-1.07129,1.104-1.87207.47998-.7998.9751-1.58398,1.48779-2.35205.51172-.76807.9751-1.43994,1.39209-2.01611.41553-.57568.68701-.86377.81592-.86377l-1.77588,1.77588c-.67188.67188-1.2959,1.40869-1.87207,2.20801-.57617.80078-1.07227,1.66504-1.48779,2.5918-.41699.92871-.65723,1.87207-.72021,2.83203.06299-.06299.22363-.39893.47998-1.00781.25488-.60742.44727-1.03955.57617-1.2959Zm10.08008,4.9917c.19189-.44678.36719-1.02295.52783-1.72803.15918-.70312.31934-1.45459.47998-2.25586.15918-.79932.27148-1.58398.33594-2.35205.06299-.76807.09619-1.43994.09619-2.01611,0-.89551-.19238-1.34375-.57617-1.34375-.51318,0-1.12061.46484-1.82422,1.39209-.70459.92822-1.43994,2.11182-2.20752,3.55176-.76807,1.43994-1.53613,3.04053-2.3042,4.80029-.76807,1.76074-1.45654,3.45605-2.06396,5.08789-.60889,1.63184-1.104,3.12012-1.48828,4.46387-.38379,1.34424-.57568,2.33691-.57568,2.97607,0,.44873.0957.67188.28809.67188.25488,0,.94336-.49512,2.06396-1.48779,1.11865-.9917,2.271-2.14355,3.45605-3.45605,1.18311-1.31104,2.25586-2.57568,3.21582-3.79199.95996-1.21484,1.43994-2.01611,1.43994-2.3999-.19189-.12744-.41699-.33594-.67188-.62402-.25684-.28809-.38428-.59131-.38428-.91211,0-.12744.06299-.31934.19238-.57617Zm-3.84033-10.75195c-.12891,0-.57568.35254-1.34375,1.05615-.76807.70508-1.40869,1.37695-1.91992,2.01611,0,.06445-.11279.25635-.33643.57568-.22461.32129-.44824.67236-.67188,1.05615-.2251.38379-.43213.73633-.62402,1.05615-.19189.3208-.25635.47998-.19189.47998-.19189,0,.24023-.55957,1.2959-1.68018,1.05615-1.11914,2.19141-2.51074,3.4082-4.17578l.38379-.38428Zm9.4082,13.43994c.38379-1.2793.71973-2.46289,1.00781-3.55176.28809-1.0874.43213-1.82422.43213-2.20801,0-.06299.01514-.09619.04785-.09619.03174,0,.04834-.03125.04834-.0957v-.09619c-.06494,0-.17725.08105-.33643.24023-.16016.16016-.3042.49609-.43164,1.00781-.57617,2.3042-1.08936,4.38428-1.53613,6.23975-.38379,1.60059-.73633,3.05713-1.05615,4.36816-.3208,1.3125-.44824,2.03271-.38379,2.16016.19189-.83105.52783-2.03125,1.00781-3.6001.47998-1.56738.87891-3.02393,1.2002-4.36816Z"/>
      <path class="cls-1" d="m117.40576,38.01611c.57617-.57617,1.15234-1.05615,1.72852-1.44043.5752-.38379,1.02246-.57568,1.34375-.57568.25488,0,.38379.16064.38379.47998,0,.19189-.24023.84912-.71973,1.96777-.48047,1.12061-1.13672,2.44824-1.96777,3.98438-.83301,1.53564-1.80957,3.20068-2.92871,4.9917-1.12012,1.79248-2.28906,3.4248-3.50391,4.896-1.2168,1.47314-2.49609,2.70459-3.83984,3.69629-1.34424.99268-2.625,1.48779-3.84033,1.48779-1.28076,0-2.44775-.59082-3.50391-1.77588-1.05615-1.18359-1.58398-2.89502-1.58398-5.13623,0-1.79102.27148-3.75879.81592-5.90381.54297-2.14355,1.15186-4.15967,1.82422-6.04785.67188-1.88721,1.32715-3.55225,1.96777-4.99219.63916-1.43994,1.05615-2.41504,1.24805-2.92822-.38379.32129-1.21631,1.29639-2.49609,2.92822-1.28076,1.63184-2.7207,3.63281-4.31982,6-1.60059,2.36865-3.20117,4.97705-4.7998,7.82422-1.60059,2.84814-2.91309,5.64893-3.93604,8.3999-.12939.64014-.54492.95996-1.24805.95996-.76807,0-1.58398-.51172-2.44824-1.53613-.86377-1.02295-1.2959-2.84717-1.2959-5.47217,0-2.43115.57617-5.72656,1.72803-9.8877,1.15186-4.15967,3.32715-9.375,6.52783-15.64795.25537-.57617.73535-.86426,1.43994-.86426.76807,0,1.63232.32129,2.59229.95996.95996.64062,1.75928,1.3125,2.3999,2.01611l-.47998.57617c-.19189.3208-.56104.92822-1.104,1.82373-.54443.89697-1.08887,1.87207-1.63184,2.92822-.54443,1.05566-1.04102,2.09668-1.48828,3.12012-.44824,1.02441-.67188,1.85693-.67188,2.49561,0,.25684.03125.44873.09619.57617.12744-.70361.46338-1.69482,1.00781-2.97607.54297-1.2793,1.11914-2.54395,1.72803-3.79199.60742-1.24805,1.18359-2.33545,1.72803-3.26416.54297-.92676.84766-1.3916.91211-1.3916.51123.64014.76758,1.24805.76758,1.82373,0,.32129-.16016.80127-.47998,1.43994-.3208.64062-.68848,1.3125-1.104,2.01611-.41699.70508-.84863,1.4248-1.2959,2.16016-.44824.73633-.80078,1.36035-1.05566,1.87207,1.0874-1.53613,2.19141-3.00781,3.31201-4.41602,1.11865-1.40723,2.22266-2.64014,3.31201-3.69629,1.0874-1.05566,2.15967-1.90332,3.21582-2.54395,1.05615-.63916,2.06445-.95996,3.02441-.95996,1.34375,0,2.54395.46484,3.59961,1.39209,1.05664.92822,1.58398,2.03223,1.58398,3.31201,0,.64062-.41699,1.93652-1.24805,3.8877-.83203,1.95312-1.76074,4.12842-2.78418,6.52832-1.02441,2.3999-1.96777,4.81641-2.83203,7.24805-.86377,2.43311-1.32861,4.51172-1.3916,6.23975,1.21484-.76807,2.35156-1.82373,3.4082-3.16797,1.05566-1.34375,2.06348-2.73584,3.02344-4.17578s1.87207-2.83203,2.73633-4.17627c.86426-1.34375,1.71191-2.43115,2.54395-3.26367Zm-15.74414,15.35986c0-.06299-.04785-.30322-.14404-.72021-.0957-.41553-.14404-.91162-.14404-1.48779,0-.70361.09619-1.61572.28809-2.73584.19189-1.11914.41553-2.25635.67188-3.4082.25537-1.2793.57617-2.68799.95996-4.22412-.5127,1.47314-.91162,2.72119-1.19971,3.74414-.28809,1.02441-.56104,2.04883-.81592,3.07178-.25684,1.0249-.38428,1.85742-.38428,2.49609,0,.06445.01514.27295.04785.62402.03174.35254.07959.72021.14404,1.104.06299.38428.14404.73682.24023,1.05615.09619.3208.20703.47998.33594.47998Zm2.3042-9.12012c-.06445,0-.14404.19189-.24023.57617-.0957.38379-.2085.86377-.33594,1.43994-.12891.57617-.24023,1.16846-.33594,1.77588-.09619.60889-.14404,1.13721-.14404,1.58398v.76807c0,.25635.03125.54443.09619.86426,0,.3208.03125.67188.0957,1.05566.06299,0,.12744-.33594.19189-1.00781.06299-.67188.12793-1.43994.19238-2.3042.06299-.86377.12744-1.69482.19189-2.49609.06299-.79932.15869-1.35889.28809-1.67969v-.57617Z"/>
      <path class="cls-1" d="m137.08545,23.04004c0,.83252-.41602,1.82373-1.24805,2.97607.0625.19189.0957.47998.0957.86377,0,.83252-.30469,1.66504-.91211,2.49609-.60742.83252-1.32812,1.61719-2.16016,2.35205-.83203.73633-1.69531,1.4248-2.5918,2.06396-.89648.64062-1.59961,1.18506-2.11133,1.63184-.19141.95996-.28711,1.91992-.28711,2.87988,0,1.34424.12695,2.75293.38281,4.22412.25586,1.47314.57617,2.92822.96094,4.36816.38281,1.43994.7832,2.83203,1.19922,4.17578.41602,1.34424.7832,2.59229,1.10352,3.74414.06445.25635.0957.60889.0957,1.05615,0,1.08887-.52734,1.85547-1.58398,2.30371-1.05469.44727-2.28906.67236-3.69531.67236-1.28125,0-2.51172-.14404-3.69531-.43213-1.18555-.28809-2.09766-.62402-2.73633-1.0083-.64062-.38379-1.2959-.91162-1.96777-1.58398-.67188-.67188-1.28125-1.3916-1.82422-2.15967s-.99121-1.51953-1.34375-2.25635c-.35156-.73486-.52832-1.3916-.52832-1.96777,0-.76807.14453-1.51953.43262-2.25586.28711-.73535.78418-1.16699,1.4873-1.29639l.28809.09619c.51172.38428,1.02344.86426,1.53613,1.43994.51172.57617,1.05566,1.16846,1.63184,1.77588.5752.60938,1.15137,1.18506,1.72754,1.72803.57617.54492,1.18359,1.0083,1.82422,1.39209-.89648-1.91992-1.64844-4.28711-2.25586-7.104-.60938-2.81543-.91211-5.47168-.91211-7.96777,0-1.98291.22461-3.61523.67188-4.896.51172-1.34424,1.39258-2.70312,2.64062-4.08008,1.24805-1.37549,2.57422-2.60693,3.98438-3.69629,1.40625-1.0874,2.7832-1.98291,4.12695-2.68799,1.34375-.70312,2.36719-1.05566,3.07227-1.05566.0625,0,.22266.06445.48047.19189.25391,0,.38281.09619.38281.28809,0,.12891-.0332.25635-.0957.38379l.48047-.28809.38477.09619c.12695.12891.30273.38379.52734.76807.22266.38379.36719.64062.43164.76807Zm-14.6875,8.63965c2.23828-2.81543,5.18359-5.63086,8.83203-8.44775-2.04883,1.08887-3.80859,2.35205-5.28125,3.79199s-2.65625,2.99268-3.55078,4.65576Zm1.91992-.76758c.63867-.76807,1.34375-1.53613,2.11133-2.3042s1.66406-1.53613,2.68945-2.3042c-2.24219,1.28125-3.8418,2.81738-4.80078,4.6084Zm5.08789,21.21582c-1.59961-4.15967-2.5293-8.51123-2.7832-13.05615,0,.32129-.01758.62402-.04883.91211-.0332.28809-.04883.59277-.04883.91211,0,4.16113.96094,7.90479,2.88086,11.23193Z"/>
      <path class="cls-1" d="m161.85303,38.01611c1.53613-1.27979,2.55957-1.92041,3.07227-1.92041.19238,0,.28809.12939.28809.38428,0,.57617-.35254,1.50439-1.05566,2.78418l-1.15234,2.01562c-1.02441,1.85693-2.09668,3.74414-3.21582,5.66406-1.12109,1.91992-2.35254,3.66455-3.69629,5.23193-1.34375,1.56934-2.81738,2.84863-4.41602,3.84033-1.60059.99268-3.39258,1.48779-5.37598,1.48779-1.53613,0-2.96094-.25635-4.27148-.76807-1.3125-.51123-2.44824-1.18359-3.4082-2.01611-.95996-.83057-1.71289-1.77588-2.25586-2.83203-.54492-1.05566-.81641-2.15967-.81641-3.31201,0-2.30371.51172-4.87939,1.53613-7.72754,1.02246-2.84717,2.36719-5.52002,4.03223-8.01611,1.66309-2.49609,3.53516-4.5918,5.61523-6.28809,2.0791-1.69482,4.14355-2.54395,6.19238-2.54395,1.81836,0,3.36133.60889,4.62793,1.82373,1.26562,1.2168,1.90039,2.625,1.90039,4.22412,0,1.60059-.46875,3.28076-1.40137,5.04004-.93262,1.76123-2.10938,3.37646-3.52539,4.84814-1.41699,1.47266-2.96191,2.68799-4.63574,3.64795s-3.2207,1.43994-4.63672,1.43994c-.5791,0-1.09473-.09619-1.54492-.28809-.12891.44873-.22559.89697-.28809,1.34424-.06445.44824-.0957.89697-.0957,1.34375,0,1.28125.31934,2.38525.95996,3.31201.63867.92871,1.82324,1.39209,3.55176,1.39209,1.53613,0,3.00781-.62402,4.41602-1.87207,1.40723-1.24805,2.71973-2.68799,3.93555-4.31982,1.21582-1.63232,2.30469-3.21631,3.26465-4.75195.95996-1.53613,1.75879-2.59229,2.39941-3.16797Zm-21.26855-1.44043c.25488-.44678.7041-1.10352,1.34473-1.96777.63867-.86377,1.2793-1.72803,1.91992-2.5918.63867-.86426,1.19922-1.63232,1.67969-2.3042s.71973-1.0708.71973-1.2002c-2.36816,2.1123-4.1123,4.20898-5.23145,6.28809-1.12109,2.08057-1.68066,3.53711-1.68066,4.36816.12793,0,.28809-.35107.48047-1.05615.19238-.70361.44727-1.21484.76758-1.53613Zm2.74121-.2876c.0625,0,.39844-.36768,1.00781-1.104.60742-.73535,1.24805-1.56787,1.91992-2.49609.67188-.92725,1.55078-2.19141,2.63965-3.79199-.06445,0-.38379.28809-.95996.86377-.57617.57617-1.2002,1.26465-1.87207,2.06396-.67188.80127-1.2959,1.61719-1.87207,2.44824-.5752.83252-.86328,1.50439-.86328,2.01611Zm9.9834-5.76025c-.19141-.19189-.38379-.28809-.57617-.28809-.63965,0-1.4248.56104-2.35156,1.68018-.92871,1.12061-1.82422,2.3999-2.68848,3.83984-.86328,1.43994-1.61621,2.81738-2.25586,4.12793-.64062,1.3125-.99316,2.16016-1.05566,2.54443.12793.06445.35059.0957.67188.0957,1.15234,0,2.23926-.46338,3.26367-1.39209,1.02344-.92676,1.9209-1.99951,2.68848-3.21582.76758-1.21484,1.375-2.44775,1.82422-3.6958.44629-1.24805.67188-2.22314.67188-2.92822,0-.25488-.06445-.51123-.19238-.76807Zm-5.32617,11.9043c3.04688-1.47168,5.0459-4.3833,5.99805-8.73633-1.20605,3.7124-3.20508,6.62402-5.99805,8.73633Z"/>
      <path class="cls-1" d="m180.28564,38.01611c.63965-.63916,1.23145-1.15234,1.77637-1.53613.54297-.38428.97461-.57617,1.2959-.57617.31934,0,.47949.16064.47949.47998,0,.32129-.25586.99316-.76758,2.01611-.83203,1.47314-1.76074,3.29688-2.78418,5.47217-1.02441,2.17627-2.16016,4.27197-3.4082,6.28809-1.24805,2.01562-2.57617,3.74365-3.9834,5.18359-1.4082,1.43994-2.87988,2.16016-4.41602,2.16016-2.20508,0-3.74707-.86377-4.62891-2.5918s-1.32324-3.99902-1.32324-6.81641c0-2.49561.29883-5.26318.89746-8.30371.59766-3.03906,1.33789-6.12744,2.21973-9.26416.88184-3.13477,1.87793-6.20703,2.99121-9.21582,1.11133-3.00781,2.17871-5.6958,3.20312-8.06396,1.02344-2.36719,1.93555-4.28711,2.73633-5.76025.7998-1.47119,1.35938-2.271,1.67969-2.3999.12793-.06299.35156-.09619.67285-.09619.89551,0,1.75879.60938,2.5918,1.82422.83105,1.21631,1.24805,2.5918,1.24805,4.12793,0,1.08887-.16113,1.98438-.48047,2.68799-.89648,2.1123-2.01562,4.76855-3.35938,7.96826-1.34473,3.20068-2.64062,6.57568-3.88867,10.12793-1.24805,3.55176-2.32031,7.04102-3.21582,10.46387-.89648,3.42432-1.34375,6.38379-1.34375,8.87988,0,.38428.01465.75293.04785,1.104.03125.35254.0791.68848.14355,1.0083,1.28027-.63916,2.44824-1.63232,3.50488-2.97607,1.05566-1.34424,2.03027-2.78418,2.92773-4.32031.89551-1.53564,1.75977-3.02393,2.5918-4.46387.83105-1.43994,1.69531-2.5752,2.5918-3.40771Zm-15.58594,3.45605c.70312-3.58398,1.69434-7.45508,2.97559-11.61621,1.2793-4.15967,2.81543-8.76758,4.6084-13.82422-1.98438,4.6084-3.61719,9.08887-4.89648,13.44043-1.28125,4.35254-2.17676,8.35156-2.6875,12Z"/>
      <path class="cls-1" d="m212.63623,38.01611c.63965-.57617,1.23242-1.05615,1.77637-1.44043.54297-.38379.97559-.57568,1.2959-.57568.31934,0,.48047.16064.48047.47998,0,.12891-.20898.64062-.62402,1.53613-.41699.89697-.94531,2.01562-1.58398,3.35986-.64062,1.34375-1.39258,2.81689-2.25586,4.41602-.86426,1.60059-1.72852,3.15283-2.59277,4.65576-.86328,1.50488-1.72754,2.84863-2.5918,4.03223-.86426,1.18506-1.64844,2.06396-2.35156,2.64014-.44922.31934-.89746.54297-1.34473.67188-.44824.12744-.86328.19189-1.24707.19189-.57617,0-1.15234-.09619-1.72852-.28809l-.38379-.19189c-1.28125-.38379-2.27246-1.104-2.97656-2.16016-.70508-1.05566-1.18457-2.31885-1.43945-3.79199-1.15234,1.34424-2.5293,2.67334-4.12793,3.98438-1.60059,1.3125-3.26465,2.06396-4.99219,2.25586-1.2168,0-2.24121-.32129-3.07227-.95996-.83203-.63916-1.52051-1.42383-2.06348-2.35205-.54492-.92725-.92871-1.90332-1.15234-2.92822-.22461-1.02295-.33594-1.88672-.33594-2.5918,0-2.75098.43164-5.61621,1.2959-8.5918.86426-2.97607,2.01562-5.6958,3.45605-8.16016,1.44043-2.46289,3.08691-4.49561,4.94434-6.09619,1.85547-1.59912,3.74414-2.3999,5.66406-2.3999.83105,0,1.69434.16064,2.5918.47998.89551.3208,1.71094.80127,2.44824,1.43994.73438.64062,1.375,1.43994,1.91992,2.3999.54297.95996.91211,2.08057,1.10352,3.36035.89551.3208,1.83887.91162,2.83203,1.77588.99121.86377,1.48828,1.80908,1.48828,2.83203,0,.25635-.06445.57568-.19238.95996-1.28027,2.49609-2.35156,5.15234-3.21582,7.96777-.86426,2.81738-1.2959,5.44092-1.2959,7.87207,1.02344-.89551,1.99902-2.01611,2.92773-3.35986.92676-1.34424,1.79102-2.73584,2.5918-4.17578.7998-1.44043,1.59961-2.81592,2.40039-4.12842.7998-1.31104,1.58398-2.35205,2.35156-3.11963Zm-26.87988-3.45605c.25488-.44727.62402-1.07129,1.10449-1.87207.47949-.7998.97461-1.58398,1.48828-2.35205.51074-.76807.97461-1.43994,1.3916-2.01611.41504-.57568.68652-.86377.81641-.86377-.51367.5127-1.10449,1.104-1.77637,1.77588s-1.2959,1.40869-1.87207,2.20801c-.57617.80078-1.07227,1.66504-1.48828,2.5918-.41699.92871-.65625,1.87207-.71973,2.83203.06348-.06299.22363-.39893.48047-1.00781.25488-.60742.44629-1.03955.5752-1.2959Zm10.08008,4.9917c.19238-.44678.36816-1.02295.52832-1.72803.15918-.70312.31934-1.45459.47949-2.25586.15918-.79932.27148-1.58398.33691-2.35205.0625-.76807.0957-1.43994.0957-2.01611,0-.89551-.19238-1.34375-.57617-1.34375-.5127,0-1.12012.46484-1.82422,1.39209-.70508.92822-1.43945,2.11182-2.20801,3.55176-.76758,1.43994-1.53613,3.04053-2.30371,4.80029-.76758,1.76074-1.45605,3.45605-2.06445,5.08789s-1.10352,3.12012-1.4873,4.46387c-.38477,1.34424-.57617,2.33691-.57617,2.97607,0,.44873.0957.67188.28809.67188.25488,0,.94336-.49512,2.06348-1.48779,1.11914-.9917,2.27148-2.14355,3.45605-3.45605,1.18359-1.31104,2.25586-2.57568,3.21582-3.79199.96094-1.21484,1.44043-2.01611,1.44043-2.3999-.19238-.12744-.41699-.33594-.67188-.62402-.25684-.28809-.38379-.59131-.38379-.91211,0-.12744.0625-.31934.19141-.57617Zm-3.83984-10.75195c-.12891,0-.57617.35254-1.34375,1.05615-.76855.70508-1.4082,1.37695-1.91992,2.01611,0,.06445-.1123.25635-.33594.57568-.22559.32129-.44922.67236-.67188,1.05615-.22559.38379-.43262.73633-.62402,1.05615-.19238.3208-.25684.47998-.19238.47998-.19238,0,.24023-.55957,1.2959-1.68018,1.05566-1.11914,2.19141-2.51074,3.4082-4.17578l.38379-.38428Zm9.4082,13.43994c.38379-1.2793.71973-2.46289,1.00781-3.55176.28809-1.0874.43164-1.82422.43164-2.20801,0-.06299.01562-.09619.04883-.09619.03125,0,.04785-.03125.04785-.0957v-.09619c-.06445,0-.17676.08105-.33594.24023-.16113.16016-.30469.49609-.43262,1.00781-.5752,2.3042-1.08887,4.38428-1.53613,6.23975-.38379,1.60059-.73633,3.05713-1.05566,4.36816-.32129,1.3125-.44824,2.03271-.38379,2.16016.19238-.83105.52832-2.03125,1.00781-3.6001.48047-1.56738.87891-3.02393,1.2002-4.36816Z"/>
    </g>
  </g>
</svg>