<?xml version="1.0" encoding="UTF-8"?>
<svg id="_图层_2" data-name="图层 2" xmlns="http://www.w3.org/2000/svg" viewBox="0 0 744.21666 150.09546">
  <defs>
    <style>
      .cls-1 {
        fill: #fff;
        stroke-width: 0px;
      }
    </style>
  </defs>
  <g id="_图层_1-2" data-name="图层 1">
    <g>
      <path class="cls-1" d="m60.57666,4.03125c1.27832-.125,2.23828-.19141,2.87988-.19141.63867,0,1.18164.06641,1.63281.19141.44629.12891.89355.32129,1.34375.57617.44727.25781,1.11914.57617,2.01562.95996-.12891,2.30371-.16211,4.29004-.0957,5.95215.0625,1.66504.22168,3.00977.48047,4.03223.125,1.02637.31738,2.68848.5752,4.99121.25488,2.30469.41406,4.77051.47949,7.39258.06348,2.625.09668,5.02539.09668,7.2002,0,2.17773-.06543,3.58496-.19238,4.22363.12695,7.16992.19238,12.92969.19238,17.28027,0,4.35254.06348,7.4248.19238,9.21582l.38379,6.33594c.12598,1.02637.19238,2.43359.19238,4.22461,0,1.79297.0625,4.09766.19141,6.91211,0,2.6875-.06641,5.82617-.19141,9.4082-.12891,3.58398-.25879,7.10352-.38477,10.55859-.12891,3.45703-.28809,6.59473-.48047,9.4082-.19141,2.81738-.28711,4.80078-.28711,5.95312-.12891,1.28027-.16211,2.49609-.0957,3.64746.0625,1.15137.1582,2.37012.28711,3.64746.12695,1.28125.19238,2.81738.19238,4.6084,0,1.79395.06348,3.90625.19238,6.33594,0,2.56152-.09668,4.6084-.28906,6.14355-.19141,1.53711-.99219,2.94336-2.39941,4.22461-.38379.12598-.7373.22266-1.05566.28809-.32129.06348-.67188.0957-1.05664.0957-4.99219.25488-9.24805.47949-12.76758.67285-3.52197.19141-6.78613.38281-9.79199.5752-3.00928.19238-5.92188.31738-8.73633.38379-2.81689.06348-5.95166-.0332-9.40771-.28711-.25781,0-1.50586.0293-3.74414.0957-2.24072.0625-4.7041.0957-7.39209.0957-3.20068.12598-6.78564.19141-10.75195.19141-1.02588-2.94531-1.47266-4.60742-1.34375-4.99121-1.15234-2.68848-1.60205-5.95215-1.34424-9.79199.12598-3.58203.12598-5.69434,0-6.33594-.12891-.50977-.12891-1.02344,0-1.53613,0-.12598.03027-1.11914.09619-2.97559.06299-1.85449.0957-3.93652.0957-6.24023,0-2.30469.03027-4.54297.09619-6.7207.06299-2.1748.15918-3.71094.28809-4.60742.12598-6.52832.25488-12.0625.38379-16.6084.12598-4.54199.25537-8.09375.38428-10.65527.12598-2.55957.25488-4.38281.38379-5.47266.12598-1.08594.31787-2.01562.57617-2.7832,0-.12695.06299-1.375.19189-3.74414.12598-2.36719.25488-4.99219.38379-7.87305.12646-2.87891.28809-5.59766.48047-8.16016.19189-2.55859.35059-4.09375.47998-4.60742.25488-1.66211.50977-3.61523.76758-5.85547.25537-2.23828.44727-4.83008.57617-7.77637.38428-5.76074.76807-10.17676,1.15186-13.24805.38428-2.68848.79834-4.7041,1.24805-6.04785.44727-1.34375,1.31104-2.5918,2.59229-3.74414,3.83984-.50977,7.74268-1.05664,11.71191-1.63184,3.96582-.57617,7.2959-1.18262,9.98389-1.82422,2.55908-.38379,5.02197-.63965,7.39209-.76855,2.36719-.125,4.6709-.2207,6.91211-.28711,2.23779-.06348,4.479-.15918,6.71973-.28809,2.23828-.12598,4.6377-.38379,7.2002-.76855l.19141-.19141.19238.19141ZM9.88867,130.55957l.19189.95996h1.34424l.38379-.95996-1.34375-.19238-.19189-.38379-.38428.57617Zm2.88037-65.47168l.76758.19141.38428-.19141-.38428-.19238-.76758.19238Zm.38379-7.87207l.19189.19238.19189-.19238-.19189-.19238-.19189.19238Zm.38379,82.55957l.57617.19238.57617-.57617-.19238-.19238-.95996.57617Zm1.72803-54.33594l.19238.95996.19189-.95996-.19189-.19141-.19238.19141Zm.38428,1.53613c-.38428.76855-.38428,1.28125,0,1.53613l.76807-.57617-.38428-.76758-.38379-.19238Zm1.91992-71.61621l.57617.19238.95996-.76855.19189-1.15137-.19189-.19238-1.53613,1.91992Zm1.34375,27.26367l.19238.96094.19189-.96094-.19189-.38281-.19238.38281Zm.19238,32.44922c-.2583,1.02539-.06641,1.79297.57568,2.30273.25537-.63867.51025-1.46875.76807-2.49609l-.38379-.19141-.95996.38477Zm.95996,44.15918c-1.02637,1.79395-.95996,3.1377.19189,4.03223.50977-1.02344.70215-1.63184.57617-1.82422-.12939-.19141-.32129-.73438-.57617-1.63184l-.19189-.57617Zm7.104,19.58398c-1.79395-.12598-3.45605,0-4.99219.38379l.19189.19238,4.80029-.19238-1.15234-.19141,1.15234-.19238Zm-2.1123-8.83203l.38428.38379.19189-.38379-.19189-.19238-.38428.19238Zm.38428-4.03223l.19189,1.34375.57617-.38281-.38428-.96094-.19189-.19141-.19189.19141Zm19.39209-81.21484c-.38428,0-.57617-.12695-.57617-.38477-.12891-.12598-.38379-.12598-.76807,0l-2.3042.19141c-1.40967.12988-2.9458.22559-4.60791.28906-1.66504.06543-3.26367.16211-4.7998.28711h-2.11182l-.19238,1.91992v4.41602c0,1.53711-.06592,3.00977-.19189,4.41602v4.22461c0,.89648.03027,1.82422.09619,2.7832.06299.96094.15869,1.85742.28809,2.68848.12598.83496.25488,1.37793.38379,1.63184.50977,0,1.43994-.0293,2.78418-.0957,1.34375-.0625,2.78369-.1582,4.31982-.28809,1.53613-.12598,2.94287-.28809,4.22412-.47949,1.27783-.19238,2.23779-.41406,2.87988-.67188.25488-1.40723.25488-2.68848,0-3.83984-.25781-1.15234-.25781-2.43066,0-3.84082.12598-.38379.22217-1.11816.28809-2.20801.06299-1.08594.12598-2.30371.19189-3.64844.06299-1.34375.09619-2.7168.09619-4.12695v-3.26367Zm-.19238,44.54297c-.6416,0-1.63184.0332-2.97559.0957-1.34424.06641-2.78418.12891-4.32031.19238-1.53613.06641-2.97607.12988-4.31982.19238-1.34424.06641-2.27393.0957-2.78418.0957v4.99219c0,1.91992.03027,3.90625.09619,5.95215.06299,2.04883.15869,4.03223.28809,5.95215.12598,1.91992.31787,3.52148.57568,4.7998h2.68799c1.27832,0,2.62207-.03027,4.03223-.09668,1.40674-.0625,2.71777-.1582,3.93604-.28711,1.21484-.12695,2.01611-.25586,2.3999-.38477l.57617-21.31152-.19238-.19238Zm-13.24805-56.06348l.19238.19238.38379-.38477-.19189-.38379-.38428.57617Zm0,.95996l.38428.57617.19189-.76855-.19189-.19238-.38428.38477Zm.19238,5.75977l.57568.19141.38428-.19141-.38428-.19141-.57568.19141Zm17.08789,96.95996c.50977.5127,1.15186.5127,1.91992,0l-.19189-.38379-.76807-.38477-.95996.76855Zm10.94385,6.14355c-1.28125,0-2.11133.06641-2.49609.19238l.38477.19238h2.11133l.19141-.19238-.19141-.19238Zm-2.11133-5.95117l.19141.76758.38379-.19141.19238-.76855-.19238-.19238-.5752.38477Zm1.91992-33.4082l.57617.57617.38281-.19238-.19141-.76855-.57617-.19141-.19141.57617Zm.95898,18.81641c-.12891,1.53516.06348,2.94531.57617,4.22363.76855-1.53613.89453-2.94238.38477-4.22363l-.38477-.19238-.57617.19238Zm.96094-62.0166l.38379.19238.19238-.19238-.19238-.38379-.38379.38379Zm.38379,14.59277l.38379,2.11133,1.15234-.19141-.38477-1.91992-.19141-.19336-.95996.19336ZM157.729,1.15137v1.53613c0,1.02637.03027,2.17773.0957,3.45605.06348,1.28125.09668,2.43262.09668,3.45605v6.7207c.38281,0,1.21484.03223,2.49609.0957,1.27734.06543,2.17383.0332,2.6875-.0957.38379-.12695.95996-.22266,1.72852-.28906.76758-.0625,1.66113.35449,2.6875,1.24805l-.38477.76855c.25586,2.94629.44727,6.08105.57617,9.40723.12695,3.33008.19238,6.52832.19238,9.60059l-.19238,1.91992c-.12891,1.28125-.22461,2.68848-.28711,4.22363-.06641,1.53711-.16211,3.00977-.28906,4.41602v1.91992c-.76758.51367-2.20703.80078-4.31934.86426-2.1123.06641-3.74414.09668-4.89551.09668.125,3.07129,0,5.79297-.38477,8.16016-.38379,2.36914-.44922,4.25586-.19141,5.66406.125.89648.22168,2.75391.28711,5.56738.06348,2.81738.06348,6.08105,0,9.79199-.06543,3.71387-.12891,7.58398-.19141,11.61523-.06641,4.0332-.0957,7.65039-.0957,10.84863,0,3.96973-.0332,7.3291-.0957,10.08008-.06641,2.75391-.16211,4.83301-.28906,6.23926-.25781,2.94727-.25781,6.91211,0,11.9043.12695,4.35352.22266,8.06445.28906,11.13672.0625,3.07227-.35449,5.11719-1.24805,6.14355-1.41016.38379-2.625.67285-3.64844.86426-1.02637.19141-1.98633.35156-2.88086.48047-1.66406.25391-2.36914.125-2.11133-.38477-1.79395-.12891-3.48926-.12891-5.08789,0-1.60156.12598-3.04199.25586-4.32031.38477-.6416,0-1.63184.0293-2.97656.0957-1.34375.0625-2.84961.125-4.51172.19141-1.66406.06348-3.42578.12695-5.2793.19238-1.85742.06348-3.61816.0957-5.28027.0957-2.56152,0-5.37598.06348-8.44824.19238-3.07227.12598-6.08008.22168-9.02344.28809-2.94629.06348-5.63477.06348-8.06445,0-2.43262-.06641-4.22363-.35449-5.37598-.86426-.76855-1.79395-1.08887-2.75391-.95996-2.87988-.12891-.38379-.12891-1.41016,0-3.07227.12598-1.66113.31836-3.48535.57617-5.47168.25488-1.98242.48047-3.87012.67188-5.66406.19141-1.79102.35156-3.07227.48047-3.83984.25391-2.17578.41406-4.34961.47949-6.52832.06348-2.1748.28809-4.47949.67188-6.91211,1.40723-.12598,3.32715-.22168,5.76074-.28809,2.42969-.0625,5.02148-.19141,7.77539-.38379,2.75098-.19238,5.47266-.38379,8.16016-.57617s4.99219-.41309,6.91211-.67188c.12598-.50977.25488-1.88672.38379-4.12793.12598-2.23828.22168-4.76758.28809-7.58398.0625-2.81445.12598-5.66406.19141-8.54395.06348-2.87988.09668-5.21387.09668-7.00781.12598-6.91211.15918-13.18262.0957-18.81641-.06543-5.63086-.16113-9.91797-.28809-12.86426-.76758.12891-1.41016.19238-1.91992.19238-.5127.12891-1.02539.19238-1.53516.19238h-.76855c-.76855.12891-1.91992.19141-3.45605.19141h-4.60742c-1.53711,0-2.97656.0332-4.32031.0957-1.34375.06641-2.33789.09668-2.97656.09668-.25781.25781-.83398.38379-1.72852.38379h-5.75977c-1.41016,0-2.87891.0332-4.41602.0957-1.53516.06641-2.6875.0957-3.45508.0957-2.5625.25879-4.6416.48047-6.24023.67285-1.60156.19238-2.91309-.28809-3.93555-1.44043-.64258-1.27734-.96094-2.55859-.96094-3.83984v-1.15234c0-.63867.03027-1.27734.0957-1.91992.06348-.63867.09668-1.15234.09668-1.53516l.19238-.76855.57617-8.63965c0-.12695.0293-.99023.0957-2.5918.0625-1.59961.0957-3.29492.0957-5.08789v-4.99219l.19141-2.30469c.89453-.63867,1.72852-1.02246,2.49609-1.15234.76855-.125,1.4707-.25391,2.1123-.38281.63965,0,1.85449-.03125,3.64746-.09668,1.79102-.06348,3.13574-.15918,4.0332-.28809.63867-.12598,1.91992-.19141,3.83984-.19141s3.77344-.06348,5.56836-.19238c1.40625,0,2.81348-.06348,4.22266-.19238,1.4082-.125,2.68848-.19141,3.84082-.19141l8.44824-.38477c4.47852-.38281,6.8457-.70117,7.10352-.95898-.25781-.63965-.35352-1.4707-.28809-2.49609.06348-1.02344.15918-1.91992.28809-2.68848.25488-1.15137.28809-2.33398.0957-3.55176-.19141-1.21484-.16211-2.52637.0957-3.93555.76855-1.27832,1.98438-1.91992,3.64844-1.91992l.38477-.38477c1.53516-.38379,2.55859-.57617,3.07129-.57617.51074,0,.92676.0957,1.24805.28809.31738.19238.79785.35449,1.44043.47949.63867.12988,1.85352.06641,3.64746-.19141l2.68848-.38379c1.91992-.25488,3.96582-.54297,6.14355-.86426,2.1748-.31836,4.1582-.60547,5.95215-.86328l2.87988-.38477.19238-.19141,5.37598,1.15137Zm-55.68066,64.89648c.89453,0,2.1123.32129,3.64844.95996l1.53613,2.49609c.76855,1.02539,1.31152,2.24023,1.63184,3.64844.31836,1.40918.57617,2.87891.76758,4.41504.19238,1.53613.35156,3.04199.48047,4.5127.12598,1.47266.38379,2.6582.76758,3.55176.25586.76758.50977,1.88965.76855,3.36035.25488,1.47266.44629,2.97559.5752,4.51172.12695,1.53516.19336,2.91211.19336,4.12793,0,1.21777-.06641,1.95215-.19336,2.20801-1.66406.76758-2.7832,1.21777-3.35938,1.34375-.57617.12891-1.05664.16211-1.43945.0957-.38477-.0625-.86426-.0957-1.44043-.0957s-1.69824.32031-3.36035.95996c-2.94531,1.15137-6.30566,2.1123-10.08008,2.87988-3.77734.76758-7.26562.83398-10.46387.19238l-.76758-1.34473c-.12988-.38281-.06641-.63867.19238-.76758-.12891-.38379-.19238-.73438-.19238-1.05566,0-.31836-.06641-.60645-.19238-.86426-.12891-.25488-.22461-.15918-.28711.28809-.06641.4502-.16211.0957-.28906-1.05566-.12891-.50977-.28711-1.75781-.47949-3.74414-.19238-1.9834-.35449-4.0625-.47949-6.24023-.12988-2.1748-.25879-4.22461-.38477-6.14453-.12891-1.91992-.19141-3.07129-.19141-3.45508,0-.89453.0625-1.4707.19141-1.72852.12598-.25488.19141-.44727.19141-.57617,0-.125-.03223-.25488-.0957-.38379-.06543-.12598-.16211-.57617-.28711-1.34375-.64258-1.79102-.89746-3.13574-.76855-4.03223.12598-.89453.57617-1.66211,1.34473-2.30469,2.55859-.89258,4.79883-1.56543,6.71875-2.01562,1.91992-.44727,3.9668-.54297,6.14453-.28711,0,.12891.48047.0957,1.43945-.09668.96094-.19238,2.0166-.41406,3.16797-.67188,1.4082-.25488,2.94336-.57617,4.60938-.95996l.38281-.38379Zm-14.5918-17.66406c-1.53516.12891-3.00879.35449-4.41602.67188-1.41016.32129-2.81641.7373-4.22363,1.24805v.19238c3.45605,0,6.59082-.44727,9.40723-1.34375l-.76758-.76855Zm-2.87988,26.87988c-.25781.25781-.32129.38379-.19238.38379.25586.25879.19238.38379-.19141.38379-.25781.12891-.38477.41797-.38477.86426,0,.4502.06348.86426.19336,1.24805.125-.89355.50977-1.85449,1.15137-2.87988l-.19238-.19141-.38379.19141Zm.57617,12.48047l.19238.57617.38379-.76855h-.19238l-.38379.19238Zm2.87988,6.91211c-.64258.76758-.83398,1.47266-.57617,2.11133l.57617-1.15234c.12598-.38379.22266-.50977.28809-.38379.06348.12988.03027,0-.09668-.38379l-.19141-.19141Zm2.49609-14.78516c-.38379,1.15234-.38379,1.85742,0,2.1123l.76758-.95996-.57617-.76758-.19141-.38477Zm-.19141,20.54492c.50977.5127,1.21484.44922,2.11133-.19238l-.76758-.19238-.38477-.19141-.95898.57617Zm8.25586-58.36816l.95898-3.84082c-.38281.38477-.92969.64258-1.63086.76855-.70508.12891-1.24805.06543-1.63281-.19238l-.19141-.19141,2.11133,3.07227.38477.38379Zm-1.34375,56.63965l.38281.38477.19238-.38477-.19238-.38379-.38281.38379Zm.38281-.76758l.19238.19141.38379-.19141-.38379-.19238-.19238.19238Zm0,.19141l.19238.38477v-.19238l-.19238-.38379v.19141Zm.76855-.57617l.19238.19238.19141-.19238-.19141-.19141-.19238.19141Zm.19238-7.67969c.63867.64258,1.21484.76758,1.72754.38477v-1.72852l-.19238-.38477-1.53516,1.72852Zm.38281,38.01562c.12695-1.15137.25586-2.75.38477-4.79883l-.38477.38281c-.25781,5.25-.25781,7.3623,0,6.33594v-1.91992Zm-.19141-32.44727l.19141.76758.57617-.38379.19238-.76855-.19238-.19141-.76758.57617Zm0,1.53516l.19141.38477.19336-.38477-.19336-.19141-.19141.19141Zm.19141,48.38477l.19336.57617.76758-.19238-.38477-.76855-.19141-.5752-.38477.95996Zm.19336-48.76758l.19141.19141.19141-.19141-.19141-.19238-.19141.19238Zm.76758,38.5918c-.38477,1.66406-.25781,3.20117.38379,4.60742l.19238-.38379-.38477-4.03223-.19141-.19141Zm.19141-48.96094l.19238.38477.19238-.57617h-.19238l-.19238.19141Zm2.1123-41.08789c-.6416,1.41016-.5752,2.88086.19238,4.41602l1.53516,1.34375.38477-.19141-1.34375-1.15234c-.89746-1.15137-1.08984-2.55859-.57617-4.22363l-.19238-.19238Zm1.15137,71.23242c0,.76758.06348,1.47266.19336,2.11133.25391-1.02246.38281-1.98242.38281-2.87891l-.57617-.19238v.95996Zm1.72852-64.89648l.38477-.38281-.38477-.19336-.19141.19336.19141.38281Zm5.95215-5.95117c-2.17773,0-4.09863.38379-5.75977,1.15234l.19238.19141c1.79102.25781,3.58203,0,5.375-.76758l.38477-.38477-.19238-.19141Zm-5.37598,5.95117l.57617.19238.19141-.19238-.19141-.38281-.57617.38281Zm.19141-10.36719l.38477.19141v-.57617l-.38477.38477Zm.38477-4.99219l1.72852.38379c.125-.12598.0625-.76855-.19336-1.91992l-.19141-.19238-1.34375,1.72852Zm2.49609-5.95215c-.38477.6416-.38477,1.28125,0,1.91992l1.34375-1.34375-1.15234-.38379-.19141-.19238Zm10.75195,14.20801l.76758.57617.38477-.57617-.38477-.19141-.76758.19141Zm.38379-19.96777l.76855.76855v-.96094l-.76855.19238Zm1.34473,121.53613c.50977.63867,1.08594.63867,1.72656,0l-1.15137-.38477-.5752.38477Zm3.83984-42.04883l.19141-7.29492v-1.34473l-.19141,8.63965Zm.19141-2.49609l1.15234,1.53711.19141-1.53711-1.15234-.5752-.19141-.19238v.76758Zm.38477,44.54492l.38281.19141.57617-.19141-.19141-.38477-.76758.38477Zm2.6875-107.52051l-1.34375.38379-.57617,2.88086c.89355,0,1.85352-.19238,2.87988-.57617l.19238-.38477-1.15234-2.30371Zm.76758,24.95996c-.25781.89746-.44922,1.69824-.57617,2.40039-.12891.70508-.25781,1.37695-.38379,2.01562l.76855.57617c.125-.76758.22168-1.53613.28711-2.30371.06348-.76855.09668-1.59863.09668-2.49609l-.19238-.19238Zm0-3.83984l.19238,3.83984.19238-3.83984-.19238-.19141-.19238.19141Zm4.22461,69.3125l.19141.76758.95996-.38379-.76758-.38379-.19238-.19238-.19141.19238Zm.19141-2.49609l.19238.38379.76758-.19238-.19238-.38379-.76758.19238Zm.95996-34.94434l.19238.57617.19141-.57617-.19141-.19238-.19238.19238Zm0,.95996l.19238-.19141-.19238-.19238v.38379Zm.38379-16.12793l-.19141.76855.95996.38281.19238-.19141.19141-.76758-.19141-.19238h-.96094Zm.19238,3.64746c-.12891.51367-.16211,1.31445-.09668,2.40039.06445,1.08984.16016,2.5293.28906,4.32031l.38379-6.7207v-.19141l-.57617.19141Zm.57617-31.29492l.5752,1.72754.76855.19238.38379-.38477-1.15234-1.53516-.19141-.19238-.38379.19238Zm2.30371,51.45508c.50977.38477.95996.38477,1.34375,0l-.38379-1.15234v-.19141l-.95996,1.34375Zm6.91211-25.72754c-.12891,1.40918.12598,3.1377.76758,5.18457.38477-.63965.50977-1.44043.38477-2.40039-.12891-.96094-.32129-1.88672-.57617-2.78418l-.19141-.57617-.38477.57617Zm4.80078,38.0166c-.89844-.12695-1.72852.06543-2.49609.5752l.19141.57617,2.11133-.57617.38477-.38379-.19141-.19141Zm-1.15234-76.60938l-.57617.76855c.25488.6416.70117.6416,1.34375,0l-.19141-.76855-.19238-.19141-.38379.19141Zm1.91992-26.49512c-.89746,0-1.60156.06543-2.1123.19238l.19238.5752,1.91992.19238.19141-.76758-.19141-.19238Zm-1.53613,18.04785l.38379.57617.19141-.57617-.19141-.19141-.38379.19141Zm3.83984-17.08789l.19238-.76758-.19238-.19238v.95996Z"/>
      <path class="cls-1" d="m220.89697,41.66406c1.40723,0,2.42969.06543,3.07129.19141.63965.12891,1.66211.51367,3.07227,1.15234.89453,4.35352,1.27832,7.16992,1.15234,8.44727v9.2168c-.12891,1.28125-.19141,2.14453-.19141,2.5918,0,.44922.0625,1.12207.19141,2.01562,0,1.28125.0293,3.07227.0957,5.37695.0625,2.30273.0957,4.79883.0957,7.4873v8.06348c0,2.68848-.0332,5.12109-.0957,7.29688-.06641,2.17773-.0957,3.90625-.0957,5.18359v1.34375c-.25781,6.40234-.32129,9.60059-.19141,9.60059.125.12891.19141.5127.19141,1.15137v9.98438c0,1.66504.0293,2.78418.0957,3.35938.0625.57617.0957,1.12305.0957,1.63281v3.83984c0,6.65723.06348,10.30469.19238,10.94336.12598.64258.19238,1.21875.19238,1.72852v.95996c-.12891.76855-.22461,1.37402-.28809,1.82422-.06543.44629-.19238.83105-.38379,1.15137-.19238.31836-.4502.63965-.76855.96094-.32129.31836-.7373.79785-1.24805,1.43945l-32.63965-.19141c-.64258-2.17773-.89648-3.77734-.76758-4.80078.25391-1.53516.19141-2.11133-.19238-1.72754-.12988-1.15137-.16211-2.49609-.09668-4.03223.06348-1.53516.16016-3.19727.28906-4.99219.25391-3.71094.25391-8.18945,0-13.43945-.25781-5.11816-.25781-9.3418,0-12.67188,0-1.02344.0957-2.68848.28711-4.99219.19238-2.30469.35156-4.89648.48047-7.77637.12598-2.87988.28809-5.85645.48047-8.92773.19141-3.07227.35059-5.98145.47949-8.73535.12598-2.75195.22168-5.15234.28809-7.20117.0625-2.04492.0957-3.45508.0957-4.22363l-.38379-3.26367c-.12891-1.15234-.12891-3.32715,0-6.52832,0-1.66211-.0332-2.6875-.09668-3.07227-.06543-.38379-.0957-.73438-.0957-1.05566,0-.31738.0957-.89355.28809-1.72754.19238-.83203.54395-2.52637,1.05566-5.08789,1.27832-.51074,2.11328-.89453,2.49609-1.15234.76855-.25586,1.40723-.38477,1.91992-.38477h2.49609c1.79102-.125,3.87109-.2207,6.24023-.28711,2.36719-.06348,4.7041-.12695,7.00781-.19238,2.30469-.06348,3.9668-.0957,4.99219-.0957l.19238-.38379Zm-3.45605-33.98438c1.40625,0,2.30371-.0625,2.6875-.19141.63867,0,1.15234.06543,1.53711.19141.50977.12891,1.46875.19141,2.87891.19141,1.40723,0,2.42969.06641,3.07227.19238.89453,1.15234,1.40723,1.85645,1.53613,2.1123l.19238.19141c-.12891,0-.22559.16211-.28906.48047-.06543.32031.09668,1.18555.48047,2.5918-.25781.76758-.12891,2.30469.38477,4.6084,0,.38379.0625,1.05566.19141,2.01562.12598.95996.25488,2.0166.38379,3.16797.12598,1.15234.22168,2.30371.28809,3.45605.0625,1.15234.0957,2.04883.0957,2.6875l-1.72754,1.72852c-3.20117.89648-5.28027,1.43945-6.24023,1.63281-.95996.19141-1.66504.28711-2.1123.28711-.44922,0-1.12109.06641-2.01562.19238-.89648.12891-2.94531.4502-6.14453.95996-1.53516.38379-3.16797.6416-4.89551.76758-1.72754.12891-3.36035.16211-4.89551.0957-1.53613-.0625-2.84961-.22168-3.93652-.47949-1.08887-.25488-1.82324-.57617-2.20801-.95996-.25781-.76758-.5459-1.91992-.86328-3.45605-.32129-1.53613-.60938-3.10254-.86523-4.7041-.25781-1.59863-.51172-3.03906-.76758-4.32031-.25781-1.27734-.44922-2.04492-.57617-2.30371-.76758-1.79102-.70508-2.94238.19238-3.45605,2.55957-1.27734,4.54199-2.11133,5.95215-2.49609,1.40625-.38379,2.94336-.76758,4.60742-1.15234l1.91992-.5752c1.2793-.38379,2.75195-.79785,4.41602-1.24805,1.66211-.44727,3.13574-.86426,4.41602-1.24805l1.91992-.76855.38477-.19141Zm-18.62402,38.5918l.38379.57617.95996-.95996-1.15137-.19238-.19238.57617Zm1.15137,76.22461c-.5127.76758-.5127,1.41016,0,1.91992l.96094-.76855-.76855-.95996-.19238-.19141Zm.76855,20.54297l.38379.38477.38477-.76758-.57617-.38477-.19238.76758Zm4.03223-120.76758l.38379.38477.19238-.57617-.19238-.19238-.38379.38379Zm1.53516,27.07227l.57617,1.34375.96094-.76758-.38477-.57617-.19141-.19141-.96094.19141Zm.19238,2.6875l.19238.19238.19141-.19238-.19141-.19141-.19238.19141Zm.19238-.95898l.19141.19141.19238-.19141-.19238-.19336-.19141.19336Zm3.45605-31.29688l.19238.57617.76758-.95996-.19238-.38379-.76758.76758Zm.76758-.95996l.19238.38379.19141-.38379-.19141-.19238-.19238.19238Zm1.9209,2.68848l.19141.38379.57617-.19238-.19238-.57617-.19238-.19141-.38281.57617Zm2.30273-5.37695l.19238.76855.38379-.76855-.38379-.19141-.19238.19141Zm.76855,82.75195l.19238.38477.19141-.38477-.19141-.19141-.19238.19141Zm.95996,9.02539c-.64258,1.02539-.76758,1.79297-.38379,2.30273l.5752-.19141v-1.91992l-.19141-.19141Zm-.57617-54.5293l.19238.96094.38379-.96094-.38379-.19141-.19238.19141Zm0,91.77734l.19238.19141.38379-.19141-.38379-.19336-.19238.19336Zm.76758-61.63281c-.76758.89648-.83398,1.72852-.19141,2.49609l.38477-.19141v-2.11328l-.19336-.19141Zm1.91992,53.75977c-.51172.38477-.76758.76855-.76758,1.15234l.76758.19141.19336-1.15137-.19336-.19238Zm1.15234,6.91211l.38477.57617,1.15234-.19141.19141-.76855-.19141-.19238-1.53711.57617Zm1.53711-120.57617l.19141.38477.76758-.96094-.19141-.38281-.76758.95898Zm52.99121,19.2002c-.12891,0-.28809.0332-.47949.09668-.19238.06543-.41797.0957-.67188.0957.89355.25781,1.50195.19141,1.82324-.19238.31836-.38379.73535-.50977,1.24805-.38379h1.34473v-.19141h-.38477l.19238-.38477c.50977-.12598.76758-.25488.76758-.38379h.95996l2.49609.19238c1.79102,0,3.80664.0332,6.04883.0957,2.2373.06641,4.31934.12891,6.23926.19141,1.91992.06641,3.00586.0332,3.26465-.0957,0,.12891.19141.19238.5752.19238h2.49609l.57617-.19238.19238-.38379c.89355,0,1.94922.03223,3.16797.0957,1.21484.06641,2.46289.22559,3.74414.48047,1.27734.25781,2.42969.6416,3.45508,1.15137,1.02344.51367,1.72852,1.28125,2.1123,2.30469v73.53516c-.5127,1.66602-.76855,3.23438-.76855,4.70508,0,1.47266-.25781,2.84961-.76758,4.12695-4.22363.76855-7.77539,1.41016-10.65625,1.91992-2.87891.51367-5.2168.93066-7.00781,1.24805-1.79395.32227-3.1377.51367-4.03125.57617-.89746.06641-1.60254.0332-2.1123-.0957-1.02637-.25488-1.98633-.44727-2.87988-.57617-.89746-.12598-1.79492-.0625-2.68848.19238-1.53613.25781-3.16797.4502-4.89551.5752-1.72852.12988-3.36035.25879-4.89648.38477-1.53516.12891-2.87988.22461-4.03125.28809-1.15234.06543-1.98633.0957-2.49609.0957-1.79492-.38379-3.64844-.5752-5.56836-.5752-.51367,0-.86426.06543-1.05664.19141-.19141.12891-.41602.25781-.67188.38379-.25781.12891-.6084.19238-1.05566.19238-.4502,0-1.12207-.06348-2.0166-.19238-2.04883-.25488-4.25586-.38379-6.62305-.38379-2.37012,0-3.81055.12891-4.32031.38379-.38379.38379-.64258.38379-.76758,0,0-.25488-.06641-.38379-.19238-.38379-.12891,0-.25781.12891-.38379.38379-.12891.12891-.4502.19238-.96094.19238-.51172,0-1.08789-.03027-1.72656-.0957-.64258-.06348-1.24805-.12695-1.82422-.19238-.57617-.06348-.99414-.15918-1.24805-.28809-.89746-2.17578-1.63281-4.44629-2.20898-6.81641-.57617-2.36719-.6084-4.12695-.0957-5.2793v-8.44824c0-2.0459.03027-3.71094.0957-4.99219.06348-1.27832.12695-2.39941.19238-3.36035.06348-.95898.12598-2.23828.19238-3.83984.0625-1.59863.1582-3.74414.28711-6.43164.12695-2.6875.31836-6.39844.57617-11.13672,0-2.81348.12695-5.95117.38477-9.40723.25488-3.45605.54297-6.84668.86328-10.17676.31836-3.32617.63965-6.49414.96094-9.50391.31738-3.00586.67188-5.40527,1.05566-7.19922.63867-.50977,2.46289-.92773,5.47168-1.24805,3.00586-.31836,6.30273-.57617,9.88867-.76758,3.58203-.19336,7.07031-.31836,10.46289-.38477,3.39062-.0625,5.79102-.0957,7.20117-.0957l-.38477-.19238c-.38379-.12598-.44922-.19238-.19141-.19238h1.72754c.25488,0,.25488.06641,0,.19238ZM324.96045.57617h2.49609c1.53613,0,3.13477.03223,4.80078.0957,1.66211.06641,3.13477.0957,4.41602.0957h2.11133c1.27832-.38379,2.1123-.41406,2.49609-.0957.38477.32031,1.02344.80078,1.91992,1.43945,1.27832,2.5625,1.98242,4.7373,2.1123,6.52832.12598,1.79395.44629,3.1377.95996,4.03223.25488.5127.63867,2.40039,1.15234,5.66406.50977,3.26367,1.08594,6.81641,1.72754,10.65625.63965,4.48145,1.34375,9.47363,2.1123,14.97559.125,1.28027.35059,3.07129.67188,5.37598.31836,2.30371.67188,4.83301,1.05566,7.58398.38379,2.75391.73535,5.63379,1.05566,8.63965.31836,3.00879.60645,5.85645.86426,8.54395,0,.89746.03027,2.5625.09668,4.99219.0625,2.43359.0957,5.18359.0957,8.25586v16.89648c-.12891,2.17773-.19238,5.3125-.19238,9.4082v14.97559c0,5.37598.09668,9.69629.28809,12.95996s-.22461,5.40625-1.24805,6.43164c-.12891.25586-1.12109.41406-2.97656.48047-1.85645.0625-4.00195.0957-6.43164.0957h-17.85547c-1.02637,0-1.98633-.0332-2.88086-.0957-.89648-.06641-1.47266-.0957-1.72656-.0957-.12988-4.09863-.19336-7.74316-.19336-10.94434v-9.60059c0-3.58203-.06543-7.16602-.19141-10.75195v-23.61523c.12598-1.40723.0625-2.78418-.19141-4.12891-.25879-1.34375-.25879-2.07812,0-2.20703-.12891-.89453-.25879-3.03906-.38477-6.43164-.12891-3.39062-.25781-7.03906-.38379-10.94531-.12891-3.90234-.32129-7.61328-.57617-11.13477-.25781-3.51953-.5127-5.85645-.76855-7.00879-.25781-1.02246-.47949-2.75098-.67188-5.18457-.19141-2.42969-.41602-4.99121-.67188-7.67969-.25781-2.6875-.5127-5.15039-.76758-7.3916-.25781-2.2373-.57617-3.67871-.95996-4.31934-5.25.25781-11.29785.41602-18.14355.47949-6.84961.06543-14.17773.16113-21.98438.28809-6.65723.12891-12,.16211-16.03223.0957-4.03223-.0625-7.64941.0332-10.84766.28809-.76855,0-1.79395.0332-3.07227.09668-1.28027.06543-2.52832.0957-3.74414.0957-1.21777,0-2.24121-.03027-3.07129-.0957-.83398-.06348-1.18555-.22266-1.05664-.48047-.25781-.25586-.5459-1.31055-.86328-3.16797-.32227-1.85449-.57617-3.87012-.76855-6.04883-.19238-2.17383-.35449-4.19043-.47949-6.04688-.12891-1.85449-.12891-2.84766,0-2.97656.25391-.12598,1.11914-.35156,2.5918-.67188,1.46973-.31836,3.03906-.63867,4.70312-.95996,1.66211-.31836,3.16797-.60645,4.5127-.86426,1.34375-.25488,2.01562-.44727,2.01562-.57617,3.07227-.38379,5.66406-.70117,7.77637-.95996,2.11133-.25488,4.19141-.47949,6.24023-.67188,2.04492-.19238,4.28711-.38379,6.71973-.5752,2.42969-.19336,5.50195-.41406,9.21582-.67285,4.34961-.25488,8.44824-.47949,12.28809-.67188s6.84668-.41406,9.02441-.67188c2.42969-.12598,3.83984-.19238,4.22363-.19238s.19238.0332-.57617.0957c-.76855.06641-1.85645.19238-3.26367.38477-1.41016.19141-2.625.32031-3.64844.38379-1.02637.06543-1.60156.12891-1.72754.19238-.12891.06543.67188.0332,2.40039-.0957,1.72754-.12695,4.63672-.38477,8.73535-.76855,4.09473-.38379,9.85449-.89355,17.28027-1.53613l.19141-.19141Zm-82.75195,109.82324l-.57617.95996c.25586,1.66504.50977,2.625.76855,2.88086,1.02246,1.40918,1.72754,1.85645,2.1123,1.34375l-1.15234-5.18457-.19141-.38379-.96094.38379Zm9.2168-86.20801l.57617.19238.19141-.19238-.19141-.19141-.57617.19141Zm.19141,39.74414l.19141.38477.19336-.38477-.19336-.19141-.19141.19141Zm2.49609,20.35156c-.38379.76855-.4502,1.66602-.19141,2.68848l.5752.38379.19238-.76758-.38477-1.91992-.19141-.38477Zm2.6875-58.55957l.19238.19238c1.02246.38379,1.9834.32031,2.87988-.19238l-.19141-.19238-1.91992-.76758-.57617-.19141-.38477,1.15137Zm.96094,31.48828v.19238l.38379-.96094v-.19141l-.38379.95996Zm6.52734-41.66406c-.76758,0-1.53516.12891-2.30371.38379l.38379.19141h1.91992l.19238-.19141-.19238-.38379Zm2.88086.76855v-.19336h-2.68848l2.68848.19336Zm19.00781,80.44727c-1.66602-.12598-3.52246-.19141-5.56836-.19141h-13.05664c-1.02539,0-1.63086.19141-1.82324.57617-.19238.38281-.60938.5752-1.24805.5752v5.37598l.95996,2.30469c.38379.12891,1.08594.19141,2.11133.19141h9.4082c.89453.25781,2.27148.38379,4.12891.38379,1.85352,0,3.61426-.06348,5.2793-.19238v-4.22363c0-1.79004-.06641-3.38965-.19141-4.7998Zm-11.13672-29.56836c-1.53516.12891-2.94531.32129-4.22363.57617-1.02637.25781-2.08203.4502-3.16797.57617-1.08887.12891-1.82422.25781-2.20801.38477l-.38477,7.87109c.89453.12891,2.08008.12891,3.55273,0,1.46973-.12598,2.91016-.25488,4.32031-.38379,1.53516-.12598,3.19727-.31738,4.99219-.57617.125.12988.60547.22559,1.43945.28809.83105.06641,1.69531.0957,2.5918.0957h3.83984c.12695-.89355.22266-2.42969.28809-4.60742.06348-2.17578-.03223-3.71094-.28809-4.6084-.6416,0-1.91992.06641-3.83984.19238-1.91992.12891-3.71387.19141-5.37598.19141h-1.53613Zm-7.10352-45.31152l.19141.19238,1.15234-.19238-.57617-.57617-.76758.57617Zm2.6875-2.68848c-1.02539,0-1.72754.06641-2.11133.19238l1.91992.38379.38379-.38379-.19238-.19238Zm4.6084,27.26367h-1.91992v.19336c-.25879.12891-.25879.22461,0,.28711.25488.06641.5752.12891.95996.19238.38379.06543.70117.0957.95996.0957.25488,0,.25488-.06348,0-.19238v-.57617Zm2.87988-33.40723h-.57617l-.57617.57617c.63867.6416,1.27832.6416,1.91992,0l-.57617-1.15234-.19141.57617Zm.76758,71.42383l.38477.95996.38379-.57617-.19238-.95898-.19141-.38477-.38477.95996Zm7.29688-65.28027l.57617.19238.19141-.19238-.19141-.38379-.57617.38379Zm2.11133,38.0166c-.6416-.38379-1.02539-.31836-1.15234.19238l.19238.38281.95996-.38281v-.19238Zm4.41602-39.16797l.96094.19238.38281-.19238-.38281-.19238-.96094.19238Zm.76758,51.07129l.57617,1.53711.38477-1.53711-.19238-.38281-.76855.38281Zm4.0332,50.30469c-.25879.25781-.54688.44922-.86523.57617-.32031.12891-.6084.5127-.86328,1.15234l.38379.19141c.51074.5127,1.08594.06641,1.72754-1.34375l-.19141-.19238-.19141-.38379Zm3.26367-105.02441c-1.41016,0-2.43359.06641-3.07227.19238.89453.5127,1.91992.57617,3.07227.19141l.19141-.19141-.19141-.19238Zm-.57617,35.52051c-.89648,0-1.53613.12891-1.91992.38379l.19141.76855c.76855.89648,1.4707.76758,2.1123-.38477v-.38379l-.38379-.38379Zm-.95996-27.26367l.19238.95898.38281-.95898-.19141-.19336-.38379.19336Zm2.30371,92.54297c-.5127.25781-.92969.4502-1.24805.57617-.32031.12891-.67188.38477-1.05566.76758l.5752,1.34473.76855.19238.95996-2.49609v-.38477Zm-.95996-32.06348l.76855,1.15137.19141-.19141-.19141-1.34375-.19238-.76855-.57617,1.15234Zm.38379-58.17676l.38477.57617,1.15137-.38281-.95996-.38477-.19141-.19141-.38477.38281Zm1.34375-2.30273l.19238.19141.19238-.19141-.19238-.19336-.19238.19336Zm.57617-1.91992c-.5127.51172-.57617,1.08789-.19141,1.72656l.95996-.95898-.76855-.76758Zm-.19141,30.91113l-.19238.95996.76855.38477.38379-.96094v-.38379h-.95996Zm5.18359,12.67285v1.15137l1.15234,3.64746.19141-.76758-.38281-4.22461-.19336-.38281-.76758.57617Zm2.68848-52.60938l.5752.38477.57617-.38477-.38379-.19141-.76758.19141Zm1.91992,11.52051l.38379.38379.95996-.19141.19238-.19238h-1.53613Zm9.21582,100.03223c-.12891-1.40723-.16211-1.98242-.0957-1.72852.0625.25781.0957.83398.0957,1.72852Zm3.26367-113.47266c-1.02539,0-1.72754.06641-2.11133.19238l.19141.19238,1.91992.95996c.76855,0,1.4707-.31836,2.1123-.95996l-.19238-.19238h-1.72754l-.19238-.19238Zm4.41602,63.74414l.19238.76855c.50977.6416,1.02246.70508,1.53613.19238l.19141-.57617-1.53516-.38477-.19238-.38281-.19238.38281Zm3.26367-26.30371c-.64062.6416-.64062,1.21777,0,1.72754.12695-.125.19336-.63867.19336-1.53516l-.19336-.19238Zm.57617,5.95215c-.38281.76758-.38281,1.28125,0,1.53613.12695-.12598.19238-.57617.19238-1.34473l-.19238-.19141Zm.96094,37.05664l.19141.19141.38477-.38379-.19238-.19238-.38379.38477Zm1.15137-62.40039l.19238,1.15234.76758-.19238-.57617-.95996-.19141-.19238-.19238.19238Zm1.34473-8.64062l.19141.19238.19141-.19238-.19141-.38379-.19141.38379Zm4.99219,34.36816l.38281.76855.76855-.57617.19238-.57617-.19238-.19141-1.15137.5752Zm1.34375-15.16797l.19141.19238.19141-.19238-.19141-.38379-.19141.38379Zm2.87891,26.87988c-.38281,1.53613-.38281,3.00977,0,4.41602l.38477-.38379-.19141-3.64746-.19336-.38477Zm1.34473,43.00781c-.6416,1.02637-.6416,1.98633,0,2.88086.12598-.50977.19238-1.40723.19238-2.68848l-.19238-.19238Zm1.91992,30.7207l.57617.19141.38379-.19141-.38379-.19238-.57617.19238Zm.19238-9.4082l.19141.76758.19238-.76758-.19238-.19141-.19141.19141Zm.95898-48.57617l.38477.95996.19141-.95996-.19141-.19141-.38477.19141Z"/>
      <path class="cls-1" d="m473.56885.76758c.63965.12891,1.37402.22461,2.20801.28809.83105.06543,1.69531.0957,2.5918.0957l1.53613.95996-.57617,6.7207.57617.38379c1.40723,0,2.49609-.12598,3.26465-.38379.76758-.25586,1.91992-.25586,3.45508,0,.63867.12891,1.56641.16211,2.78418.0957,1.21582-.0625,2.49609-.12598,3.84082-.19141,1.34375-.06348,2.5918-.12695,3.74316-.19336,1.15234-.0625,2.0459-.0957,2.68848-.0957v-2.87988l.19141-.38379c.25586-.25488.35156-.50977.28809-.76758-.06543-.25586-.0957-.57617-.0957-.96094.63867-.25391,2.62207-.50977,5.95215-.76758,3.32617-.25488,6.46191-.44727,9.4082-.57617,2.30371,0,3.99805-.0293,5.08789-.0957,1.08594-.0625,2.04492-.12598,2.87891-.19141.83203-.06348,1.82422-.09668,2.97656-.09668h5.95215c1.02246.25879,1.56543.99316,1.63184,2.20801.0625,1.21875.15918,2.33691.28809,3.35938.89355,13.05664.83105,19.90625-.19238,20.54492-.25781,1.02539-.32031,1.95312-.19141,2.7832.12598.83398.25488,1.69922.38379,2.59277,2.1748-.51074,4.32031-.76855,6.43262-.76855,2.11133,0,4.19043.12891,6.23926.38477,1.15234.89648,1.9834,1.60156,2.49609,2.11133.51074.51367.31738,1.34375-.5752,2.49609-.25879,2.94629-.51367,5.56836-.76855,7.87207-.25879,2.0498-.41699,3.90625-.47949,5.56738-.06641,1.66602-.09668,2.5625-.09668,2.68848-1.66504.6416-3.1377.95996-4.41602.95996h-1.15137c-1.02637.12891-1.89062.22461-2.59277.28809-.7041.06641-1.31348.0332-1.82324-.0957-.38477-.12598-1.41016-.19238-3.07227-.19238h-6.14453c-4.73633,0-9.3125.0332-13.72754.0957-4.41602.06641-8.41895.09668-12,.09668-4.22363.12891-8.19336.19238-11.9043.19238-2.17773.25781-4.67383.41602-7.4873.47949-2.81836.06543-5.69727.09668-8.64062.09668h-8.25586c-2.5625,0-4.80078.06543-6.7207.19141h-15.74414c-1.28027,1.28125-1.85645,2.5625-1.72754,3.83984,1.53613,0,2.87988.0332,4.03223.0957,1.15234.06641,2.0459.16211,2.6875.28906h6.91211c2.94336,0,5.40625-.03125,7.39258-.09668,1.98242-.06348,3.48633-.03027,4.51172.09668,1.91992.12891,4.0957.12891,6.52832,0,8.06348-.25586,14.55859-.41406,19.4873-.48047,4.92578-.0625,9.18359-.22266,12.76855-.48047,1.79102,0,3.55176.06641,5.28027.19238,1.72754.12891,3.35938.06543,4.89551-.19238,1.53613-.25488,3.38965-.38379,5.56836-.38379h7.67969c4.6084,0,8.06348-.03027,10.36816-.09668,2.30371-.0625,4.28711.41797,5.95215,1.44141,0,1.40918-.0332,2.49512-.09668,3.26367-.06543.76758-.0957,1.47266-.0957,2.11133v1.91992c0,.64258.0625,1.53711.19238,2.68848.12598,1.28027.12598,4.41602,0,9.40723-.12988,2.5625-.19238,5.18457-.19238,7.87305,0,2.6875.12598,5.50488.38477,8.44727.50977,5.88867.50977,10.17578,0,12.86426-.25879,1.02637-.48047,2.0498-.67188,3.07227-.19336,1.02637-.48047,1.66504-.86523,1.91992-4.73633.5127-7.29492.89746-7.67969,1.15137-1.41016.12891-4.19336.22559-8.35156.28906-4.16113.06543-8.99414.16211-14.49609.28711-5.50586.12891-11.26562.22559-17.28027.28906-6.01855.06543-11.58594.12891-16.7041.19141-5.12109.06641-9.44141.12891-12.95996.19141-3.52246.06641-5.40918.09668-5.66309.09668h-20.92871c-5.88965,0-12.47949-.06348-19.77637-.19238-4.35254.12891-7.96777.22461-10.84766.28809-2.87988.06543-5.98438-.22168-9.3125-.86426l-.76758-5.375,1.53613-13.63281h-6.33594c-1.66504,0-3.10449-.0293-4.32031-.0957-1.21777-.0625-2.27441-.19141-3.16797-.38477-.89746-.19141-1.79395-.47949-2.68848-.86328-.12891-.12598.03125-1.02344.48047-2.6875.44727-1.66211.95996-3.55273,1.53613-5.66406.57617-2.1123,1.18262-4.1582,1.82422-6.14453.63867-1.98242,1.08594-3.29395,1.34375-3.93555,1.02246-2.81445,2.0166-5.24805,2.97559-7.29688.96094-2.04492,1.79102-3.83984,2.49609-5.375.70312-1.53711,1.24805-2.94336,1.63281-4.22461.38379-1.27734.57617-2.55859.57617-3.83984h-2.49609c-1.53711,0-3.26465-.0625-5.18457-.19141l-7.67969-.38477c0,.12891.0957-.44727.28809-1.72852.19141-1.27734.41406-2.62109.67188-4.03125l1.15234-5.75977c.38281-.76855.38281-1.59961,0-2.49609-.25781-.89453-.12891-1.4707.38281-1.72852.12695-.25488.51074-.73438,1.15234-1.43945.63867-.70215,1.08594-1.18164,1.34375-1.44043l29.56836-.76855c1.66211,0,3.67773-.0293,6.04883-.0957,2.36621-.0625,4.63672-.1582,6.81543-.28711,2.55957-.12695,5.24707-.25586,8.06348-.38477,0-.89355.03027-1.50293.09668-1.82422.06348-.31738.0957-.57617.0957-.76758s-.03223-.44727-.0957-.76758c-.06641-.31836-.22559-.92773-.47949-1.82422-1.15234,0-2.85059.0332-5.08887.0957-2.24121.06641-4.64062.0957-7.2002.0957h-13.24805c-1.15234,0-2.625.0332-4.41602.09668-1.79297.06543-3.58398.0957-5.375.0957h-4.99219c-1.41016,0-2.30469-.06348-2.68848-.19238-.6416-1.02246-.70508-1.79102-.19238-2.30371.25586-.50977.12695-.89355-.38379-1.15137,0-.50977.12598-1.27832.38379-2.30469.25586-1.02344.50977-2.11133.76855-3.26367.25488-1.15234.50977-2.23828.76855-3.26367.25391-1.02344.38281-1.79102.38281-2.30469-.12891-.12598-.06543-.48047.19238-1.05566.25488-.57617.57617-1.15234.95996-1.72754.38477-.57617.76758-1.11914,1.15234-1.63281.38379-.50977.63867-.76758.76758-.76758.50977.12891,1.15234.12891,1.91992,0,.25586,0,1.21484.0332,2.88086.0957,1.66211.06641,4.09375.16211,7.29492.28809,1.91992.12891,4.25391.12891,7.00879,0,2.75098-.12598,5.47168-.28809,8.15918-.47949,2.68848-.19238,5.08789-.35156,7.20117-.48047,2.11133-.12598,3.48535-.19141,4.12695-.19141,0-1.79102-.06543-3.23145-.19141-4.32031-.12891-1.08594.31836-1.75781,1.34375-2.01562,1.02344-.25586,2.91016-.48047,5.66406-.67285,2.75098-.19238,5.40625-.0957,7.96875.28809.50977,0,1.85352-.0625,4.03125-.19141,2.17578-.12695,4.44629-.31836,6.81641-.57617,2.36719-.25586,4.54102-.48047,6.52734-.67188,1.9834-.19238,3.03906-.28906,3.16797-.28906l.19238-.19141Zm-75.07227,118.65625c4.09473,0,7.16699-.0957,9.21582-.28809,2.04688-.19238,3.71094.22559,4.99219,1.24805l.38477,1.53613-.96094.38379,1.53711.5752c.63867,2.43359,1.15137,4.57812,1.53516,6.43262.38477,1.85645.54297,3.58496.48047,5.18457-.06641,1.60156-.35449,3.2334-.86426,4.89551-.5127,1.66504-1.34473,3.52246-2.49609,5.56738-.89746,1.02344-1.95312,1.66211-3.16797,1.91992-1.21777.25586-2.78418.51074-4.7041.76855-.64258,0-1.98633.03027-4.03125.09668-2.0498.0625-4.22461.125-6.5293.19141-2.30273.0625-4.48145.0625-6.52734,0-2.04883-.06641-3.33008-.22461-3.83984-.48047-.12891-.12891-.28809-.86328-.48047-2.20703-.19141-1.34375-.16211-2.52637.0957-3.55273.12695-1.40625.25586-3.10156.38477-5.08789.12598-1.98242.28711-3.99902.48047-6.04785.19141-2.0459.47949-3.99902.86328-5.85645.38477-1.85352.89453-3.42188,1.53613-4.70312l11.90332-.38477.19238-.19141Zm-7.87207,4.41602l.19238.57617.95996-.19238-.57617-.38379-.38379-.19238-.19238.19238Zm1.91992,11.51953h.57617l-.19141-.19141-.38477.19141Zm.76855-8.44727c-.76855,1.02539-.83398,2.04883-.19238,3.07129l.76758-.38379c-.38281-.63867-.51172-1.4707-.38281-2.49609l-.19238-.19141Zm2.68848-35.52051c-.76855.76855-.83398,1.41016-.19336,1.91992l.76855-.5752-.19238-1.15234-.38281-.19238Zm.38281-44.92871l-.76758.96094,1.34375.19141,1.53613-1.34375.38379-.19141-.38379-.19238-.19238.19238-1.91992.38281Zm-.38281,90.81641l.38281.19238.19238-.19238-.19238-.19141-.38281.19141Zm4.22266-9.21582l.19336.38379h1.15137l.38379-.38379h-1.72852Zm.57617-41.66406c-.5127,1.28125-.5127,2.49609,0,3.64844.63965-.25488.83203-.76855.57617-1.53613-.25781-.76758-.38379-1.40723-.38379-1.91992l-.19238-.19238Zm.57617-36.47949l.96094.19141.38281-.19141-.38281-.19238-.96094.19238Zm2.1123-31.67969c-.6416.25781-.83398.51172-.57617.76758l.95996.76758.96094-.38379-.96094-.95996-.38379-.19141Zm2.87988,124.79883c.12598-.125-.38379-.125-1.53516,0l.19141.19238,2.6875-.19238h-1.34375Zm1.91992-10.36719l.19238-.19238h-.57617l.38379.19238Zm.76758,8.06445l.19336.19141.19141-.19141-.19141-.19336-.19336.19336Zm.76855-11.32812l.19238.19141.38379-.19141-.38379-.19238-.19238.19238Zm1.72754,7.67969l.19238.57617.76855-.57617-.19238-.19238-.76855.19238Zm2.68848-115.00781l-.19238.57617.57617.5752h.57617l.95996-.95996-.19238-.19141h-1.72754Zm.57617,45.31152c-.76855.76855-.83398,1.47363-.19238,2.1123l1.91992-.76758.19238-1.72852-.57617-.19238-1.34375.57617Zm.5752-6.71973l.76855.19141.38379-.57617-.38379-.19141-.76855.57617Zm2.11328,36.28711c-.76855.89746-.76855,1.72852,0,2.49609.25391-.38281.44629-.76758.5752-1.15137.12598-.38379.44727-.83105.95996-1.34473l-.38379-.19141-1.15137.19141Zm36.0957,21.88867c.76758,0,1.94922.0332,3.55176.0957,1.59863.06641,3.23145.0957,4.89551.0957h10.17578c1.15234-.25391,2.23828-.25391,3.26465,0,2.0459.25879,3.51855.25879,4.41602,0,.89355-.25391,1.91992.06641,3.07129.96094,1.15234,1.41016,1.98438,2.46582,2.49609,3.16797.51074.70508.89453,1.37695,1.15234,2.01562.25586.64258.41406,1.41016.48047,2.30469.0625.89648.1582,2.30273.28711,4.22266.12695,2.43359.31836,4.41602.57617,5.95312.25586,1.53516.38477,2.84961.38477,3.93555,0,1.08887-.22461,2.04883-.67188,2.87988-.4502.83105-1.24805,1.75879-2.40039,2.78418l-.95996.38379c-1.53613-.12891-3.52246-.12891-5.95215,0l-20.16016.57617c-4.35254,0-8.19336-.06543-11.51953-.19238-2.94629-.12891-5.63477-.22461-8.06445-.28711-2.43262-.06641-3.58398-.09668-3.45508-.09668-1.02734-.12891-2.24219-.16113-3.64844-.0957-1.41016.06348-2.78418.0957-4.12891.0957-1.34375,0-2.625-.0957-3.83984-.28809-1.2168-.19141-2.20703-.60938-2.97559-1.24805-.89746-1.66406-1.34375-3.03906-1.34375-4.12793,0-1.08594.12598-2.90918.38379-5.47168.38477-4.0957.76758-7.39258,1.15234-9.88867.38379-2.49609,1.46973-4.44531,3.26367-5.85547.12598,0,.48047-.0625,1.05664-.19141.57617-.12695,1.21484-.25586,1.91992-.38477.70117-.12598,1.40625-.28711,2.11133-.48047.70215-.19141,1.24805-.28711,1.63281-.28711h3.45508c2.30469,0,4.89648-.03027,7.77637-.0957,2.87988-.06348,5.47168-.09668,7.77637-.09668l3.45508-.19238.38477-.19141Zm-33.59961-94.65625c.89355.38477,1.85352.32129,2.87891-.19141l-.57617-.38477-.38281-.19141-1.91992.76758Zm6.14355,67.77637l-2.1123.76855.19141.5752c1.02344,0,1.9209-.19238,2.68848-.5752l.95996-1.72852-.38379-.19238-1.34375,1.15234Zm2.49512-42.43262c-.89648-.125-1.69727-.1582-2.39941-.0957-.70508.06641-1.37695.16211-2.0166.28809l.57617.57617,3.45703-.38379.57617-.19238-.19336-.19238Zm-3.07129,6.33594l.38379-.57617h-.57617l.19238.57617Zm5.95215,69.12109c-.51367,1.41016-.51367,2.81641,0,4.22363.25488-.38379.44727-1.08691.57617-2.1123.125-1.02344,0-1.66211-.38477-1.91992l-.19141-.19141Zm-.19238-.38477l.19238.19238.95996-.38379-.76855-.76855-.38379.95996Zm.19238,18.24023l.19141.76758.38477-.19141-.19238-.57617-.19238-.19141-.19141.19141Zm9.79199-76.60742c-1.28125-.12695-2.37012,0-3.26465.38281l.19238.38477c1.27832.12891,2.68848,0,4.22363-.38477l-.95898-.19141-.19238-.19141Zm1.34375,55.87109c-1.28027,0-2.20801-.0293-2.78418-.0957-.57617-.0625-1.18457.0957-1.82422.48047l.19238.38281,4.41602-.5752h.19238l-.19238-.19238Zm1.72754-116.54395h.76855l-.19238-.19238-.57617.19238Zm3.26465.76855h.38379l-.57617-.38477.19238.38477Zm1.34375,10.36719l1.34473.38477.38281-.38477-.38281-.19141-1.34473.19141Zm.38379,6.52832l2.1123.57617.76855-.19238-.19238-.38379-1.34473-.38379-.76758-.19141-.57617.5752Zm1.91992,85.63184l-1.34375,1.15234.38477.19141c1.27734.25879,2.62109.19238,4.03125-.19141-.25781-.12598-.5459-.25488-.86328-.38379-.32227-.12598-.73828-.38379-1.24805-.76855l-.19238-.19141-.76855.19141Zm47.61621-14.01562c-.76758.12891-1.60156.12891-2.49512,0-.38477,0-.89746.0332-1.53711.0957-.6416.06641-1.41016.16211-2.30371.28809-1.53613.12988-8.06348.32129-19.58398.57617-1.91992,0-4.00195.0332-6.23926.09668-2.24219.06543-4.32031.12891-6.24023.19141-1.91992.06641-3.55273.12891-4.89648.19141-1.34375.06641-2.08203.09668-2.20801.09668-.76855,1.28027-.76855,2.49512,0,3.64746.38379,0,1.08594-.0293,2.1123-.0957,1.02344-.0625,2.11133-.0957,3.26367-.0957l3.64844-.19238c1.27734-.12598,2.23828-.19238,2.87988-.19238h1.34375c1.02246,0,2.33398-.0293,3.93652-.0957,1.59863-.0625,3.45508-.12598,5.56738-.19141,2.1123-.06348,4.25488-.0957,6.43262-.0957l17.2793-.38477c.89453-.50977,1.24805-.92676,1.05664-1.24805-.19238-.31836-.28906-1.05566-.28906-2.20801l-1.34375-.19238-.38379-.19141Zm-3.45605-17.85547c-1.02539,0-2.91211.0957-5.66406.28711-2.75391.19238-5.4082.22461-7.96777.0957-5.75977-.125-10.97754-.125-15.64746,0-4.67383.12891-8.73633.45117-12.19238.96094-.12891.89648,0,1.79297.38379,2.6875,1.79102,0,4.25391-.0293,7.39258-.0957,3.13477-.0625,6.36523-.15918,9.69531-.28809,3.32715-.12598,6.43164-.22168,9.3125-.28809,2.87988-.0625,4.89648-.0293,6.04785.0957,2.1748.25781,4.25391.25781,6.23926,0,1.98438-.25488,3.87109-.38379,5.66406-.38379,0-.50977-.06543-.95996-.19141-1.34375-.12891-.38379-.32031-.89355-.57617-1.53613h-2.30371l-.19238-.19141ZM458.2085,5.75977c-1.02539-.12598-1.98633-.12598-2.87988,0l.38379.19141h2.1123l.38379-.19141Zm-.38379,132.48047c-.38379.51172-.38379,1.02539,0,1.53516l1.15137-.57617-.5752-.57617-.57617-.38281Zm7.68066-133.63281c-1.41016.12891-2.72168.19238-3.93652.19238-1.21777,0-2.46582.12891-3.74414.38379.51074.25781,1.56543.25781,3.16797,0,1.59863-.25488,3.10254-.38379,4.5127-.38379h.38281l-.38281-.19238Zm1.53516,38.97656c-2.17773,0-4.00195-.06348-5.47168-.19238-1.47363-.12598-2.52832,0-3.16797.38379l.38379.19238c2.6875.38379,5.63086.38379,8.83203,0l-.38379-.38379h-.19238Zm-6.14355-36.86426c-.76855.76855-.83398,1.34375-.19238,1.72754l.38477-1.53516-.19238-.19238Zm1.15137,15.36035l.19238.19141,1.15137-.57617-.5752-.19141-.76855.57617Zm4.6084,64.70312l-3.26465,1.72852.19336.19141h2.30273l1.15234-.95898,2.68848-.38477.5752-.38379-.38281-.19238h-3.26465Zm-1.72754,53.95312l.19141.19141.95996-.19141-.38379-.19336-.19141-.19141-.57617.38477Zm4.22363-109.63281c-.6416,0-1.24805.0332-1.82422.0957-.5752.06641-1.05566.0957-1.44043.0957l.19238.76855h2.87988l.57617-.76855-.38379-.19141Zm-2.1123-11.13574l.57617.19238.19141-.19238-.19141-.19238-.57617.19238Zm4.80078,93.69629c-1.28125-.12695-2.24219-.12695-2.88086,0l.19238.19141c.25488.12891.63965.16211,1.15137.0957.51074-.0625,1.08594-.1582,1.72852-.28711h-.19141Zm-2.30469-93.50391l1.53613.19141.57617-.19141h-2.1123Zm3.64844,102.91211c.50977.89648,1.46973,1.02539,2.87988.38281l-.57617-.38281h-2.30371Zm5.95117-51.26465c.89453.25781,2.11328.32129,3.64844.19238l-.57617-.38477-1.53516-.38379-1.34473-.19238-.19238.76855Zm.76855-20.73535l.57617.19141,1.34375-.19141-.19238-.19336-.57617-.19141-1.15137.38477Zm19.2002-22.08008c-1.02637.12891-2.40039.22461-4.12891.28711-1.72656.06641-3.52148.12891-5.375.19238-1.85742.06543-3.68164.0957-5.47266.0957h-3.83984v.38379c0,.38477.12695.70508.38477.96094.25391.6416.38281,1.31348.38281,2.01562,0,.70508.12695,1.24805.38477,1.63184.50977-.12598,1.66211-.22168,3.45605-.28809,1.79102-.0625,3.64746-.1582,5.56738-.28809,1.91992-.12598,3.71094-.22168,5.37695-.28809,1.66211-.0625,2.75-.0957,3.26367-.0957l.19141-4.41602-.19141-.19141Zm-16.89648-10.17676l1.91992.19238.19238-.57617-.95996-.19141-1.15234.5752Zm.57617,2.87988l.19141.38477,1.15234-.57617-.38379-.19238-.95996.38379Zm1.34375,86.78418l.19238.38379,1.72754-.19141-.57617-.38477-.38281-.19141-.96094.38379Zm5.95215-40.7041l.95996.38477.19238-.38477-.19238-.19141-.95996.19141Zm16.12793,51.07227h4.22461c1.66211,0,3.26367.12891,4.7998.38379,1.91992.5127,3.23145.73828,3.93652.67285.70117-.06348,1.27734-.09668,1.72754-.09668.44629,0,1.05566.12891,1.82324.38379.76855.25781,2.17578.96094,4.22461,2.1123.50977,1.53613.79785,2.65723.86328,3.36035.06348.70508.06348,1.31348,0,1.82422-.06543.51172-.12891,1.18457-.19141,2.01562-.06641.83398.03027,2.14453.28809,3.93555.12598,1.41016.22168,2.5625.28809,3.45605.0625.89746.0293,1.69824-.0957,2.39941-.12891.70508-.38477,1.41016-.76855,2.11328-.38379.70508-.95996,1.63086-1.72754,2.7832-1.41016,1.15234-2.49609,1.85352-3.26367,2.1123-.76855.25488-1.57031.35059-2.40039.28809-.83398-.06641-1.85742-.12891-3.07227-.19238-1.21777-.06543-2.84961.09668-4.89648.47949-.51172,0-1.56836.03125-3.16797.09668-1.60156.06348-3.29688.09668-5.08789.09668-1.79297,0-3.52148-.09668-5.18359-.28906-1.66504-.19141-2.81641-.47949-3.45605-.86328-.38379-.25781-.6416-.80078-.76855-1.63281-.12891-.83008-.22461-1.79102-.28711-2.87891-.06641-1.08594-.0957-2.20898-.0957-3.36035v-5.56836c0-1.27832.0293-2.62207.0957-4.03223.0625-1.40625.125-2.7832.19141-4.12695.06348-1.34473.0957-2.33398.0957-2.97656l1.72852-.95996c.25488-.25488.95996-.38379,2.1123-.38379l3.83984-.38477c1.02246-.125,1.91992-.25391,2.68848-.38379.76758-.12598,1.21484-.19238,1.34375-.19238l.19141-.19141Zm-6.14355-98.49609h.5752l-.38281-.19141-.19238.19141Zm.5752-.57617l.57617.38477,1.53711-1.15234-.19238-.19238-1.9209.95996Zm6.91211-5.75977l.57617.38379,2.1123-.76758-1.15137-.19238-.19238-.19141-1.34473.76758Zm2.11328,109.05664l.5752.38281,1.34473-.95898-.38477-.19238-1.53516.76855Zm.95898-116.35254l.19238.5752,1.72754-.19141-1.15234-.57617-.76758.19238Zm4.03223,119.23145l.19238.96094.19141-.96094-.19141-.19141-.19238.19141Zm.76855-56.25586l.38281.19238.19336-.19238-.19336-.19141-.38281.19141Zm2.30371-30.91211l.19238.19238c.89355.5127,1.85352.4502,2.87891-.19238l-.38281-.19141-.19336-.19238-2.49512.38379Zm4.22363,37.24805c-.89648.51367-.89648,1.02637,0,1.53613.89453.25879,1.79102.06641,2.6875-.5752l-.38281-.38477-2.1123-.38379-.19238-.19238Zm-.38379,67.00781l.19238.38477.76758-.19238-.57617-.5752-.38379.38281Zm1.72754-129.9834l.76855.57617.5752-.57617-.38281-.19238-.96094.19238Zm5.75977,4.7998c-1.40918-.25488-2.49512-.0625-3.26367.57617l.57617.38379c.50977.12988,1.02344.12988,1.53613,0,.51074-.12598.95996-.31738,1.34473-.5752l-.19336-.38477Zm-2.49512,6.33594l.5752-.38379h-1.34375l.76855.38379Zm-.76855,25.72852l1.34375,1.15234.76855-.19336.38379-1.34375-.38379-.19141-2.1123.57617Zm.76855,49.15234c.12598.89648.28809,1.69727.47949,2.39941.19238.70508.41406,1.18457.67188,1.44043l.96094-.38477-1.34473-3.45508-.19238-.19336-.5752.19336Zm2.1123-61.24805l.57617.38281.5752-.38281-.19238-.19238-.95898.19238Zm1.72754,5.95117c-.12891.64258.31738,1.08984,1.34375,1.34375l.95996-.19141-.38379-1.15234-.19238-.19141-1.72754.19141Zm17.08789,74.49609c1.27832,0,2.0791-.0293,2.39941-.0957.31836-.0625.54297-.0625.67188,0,.12695.06641.31836.19141.57617.38379.25586.19238,1.02344.5459,2.30469,1.05566.25586.64258.57617,1.79492.95898,3.45703.38477,1.66406.70312,3.33008.96094,4.99121.38477,3.71387.54297,7.00879.48047,9.8877-.06641,2.88086-.54688,5.91992-1.44141,9.12109-.64062.25391-1.53516.44629-2.6875.5752-1.15234.12598-2.39941.22168-3.74414.28809-1.34375.0625-2.5918.0957-3.74414.0957-1.15137,0-1.91992-.06543-2.30273-.19141h-.19238c-2.94629-.25781-4.96191-.4502-6.04785-.57617-1.08984-.12891-2.27441-.70508-3.55273-1.72852-.25781-.6416-.28711-1.47266-.0957-2.49609.19141-1.02246.35156-2.2373.48047-3.64746,0-2.0459.0293-3.96582.0957-5.75977.0625-1.79102.25488-3.45605.57617-4.99219.31836-1.53613.76758-3.00586,1.34375-4.41602.57617-1.40723,1.37402-2.81348,2.40039-4.22363.89355-.38477,1.66211-.67188,2.30371-.86426.63867-.19238,1.31152-.31836,2.0166-.38379.70117-.06348,1.53516-.0957,2.49512-.0957s2.1416-.06348,3.55176-.19336l.19238-.19141Z"/>
      <path class="cls-1" d="m598.75342,5.56738h6.14355l.19238-.19238v.19238h10.55957c4.22461,0,8.19043-.06348,11.9043-.19238,4.34961,0,8.89551-.0625,13.63184-.19141l37.05664-1.53613,22.65527.19238c.89453,0,2.87988-.12598,5.95215-.38477,3.07227-.25391,6.27051-.54297,9.60059-.86328,3.32617-.31836,6.39844-.60547,9.21582-.86426,2.81348-.25488,4.41602-.38379,4.7998-.38379,1.40723-.25488,2.78418-.31836,4.12793-.19238,1.34375.12988,2.40039.57617,3.16797,1.34473,0,.5127.12598,1.02539.38379,1.53516l.38379,3.07227v18.04883c0,2.04883.06348,3.58398.19238,4.60742l-.95996.95996c-3.33008.12891-7.55371.25781-12.67188.38379-5.12109.12891-10.43359.22461-15.93652.28809-5.50488.06543-10.81738.12891-15.93555.19238-5.12109.06543-9.34473.0957-12.67188.0957-.25781,1.02539-.4502,2.625-.57617,4.7998-.12891,2.17871-.06641,3.77734.19238,4.7998h11.71191c.89355-.125,3.00586-.25488,6.33594-.38379,3.32715-.12598,6.81543-.22168,10.46387-.28809,3.64844-.0625,7.03809-.0957,10.17578-.0957,3.13477,0,4.95898.06641,5.47266.19141.89355.25781,2.11133.57617,3.64746.96094,1.53613.38379,2.30371.76758,2.30371,1.15137l8.06445,21.12012.19141,4.22461c.25586,2.6875.51074,6.14355.76855,10.36719.25488,4.22461.57617,8.80273.95996,13.72852.38379,4.92871.73535,9.50391,1.05566,13.72754.31836,4.22363.54297,7.74609.67188,10.55957l.38477,4.0332c.12598,1.53516.38379,3.42578.76758,5.66406.38379,2.24023.67188,4.44824.86426,6.62305.19141,2.17773.25488,4.16113.19141,5.95215-.06543,1.79395-.47949,3.07227-1.24805,3.84082-.5127.51172-1.40918.76758-2.6875.76758-.6416,0-1.31445.32031-2.01562.95996-.70508.63867-1.50684,1.02246-2.40039,1.15137-.76758.12695-2.43262.25586-4.99219.38477-2.56152.125-5.3457.25488-8.35156.38379-3.00879.12598-5.85645.19238-8.54395.19238-2.68848,0-4.54492-.12891-5.56836-.38477-.76758-.76758-1.24805-1.41016-1.44043-1.91992-.19141-.50977-.28711-1.11914-.28711-1.82422,0-.70117.0293-1.50195.0957-2.39941.0625-.89355.03027-2.0459-.0957-3.45605,0-2.42969-.09668-5.63086-.28809-9.59961-.19238-3.9668-.38477-8.19043-.57617-12.67188-.19238-4.47949-.38379-9.02441-.57617-13.63281-.19238-4.60742-.38379-8.76562-.57617-12.48047-.19141-3.71094-.35352-6.75-.47949-9.11914-.12891-2.36719-.19238-3.61523-.19238-3.74414-1.02637,0-1.95312-.03027-2.78418-.0957-.83398-.06348-1.56836-.15918-2.20801-.28906l-5.37598-.38281c-.76758,0-1.88965-.09668-3.35938-.28906-1.47363-.19141-2.97656-.31738-4.5127-.38281-1.53613-.06348-2.87988-.09668-4.03125-.09668-1.15234,0-1.79492.19238-1.9209.57617v57.79199c0,4.09766-.06543,7.48828-.19141,10.17578v3.83984l-.76855.96094c-.25781.125-.80078.2207-1.63184.28711-.83398.06348-1.82422.0957-2.97559.0957h-3.26465c-1.15137,0-2.17773-.06543-3.07129-.19141-2.04883-.12891-3.90625-.12891-5.56836,0-.89648.12598-2.04883.22266-3.45605.28809-1.41016.06348-3.20117.0957-5.37598.0957-2.43262.12598-4.99219.19238-7.67969.19238-2.68848,0-4.16113-.25781-4.41602-.76758l-.76855-.76855c.51074-1.41016.76855-2.87988.76855-4.41602,0-1.15137.0625-1.46973.19141-.95996v-2.6875c.12598-1.79102.19238-3.77441.19238-5.95312v-5.95117l.19238-2.68848c.12598-.25488.19141-1.69434.19141-4.31934,0-2.62305-.0332-5.82422-.0957-9.60059-.06641-3.77441-.12891-7.77637-.19238-12-.06543-4.22363-.16211-8.16016-.28809-11.80762-.12891-3.64844-.25781-6.6875-.38379-9.12012-.12891-2.43066-.25781-3.71191-.38379-3.84082-2.56152,0-5.82617-.19141-9.79199-.5752-2.17773-.12598-3.90625-.28809-5.18359-.47949-1.28125-.19336-2.17871-.22266-2.68848-.09668-1.02637.12891-1.82422.12891-2.40039,0-.5752-.12598-1.15137-.28809-1.72754-.47949-.57617-.19238-1.15234-.31836-1.72754-.38477-.57617-.0625-1.37793-.0293-2.40039.0957,0,1.02637-.0332,2.91406-.0957,5.66406-.06641,2.75391-.09668,5.92188-.09668,9.50391v37.82422c0,1.41016.03027,2.91406.09668,4.51172.0625,1.60254.12598,3.16797.19141,4.70508.06348,1.53516.15918,2.6875.28809,3.45508.25488,2.94629.31836,5.31348.19238,7.10449-.12891,1.79102-.57617,3.19824-1.34375,4.22363h-3.07227c-1.66504,0-3.55176-.06543-5.66406-.19141-2.1123-.12891-4.16113-.22461-6.14453-.28809-1.98535-.06543-3.35938-.09668-4.12793-.09668-4.60742.25586-8.38477.54297-11.32812.86523-2.94531.31738-5.95117.0293-9.02344-.86523l-1.34375-1.34375c0-.12891.0957-1.05566.28809-2.7832.19141-1.72852.44629-3.71094.76758-5.95312.31836-2.2373.60645-4.34961.86426-6.33594.25488-1.98242.44629-3.29297.57617-3.93555l.38379-5.95117c.25488-4.0957.57617-9.18359.95996-15.26465.38379-6.07812.83105-12.63965,1.34375-19.68066.50977-7.03711.95996-13.59863,1.34375-19.67969.38477-6.07812.70215-11.10254.95996-15.07227l.38477-6.14355c.50977-.12598,1.02246-.44629,1.53516-.95996.38477-.38379,1.4707-.70215,3.26465-.95996.38379,0,1.98242-.03027,4.7998-.09668,2.81348-.0625,6.24023-.125,10.27148-.19141,4.03223-.0625,8.31934-.1582,12.86426-.28809,4.54199-.12598,8.79883-.25488,12.76855-.38379,3.96582-.12598,7.2627-.25488,9.8877-.38379,2.62207-.12598,3.99902-.25488,4.12793-.38379.12598-.12695.25488-.19238.38379-.19238,0-1.40723.06348-3.10254.19238-5.08789.12598-1.9834-.06641-3.23145-.57617-3.74414-4.86621,0-10.0498.06543-15.55176.19238-5.50488.12891-10.68945.25781-15.55176.38379-4.86621.12891-9.05762.25781-12.57617.38379-3.52246.12891-5.66406.12891-6.43262,0-3.07129-.38379-5.3125-.38379-6.71973,0-1.79395.38379-3.1377.25781-4.03223-.38379,0-.25488-.38379-.63965-1.15137-1.15234-.38477-.25488-.70508-.50977-.95996-.76855l5.37598-21.88672c.12598-.12695.83105-.60645,2.11133-1.44043,1.27832-.83105,2.17578-1.24805,2.68848-1.24805l7.87207-.95996c.12598.5127.47949.6416,1.05566.38379.57617-.25488,1.18164-.44629,1.82422-.57617Zm-12.67188,56.06445l.19141.38379.57617-.38379-.38379-.19238-.38379.19238Zm.19141,28.7998c.38477,1.15234,1.15234,2.24121,2.30469,3.26367l.19141-.19141-.95996-3.26367-.95996-.19238-.57617.38379Zm12.48047-84.86426h-.38379c.12598-.12598.31738-.19238.5752-.19238l-.19141.19238Zm2.49609,44.73633c-.38379,0-.67188.47949-.86426,1.44043-.19238.95898-.35352,2.04883-.47949,3.26367-.12988,1.21777-.32129,2.40039-.57617,3.55176-.12891.89746-.4502,1.47363-.95996,1.72754l1.91992.76855.57617-.38379.38379-10.36816Zm-1.72852,41.66406l-1.15137,2.68848.5752.19141,1.72852-1.34375,1.15234-1.91992-.19238-.19238-2.1123.57617Zm6.7207-84.86426c.63867.64258,1.34375.51367,2.11133-.38379l-.38379-.38379-1.15234-.19238-.5752.95996Zm6.52734.38477l.19238.19141.19141-.19141-.19141-.38477-.19238.38477Zm20.92871,110.39941c.89355,0,1.50293-.03027,1.82324-.09668.31836-.0625.57617-.0625.76855,0,.19141.06641.38379.19238.57617.38477.19141.19141.67188.48047,1.43945.86328.38379.76855.50977,1.76172.38379,2.97656-.12891,1.21777-.19141,2.5293-.19141,3.93555,0,1.15234.0293,2.5918.0957,4.32031.06348,1.72852.12598,3.48926.19238,5.28027.0625,1.79395,0,3.39355-.19238,4.7998-.19238,1.41016-.5459,2.30469-1.05566,2.6875-1.15234.25879-2.68848.38477-4.6084.38477s-3.80957-.0957-5.66406-.28809c-1.85645-.19238-3.55176-.44727-5.08789-.76855-1.53613-.31738-2.56152-.60547-3.07227-.86328-.25781-.25586-.44922-1.375-.57617-3.36035-.12891-1.9834-.16113-4.19043-.0957-6.62402.06348-2.42969.15918-4.76758.28809-7.00781.12598-2.23828.31836-3.74414.57617-4.51172.76758-.25586,1.27832-.57617,1.53613-.96094.25488-.50977.89355-.63867,1.91992-.38281h1.53613c1.15137-.12695,2.39941-.22266,3.74414-.28906,1.34375-.0625,2.5918-.0957,3.74316-.0957l1.72852-.19141.19238-.19238Zm-13.44043-40.7041c2.6875.12891,5.21387.22461,7.58398.28809,2.36719.06543,4.95898.0957,7.77637.0957.38379,1.28125.67188,3.20117.86328,5.76074.19238,2.56152.31836,5.25.38477,8.06348.0625,2.81738.12598,5.44238.19141,7.87207.06348,2.43359.22168,4.22461.48047,5.37598.12598,1.02637.19141,1.79395.19141,2.30371,0,.51367-.06543.96094-.19141,1.34375-.12891.38477-.28809.80078-.48047,1.24805-.19141.45117-.41699,1.12305-.67188,2.0166-.12891.12891-.89648.16113-2.30371.0957-1.41016-.06348-2.24121-.0957-2.49609-.0957-1.53613,0-2.85059.12891-3.93652.38379-1.08887.25781-2.08203.51367-2.97559.76758-.89746.25781-1.76074.38477-2.5918.38477-.83398,0-1.82422-.38477-2.97656-1.15234v-19.00781c0-3.9668.09668-7.48828.28809-10.56055.19238-3.07227.48047-4.7998.86426-5.18359Zm3.83984,17.08789l1.15234.38477.19141-.38477-.19141-.19141-1.15234.19141Zm8.06445-88.7041h-1.53613c-.12891,0-.28809.0332-.48047.09668-.19141.06543-.6084.16211-1.24805.28711.12598.64258.51074,1.02637,1.15234,1.15234l.57617-.57617c.63867,0,1.15137-.31836,1.53613-.95996Zm18.23926,76.7998c-.38379,1.66602-.06543,3.13867.95996,4.41602.38477-1.27734.06348-2.75-.95996-4.41602Zm1.9209-49.72754l.19141,4.99219.57617.19238c.12598-.25586.22168-1.18262.28809-2.78516.0625-1.59863.03027-2.52539-.0957-2.7832l-.38477-.19238-.5752.57617Zm3.64746-18.04785l-1.34375,1.34375.19141,1.15234,3.07227-4.99219-.19141-.19141-1.72852,2.6875Zm9.79199.76758l.19238.19238.19141-.19238-.19141-.38379-.19238.38379Zm3.83984,15.36035c-.38379.6416-.6416,1.85645-.76758,3.64746-.12891,1.79492-.12891,3.00977,0,3.64844l1.34375-.38379-.19238-6.71973-.38379-.19238Zm26.1123,48.38379c.89355-.12598,1.72754,0,2.49609.38477.76758.38281,1.59863.76758,2.49609,1.15137.50977,1.79395.89355,3.29688,1.15137,4.5127.25488,1.2168.38477,2.36914.38477,3.45508,0,1.08984-.06641,2.27441-.19238,3.55273-.12891,1.28027-.25781,2.81641-.38379,4.60742l-1.34375,1.15234-.38477,1.15234c-3.96875.12891-6.91211.12891-8.83203,0-1.79395-.12695-3.1377-.06348-4.03125.19141-1.53613.64258-2.94629.57617-4.22461-.19141,0-.89453.03027-2.27148.0957-4.12891.06348-1.85352.09668-3.83984.09668-5.95117,0-2.11328.03027-4.12891.0957-6.04883.06348-1.91992.0957-3.38965.0957-4.41602l.76855-.76758,11.51953,1.53516.19238-.19141Zm-4.41602,25.91992c2.0459-.12598,3.71094-.12598,4.99219,0,1.27734.12891,3.00586.38477,5.18359.76758l.95996.76855c-.12891.76855-.19141,2.72168-.19141,5.85645,0,3.1377.0293,6.68945.0957,10.65625.0625,3.96875.0957,7.9375.0957,11.90332v9.21582c-1.79395.89453-3.07227,1.44043-3.83984,1.63281-.76758.19141-1.44043.19141-2.01562,0-.57617-.19238-1.31445-.41797-2.20801-.67188-.89746-.25879-2.37012-.38477-4.41602-.38477-1.79395.25488-3.04199.48047-3.74414.67188-.70508.19238-1.76074-.0332-3.16797-.67188.25488-.38379.41406-2.33398.47949-5.85547.06348-3.51953.06348-7.45508,0-11.80859-.06543-4.34961-.16211-8.47852-.28809-12.38379-.12891-3.90332-.19141-6.43262-.19141-7.58398.63867-.63965,1.66211-.99023,3.07227-1.05566,1.40625-.06348,3.07129-.28906,4.99121-.67188l.19238-.38477Zm-6.91211-76.7998l-.57617.76855.57617.5752c.38379,0,.89355-.19238,1.53613-.5752l-.57617-.76855-.19238-.19238-.76758.19238Zm14.97559-12.28809l-.19141.76758,1.34375,7.10449.57617-.57617-.57617-7.2959-.19141-.19141-.96094.19141Zm13.24805,7.2959c0,1.53613-.06543,2.625-.19141,3.26465l.19141.19141.95996-.19141.38477-2.30469-.57617-.95996-.19238-.19238-.57617.19238Zm.76855,38.97559c0,1.41016-.06641,2.78516-.19238,4.12891-.12891,1.34375,0,2.91211.38379,4.70312l.38477-.38281c-.25879-1.02344-.41699-2.33398-.48047-3.93652-.06543-1.59863-.0332-3.03906.0957-4.32031l-.19141-.19238Zm1.53613,30.33594l.19141,1.15234.38477-.19141-.19238-.96094-.19238-.19141-.19141.19141Zm5.95215-45.69531c-1.41016,0-2.5625.25781-3.45605.76758l.19141.19238c1.40723.12891,2.94336,0,4.6084-.38379l-.95996-.38477-.38379-.19141Zm-1.72852,49.91992l-.19238.57617.76855.76758.57617-.76758-.38379-.57617-.19238-.19141-.57617.19141Zm3.26367-7.48828l.76855.76855.38379-.95996-.38379-.19238-.76855.38379Zm6.33594,2.1123l.38477.19238.76758-.19238,1.15234-1.15137-.95996-.19238-.19238-.19238-1.15234,1.53613Z"/>
    </g>
  </g>
</svg>