<?xml version="1.0" encoding="UTF-8"?>
<svg id="_图层_2" data-name="图层 2" xmlns="http://www.w3.org/2000/svg" viewBox="0 0 747.07227 149.91227">
  <defs>
    <style>
      .cls-1 {
        fill: #162a43;
        stroke-width: 0px;
      }
    </style>
  </defs>
  <g id="_图层_1-2" data-name="图层 1">
    <g>
      <path class="cls-1" d="m87.93652,141.08023c-.25879.12988-.51367.19336-.76855.19336-3.96973.64062-7.2959,1.2168-9.9834,1.72656-2.68945.38477-4.60938.64258-5.76074.76855-1.41016.12988-2.68848.22559-3.83984.28809-1.15234.06641-2.3042.0332-3.45605-.0957-2.56201,0-4.48193-.03027-5.76025-.0957-1.28076-.06348-3.20068.28711-5.75977,1.05566-4.09814.76855-6.97803,1.15137-8.64014,1.15137h-2.30371c-.64209,0-1.21826.06348-1.72803.19238-3.96924.25488-7.48828.44727-10.56006.57617-1.41016.12598-2.72119.22168-3.93604.28809-1.21826.0625-2.33691.0957-3.35986.0957-1.15234.12598-2.24121.19141-3.26416.19141-1.41016.12695-2.72119.16016-3.93604.09668-1.21826-.06543-2.33691-.22559-3.35986-.47949-1.79395-.25781-3.74414-.41797-5.85596-.48047-2.1123-.06641-3.68115-.22461-4.7041-.48047l-.95996-.95898c.25488-.76855.38379-1.59961.38379-2.49609-.12891-.89453,0-2.30469.38428-4.22461l.38379-3.45605c.38379-2.42969.79785-5.05469,1.24805-7.87207.44678-2.81445.86377-5.375,1.24805-7.67969l.57568-3.64844c.38428,0,.83105-.125,1.34424-.38379.12598-.12598.95996-.19238,2.49609-.19238,1.02295-.125,1.88672-.25391,2.5918-.38281.70215-.12695,1.37402-.19238,2.01611-.19238,1.27783,0,2.23779.12891,2.87988.38379,1.15186.25781,2.97607.38379,5.47217.38379s4.83008-.12598,7.00781-.38379c2.0459-.38379,4.19092-.70215,6.43213-.95996,2.23779-.25488,4.25391-.38379,6.04785-.38379,2.17529,0,4.1582.19141,5.95215.57617,1.79102.38379,3.77393.25781,5.95215-.38477.38379-.76758.57568-1.72754.57568-2.87988,0-1.15137-.03271-2.30371-.0957-3.45605-.06592-1.15234-.06592-2.23828,0-3.26367.06299-1.02344.41406-1.79102,1.05566-2.30469,1.15234-.25391,1.854-.25391,2.1123,0l3.45605-.38281c2.42969-.38477,5.05469-.79883,7.87158-1.24805,2.81445-.44727,5.43945-.83203,7.87207-1.15234,2.43066-.31836,3.84082-.48047,4.22363-.48047,4.35059-.125,7.48828-.25488,9.4082-.38379,1.91992-.12598,3.71094-.31738,5.37695-.5752l.76758,1.72656-.19238,1.53711v3.45508c0,1.15234.03027,2.30469.09668,3.45703.0625,1.15137.1582,1.91992.28711,2.30371,1.66211,0,3.13477-.28809,4.41602-.86426,1.27832-.57617,3.00586-1.37402,5.18457-2.40039,2.42969-1.02246,4.5752-2.30371,6.43164-3.83984,1.85449-1.53516,3.48633-3.00586,4.89551-4.41602,1.15234-1.15234,2.23828-2.33398,3.26465-3.55176,1.02246-1.21484,2.0459-2.71777,3.07129-4.51172-.38281-.63965-1.34375-.95996-2.87891-.95996-1.28125.12891-2.5625-.12695-3.83984-.76758-.38477,0-1.56934.03223-3.55273.0957-1.98633.06543-4.44922.16211-7.3916.28711-2.94629.12891-6.08105.28906-9.4082.48047-3.33008.19141-6.49805.38379-9.50391.57617-3.00879.19141-5.66406.35352-7.96777.48047-2.30469.12891-3.77734.19141-4.41602.19141-.12891.12891-1.50586.38379-4.12891.76758-2.62451.38477-5.60059.76855-8.92725,1.15234-3.84033.51367-8.13037,1.02539-12.86426,1.53613,0,.76855-.12891,1.63184-.38379,2.5918-.2583.95996-.51318,1.56934-.76807,1.82422-.51318,1.02637-.83398,1.76074-.95996,2.20801-.12891.44922-.19189,1.24805-.19189,2.40039-1.79395,1.02539-3.39307,1.2168-4.80029.57617-4.09766.51172-8.57666.86328-13.43994,1.05469-4.86572.19336-9.15283.41797-12.86377.67285-3.33008.25781-5.98535.28809-7.96826.0957-1.98584-.19238-3.48877-.41406-4.51172-.67188l-.38428-1.34473c.12598-.38281.44727-1.27734.95996-2.6875.51025-1.40625,1.05615-2.97559,1.63232-4.70312.57568-1.72852,1.11865-3.39062,1.63184-4.99219.50977-1.59961.83105-2.78516.95996-3.55273.12598-.89355.25488-1.82422.38379-2.7832.12646-.96094.31836-2.0166.57617-3.16797.51025-2.04688.89404-4.41602,1.15186-7.10449l.38428-3.26465c.25488-1.40625.50977-2.7832.76807-4.12695.25488-1.34473.50977-2.55957.76807-3.64844.25488-1.08594.44678-1.82422.57568-2.20801,1.15234-.25488,2.0459-.76855,2.68799-1.53613,1.40723,0,3.03906-.0957,4.896-.28809,1.854-.19238,3.93604-.41406,6.24023-.67188-.12891.12891.70166.06543,2.49609-.19238,1.79102-.25391,3.77393-.50977,5.95166-.76758,2.43018-.38379,5.31006-.70215,8.64014-.95996l.19189-.19238c1.27832.12891,2.78418.32129,4.51221.57617,1.72803.25781,3.48584.70508,5.27979,1.34375.51025.76855.54297,1.69824.09619,2.78516-.4502,1.08789-.80127,1.95215-1.05615,2.5918,5.50195.12891,7.93506-.12695,7.2959-.76855h3.07227c2.0459-.12598,4.60791-.25488,7.68018-.38379,3.07227-.12598,6.36523-.28809,9.8877-.48047,3.51855-.19141,6.71973-.35059,9.60059-.47949,2.87891-.12598,5.24609-.25488,7.10352-.38379,1.85352-.12695,2.6543-.25586,2.40039-.38477l6.14355-.38379c2.0459-.12598,3.99902-.25488,5.85645-.38379,1.85352-.12598,3.45508-.22266,4.79883-.28809,1.34473-.06348,2.27148-.15918,2.78516-.28809,1.02246-.25488,2.49609-.41406,4.41602-.48047,1.91992-.0625,3.58203-.22168,4.99219-.47949,3.32617-.63965,7.58398-.92676,12.76758-.86426,5.18359.06641,12.25488.48047,21.21582,1.24805.76855,5.12109,1.02246,9.66602.76855,13.63281,0,.89648-.06641,1.91992-.19238,3.07129-.12988,1.15234-.22559,2.14551-.28809,2.97559-.06641.83398-.16211,1.50586-.28809,2.0166-.12891.12891-.19238.25781-.19238.38379-.12891.25781-.25781.95996-.38379,2.1123-.12891,1.40918-.32129,2.94629-.5752,4.6084-.25879,1.66406-.51367,3.29688-.76855,4.89551-.25879,1.60254-.4502,2.72168-.57617,3.36035-.38379,1.91992-1.05566,3.90625-2.0166,5.95117-.95898,2.04883-1.95215,4.00195-2.97461,5.85645-1.02734,1.85645-1.95312,3.45605-2.78516,4.7998-.83398,1.34375-1.43945,2.20801-1.82422,2.5918l-2.11133,2.1123c-.38477.38379-.83398.76855-1.34375,1.15137-3.83984,3.07227-7.2002,5.69727-10.08008,7.87305-2.88086,2.17773-4.64062,3.45508-5.28027,3.83984-.38379.12891-1.50586.5459-3.36035,1.24805-1.85645.70508-4.00195,1.50586-6.43164,2.40039-2.43359.89648-4.96191,1.72754-7.58398,2.49609-2.625.76758-4.83301,1.2168-6.62402,1.34375-1.28027.12891-3.1377.38379-5.56738.76758-2.43359.38379-4.77051.73828-7.00879,1.05664-2.24121.32031-4.06543.6084-5.47168.86328-.64258.12891-.95996.25781-.95996.38477l.76855-.19336ZM67.00781,2.64859h5.18457c1.15137,0,2.07812.0332,2.7832.0957.70215.06641,1.44043.09668,2.20898.09668h4.60742c3.71094,0,6.33594.03223,7.87207.0957,1.53613.06641,2.81348.12988,3.83984.19238,1.02246.06641,2.1416.19141,3.36035.38379,1.21484.19238,3.29297.41699,6.24023.67188l.5752.38379-.5752.38477v7.10352c0,.38477-.0332,1.31445-.09668,2.78418-.06543,1.47266-.12891,3.04199-.19238,4.7041-.06543,1.66504-.0957,3.16797-.0957,4.51172s.0625,2.01562.19141,2.01562c.38477.12891,1.53711.22559,3.45703.28906,1.91992.06543,4.03125.0957,6.33594.0957,2.30371,0,4.44531-.03027,6.43164-.0957,1.98242-.06348,3.23047-.16016,3.74414-.28906v-1.34375c0-.89355.0293-1.82422.0957-2.7832.06348-.96094.12695-1.82422.19238-2.59277.06348-.76758.15918-1.15137.28809-1.15137.25488-.25586.38379-1.15234.38379-2.68848s.06348-2.55957.19238-3.07129c0-.25586-.0332-.70312-.0957-1.34473-.06641-.63965-.06641-1.31152,0-2.0166.0625-.70117.2207-1.34375.47949-1.91992.25488-.5752.63867-.92578,1.15137-1.05566.63965,0,1.27832-.03027,1.91992-.0957.63965-.06348,1.27832-.15918,1.91992-.28809.63965,0,1.59961-.0293,2.88086-.0957,1.27734-.06348,2.94336-.03027,4.99219.0957h12.47949c1.66211,0,3.19824.0332,4.6084.0957,1.40625.06641,2.87988.22461,4.41602.48047l2.6875.95996c-.25781.5127-.19141.92969.19238,1.24805.38379.32129.50977.6084.38379.86426-.12891.12891-.19141,1.21777-.19141,3.26367,0,2.04883-.0332,4.32031-.09668,6.81641-.06543,2.49609-.0957,4.89551-.0957,7.19922,0,2.30469-.06641,3.77734-.19238,4.41602-.25781,1.15234-.32031,2.84961-.19141,5.08789.125,2.24121.0625,4.12891-.19238,5.66406-.25781,1.66602-.22559,3.20117.09668,4.6084.31738,1.41016.28711,2.81738-.09668,4.22363l-.95996.38477c-1.02539.25781-2.27344.41602-3.74414.47949-1.47266.06543-2.91309.09668-4.32031.09668-3.07227,0-4.73633.12891-4.99219.38281-3.20117.25781-6.04688.38477-8.54297.38477s-5.2168-.0625-8.16016-.19238h-27.26367c-4.22461.12988-8.92871.09668-14.11328-.0957-5.18359-.19238-11.16797-.28809-17.95117-.28809h-14.97607c-5.50488,0-10.81836-.03027-15.93604-.0957-5.12109-.06348-9.66602-.12695-13.63232-.19238-3.96875-.06348-6.71973-.15918-8.25586-.28809-2.9458-.25488-5.82568-.28809-8.64014-.0957-2.81689.19141-4.73682.0957-5.75977-.28809-1.02588-.63965-1.34424-1.02246-.95996-1.15137v-2.49609c.12598-1.79102.25488-3.77441.38379-5.95312.12598-2.17383.22217-4.22363.28809-6.14355.06299-1.91992.09619-3.07129.09619-3.45605.12598-.76758.25488-2.40039.38379-4.89648.12598-2.49609.28809-5.08789.47998-7.77539s.47998-5.11816.86426-7.2959c.38379-2.1748.89404-3.38965,1.53564-3.64746,1.40723-.51074,3.96631-.73633,7.68018-.67285,3.71094.06641,7.35889.09668,10.94385.09668,4.99219.12891,8.51123.06543,10.56006-.19238,2.04639-.25488,3.39014.32129,4.03223,1.72754.63916.64258.92676,1.76172.86377,3.36035-.06592,1.60254-.28809,2.78418-.67188,3.55176,0,.25781-.06592.92969-.19189,2.01562-.12891,1.08984-.19189,2.24219-.19189,3.45703,0,1.21777.02979,2.33594.0957,3.35938.06299,1.02637.22217,1.53613.47998,1.53613.51025,0,1.88721.0332,4.12793.09668,2.23828.06543,4.63818.0957,7.2002.0957,2.55908,0,4.92578-.03027,7.104-.0957,2.1748-.06348,3.58203-.16016,4.22412-.28906.12598-.38281.22168-1.31055.28809-2.7832.06299-1.4707.15869-3.03906.2876-4.7041.12598-1.66211.22217-3.16895.28809-4.5127.06299-1.34375.15918-2.07812.28809-2.20703.12598-.25586.19189-.19238.19189.19141v-4.41602c0-1.02344.03027-1.94922.09619-2.7832.06299-.83203.22217-1.31152.47998-1.44141l-.19189-.19141.19189-.38379h1.53613l.38379-.19238ZM8.63965,137.62516c-.76758-.12695-1.34375-.12695-1.72803,0-.6416,1.28125-.76758,2.36914-.38379,3.26367l2.49609-.57617-.19189-1.34375.57568-.76758-.76807-.57617Zm-.95996-42.04883l.19238.76855c.89355.25781,1.79102.32129,2.68799.19238.89355-.12695,1.72803-.31836,2.49561-.57617l-.19189-.38477c-1.53613.38477-2.9458.19238-4.22412-.57617l-.19189-.38281-.76807.95898Zm5.37598-20.35156c-.76758,1.66504-1.02588,3.20117-.76758,4.60742l.76758-1.15137.95996-.95996.76807-2.6875-.19189-.19238-1.53613.38379Zm-.57568-37.63184l.19189.95996.38379.19141,2.3042-.5752-1.34424-.76855-.38379-.19141-1.15186.38379Zm1.15186,5.95215l3.26416.95996h.57568c-.5127-.12598-.70459-.44727-.57568-.95996h-1.53613l-.19189-2.1123-1.53613,2.1123Zm1.72803-34.36816l.38379-.19238h-1.53564l1.15186.19238Zm2.3042,129.79199l.19189-.57617-.19189-.19141-.76807.19141.76807.57617Zm7.104-74.6875c-.76807,0-1.12207-.03125-1.05615-.09668.06299-.06348-.354.0332-1.24805.28809l.38379.57617,1.53613-.19141.38428-.57617Zm-.19238-33.60059l.57617.38379.76807-.19141-.19189-.38477-.95996-.19141-.19238.38379Zm.19238,54.91211h.95996l.38379-.38379-.19189-.19238-1.34424.38379.19238.19238Zm4.03174-.19238l.19189-1.15234-.38379-.19141-.19189.95996.38379.38379Zm19.77588,51.64844c-2.17773,0-3.71387-.03027-4.60791-.0957-.89697-.06348-1.76074-.0957-2.5918-.0957-.83398,0-1.85693.06543-3.07227.19141-1.21777.12891-3.16797.32031-5.85596.57617l.19189.57617c2.68799.12891,5.37598.12891,8.06396,0,2.68848-.12695,5.31006-.38477,7.87207-.76855l.19238-.19238-.19238-.19141Zm-9.02393-44.92773c-.89697.12891-1.53613.19141-1.91992.19141s-.76807.19238-1.15186.57617l.19189,1.15234h3.26416l.57568-1.53613-.76807-.19238-.19189-.19141Zm-2.11182-47.23242l.38379.19141,2.87988-.38281.76807-.19238h-1.34375l-.19189-.19238-2.49609.57617Zm24.95996,63.35938v.57617l.76807-.76758.76807-2.49609-.76807-.76758-.76807,3.45508Zm15.16748-38.39941l-4.60742,1.34473.19141.19141c.63965.25781,1.15234.25781,1.53711,0,.50977,0,.89355.06641,1.15137.19141.25488.25879.60645.22559,1.05566-.0957.44727-.31836.86426-.60547,1.24805-.86328l-.19141-.76855-.19238-.19238-.19238.19238Zm2.68848-58.75195l3.83984.76855.38379-.38477-.95898-.57617-1.72852-.19141h-1.91992l.38379.38379Zm7.68066,102.71973c-.64258-.25488-1.28125-.25488-1.9209,0,.51074,1.15234,1.27832,1.41016,2.30371.76855l-.38281-.76855Zm-.76855-9.79102c-.76855,1.28027-.89746,2.36914-.38379,3.26367l.57617-.57617v-2.30469l-.19238-.38281Zm3.07129-94.08008l.76855.38281.57617-.19141-.19238-.38379h-.38379l-.76855.19238Zm.57617,65.85547l.38477-.38477-.38477-.19141-.57617.19141.57617.38477Zm23.04102.19141h-1.34473c-.38379,0-.70508.12891-.95996.38477l.19141.19141h2.11328l.38281-.19141-.38281-.38477Zm5.75977-39.55078l-.38477.5752c.89453.38379,1.9834.38379,3.26367,0v-.5752l-.19141-.19336-2.6875.19336Zm9.4082,64.70312l.19141.38477c.50977-.12695,1.27734-.44727,2.30469-.96094l1.91992-2.30371-.38477-.19238-4.03125,3.07227Zm8.83203-10.36719l.5752.5752.76855-1.53613-.57617-.19141-.76758,1.15234Zm2.87891-24.76855c-.6416,0-.99219-.03027-1.05566-.09668-.06543-.0625-.6084.0332-1.63184.28906l.19141.38379c.76855.12891,1.66211,0,2.68848-.38379l-.19238-.19238Zm-.57617,41.28027l.76855-.76855-.38379-.19238-.76758.38477.38281.57617Zm3.45703-34.36816h-1.53613l-.57617.38379.76855.76758,3.45508-.76758-.19141-.19141h-1.72852l-.19141-.19238Zm4.60742-37.24805c-1.15234.25781-1.28125.5752-.38379.95996l.95996-.95996h-.57617Zm1.53613-4.41602c-.5127.6416-.92969,1.18457-1.24805,1.63184-.32129.4502-.22559.80078.28809,1.05664l1.15234-.19238v-2.49609h-.19238Z"/>
      <path class="cls-1" d="m339.07129,3.99234c2.30469.12891,3.58203.12891,3.83984,0,.25586-.125.41406-.19141.48047-.19141.06348,0,.41406.0957,1.05664.28809.63867.19238,2.42969.6084,5.375,1.24805.89453,3.3291,1.63281,6.91113,2.20898,10.75195.57617,3.83984,1.05566,7.3916,1.43945,10.65527.38477,3.26465.63867,5.98535.76758,8.16016l.19238,3.26465c-.12891,1.02637-.16113,2.14551-.0957,3.36035.06348,1.2168.19238,2.30273.38379,3.26367.19141.95996.35156,1.60156.48047,1.91992.125.32031.19141-.03027.19141-1.05664l1.15234,11.52051c.38379,1.53613.44727,3.33008.19141,5.37598-.25781,1.28125-.41602,2.75391-.47949,4.41602-.06543,1.66504-.12891,3.13867-.19238,4.41602-.06543,1.28125-.06543,2.17773,0,2.6875.06348.51367.22266.19238.48047-.95898v18.04688c0,7.04102.0625,10.75195.19141,11.13672.12695.38379.16016.86328.09668,1.43945-.06641.57617-.16211.92969-.28809,1.05664v1.15234c0,.51172.0625,1.08789.19141,1.72754,0,1.40918-.06543,2.24121-.19141,2.49609v3.64746c0,.76855.0293,1.56934.0957,2.40039.0625.83398.0957,1.43945.0957,1.82422,0,.76758.03027,2.36914.09668,4.7998.06348,2.43262.0957,5.05762.0957,7.87207v11.32812c-.12891,1.02539-.19238,1.91992-.19238,2.6875v2.49609c-.38281.25488-.89648.48047-1.53516.67188-.64258.19238-1.31445.35156-2.01562.48047-.70508.12598-1.31445.22168-1.82422.28711-.51367.06348-.76855.03125-.76855-.0957-.6416.12695-1.95312.25586-3.93652.38477-1.98535.125-4.22363.22168-6.71875.28711-2.49609.06348-5.08887.09668-7.77734.09668-2.6875,0-5.12012-.06641-7.29492-.19238-4.09863-.38379-7.58398-.41699-10.46484-.0957-2.87891.31836-5.60059.0293-8.16016-.86426l-.5752-1.15137c.25488-.64258.44629-1.95312.5752-3.93652.12695-1.9834.19238-3.55176.19238-4.7041,0-2.81445.28809-5.85547.86426-9.11914.57617-3.26465,1.05664-6.55859,1.43945-9.88867-.76758-.25488-1.66406-.15918-2.6875.28809-1.02539.4502-1.85742.67188-2.49609.67188-1.15234,0-1.72852.06543-1.72852.19238-2.43262.12891-4.99121.16211-7.67969.0957-2.6875-.0625-4.60742-.22266-5.75977-.48047-.76758-.125-2.625-.0625-5.56836.19238-2.94531.25781-6.65625.4502-11.13574.57617l-26.1123.76855c-1.79297,0-3.61719.0957-5.47168.28711-1.85645.19238-2.91309.28809-3.16797.28809,0,.5127-.06543,1.91992-.19238,4.22363-.12891,2.30469-.22461,4.7373-.28711,7.29688-.06641,2.56152-.19238,4.92871-.38477,7.10352-.19141,2.17773-.41602,3.39258-.67188,3.64844l-2.11133,4.99219-.19238-.19238c-2.94629,0-4.7998-.0332-5.56738-.09668-.76855-.06543-1.34473-.12891-1.72852-.19141-.38477-.06641-1.02637-.0957-1.91992-.0957-.89746,0-2.88086.125-5.95215.38379-.76855,0-1.88965-.0332-3.36035-.09668-1.47266-.06543-2.97559-.12891-4.51172-.19141-1.53613-.06641-3.07227-.16211-4.60742-.28809-1.53711-.12891-2.81738-.25781-3.84082-.38379-.89746-.12891-2.04883-.19238-3.45605-.19238-1.41016,0-2.7832-.03223-4.12793-.0957-1.34375-.06543-2.56152-.12891-3.64746-.19238-1.08984-.06641-1.69824-.28711-1.82422-.67188-.12891-.64258-.51367-1.47266-1.15234-2.49609.38477-6.14355.76758-10.10938,1.15234-11.9043l.57617-3.07129,1.72754-27.64844,3.64746-24.38379c.89453-4.99219,1.56641-8.79883,2.0166-11.42383.44727-2.62207.79785-4.95898,1.05566-7.00781.25586-2.04688.48047-4.22461.67188-6.52832.19238-2.30371.60645-5.63086,1.24805-9.9834.25586-2.30469.57617-4.63867.96094-7.00879.38379-2.36621.76758-4.6377,1.15137-6.81543l1.34473-6.33594c.38281-1.91992.63867-3.51953.76758-4.80078.12598-1.53516.28809-2.6875.48047-3.45508.19141-.76855.41406-1.4082.67188-1.91992.25391-.51074.50977-.99023.76758-1.44043.25488-.44727.50977-1.11914.76758-2.0166,6.39941-1.40625,9.79297-1.79102,10.17578-1.15234,2.43066-.125,5.02246-.31738,7.77734-.5752,2.75-.25488,5.40527-.51074,7.9668-.76855,2.55957-.25391,4.95898-.47949,7.20117-.67188,2.2373-.19141,4.06152-.28711,5.4707-.28711h7.10449c2.81348,0,5.56836.03223,8.25684.0957,2.6875.06641,5.18359.0957,7.4873.0957h5.75977c1.40723,0,2.1416-.0293,2.20801-.0957.0625-.06348-.60938-.15918-2.01562-.28809h18.04785c4.35059,0,6.97559-.06348,7.87207-.19238.89453-.12598,1.72852-.19141,2.49609-.19141h2.6875c1.02344.12891,2.78418.25781,5.28027.38379,2.49609.12891,4.7666.19238,6.81543.19238.76855,0,2.33398-.06348,4.70508-.19238,2.36719-.12598,4.79883-.28809,7.29492-.47949,2.49609-.19336,4.76758-.35156,6.81641-.48047l3.07227-.19238.19141-.19238Zm-143.03906,138.43262l.19141.38379.96094-.38379-.19336-.57617-.19141-.19238-.76758.76855Zm5.95117-51.45605l-.38379,2.49609,1.53613.76758c.12598-.50977.22266-1.08594.28809-1.72754.06348-.63965.22168-1.27832.47949-1.91992l-.38281-.19238-1.53711.57617Zm1.15234,43.96777l.95996.57617.76855-.57617h-1.72852Zm.38477-13.05566l1.53516,1.15234c.63867-.63965.89453-1.11914.76758-1.44043-.12891-.31738-.51172-.79785-1.15137-1.44043l-.38379-.19141-.76758,1.91992Zm3.64746,21.50391l.5752.19141.19336-.19141-.19336-.19141-.5752.19141Zm6.71973-85.24805l.19238.19141.19238-.19141-.19238-.19141-.19238.19141Zm.57617,41.08789c-.38379,1.02539-.32031,1.98633.19141,2.87988l.38477-.38379-.38477-2.30469-.19141-.19141Zm.19141,36.67188l.38477.57617.38379-.57617-.19238-.19141-.57617.19141Zm1.15234-46.08008l.19238.19238.19238-.19238-.19238-.19141-.19238.19141Zm9.2168-76.99219c-.64258,0-1.18555.0332-1.63281.09668-.44922.06543-.92969.16113-1.43945.28809l1.15234.57617,1.91992-.57617.19141-.19238-.19141-.19238Zm3.07129,49.34473c-.12891.76758-.06543,1.60156.19238,2.49512.50977-.50977.89355-1.46875,1.15234-2.87891l-.38477-.19238-.95996.57617Zm3.45605-19.96777c-.5127,2.30371-.5127,3.71289,0,4.22363.12598-.25488.19141-1.59863.19141-4.03223l-.19141-.19141Zm.57617-3.64844c-.89648.76758-1.08887,1.60156-.57617,2.49609l.38477-.19141.38281-2.11328-.19141-.19141Zm4.41602-5.18359l.38379.38379,1.15234-.19238-.19238-.76758-.76758-.19238-.57617.76855Zm73.53613,45.31152c-.76855.12891-1.76074.16211-2.97559.09668-1.21875-.06348-2.14551-.03125-2.78516.0957-.76758.12891-2.81641.19141-6.14355.19141h-23.42383c-4.22363,0-7.61719.06641-10.17676.19238-3.71289.12891-6.59375.22559-8.63867.28809-2.0498.06641-3.33008.0332-3.84082-.0957-1.15137-.12695-1.98535-.12695-2.49609,0l-4.6084.38281c-.6416.12988-1.2168.19336-1.72754.19336h-1.53613c-.5127,0-1.02539.06543-1.53516.19141,0,.38379-.06641,1.34375-.19238,2.87988-.12988,1.53613-.22559,3.16797-.28809,4.89551-.06641,1.72852-.0957,3.29688-.0957,4.70508v2.30273c.50977.12988.95898.19336,1.34375.19336h1.34375c.89453,0,1.40723-.06348,1.53613-.19336l4.6084-.38281c1.40625-.25586,3.07227-.25586,4.99219,0,1.27734.12891,2.97559.16211,5.08789.0957,2.11133-.0625,4.34961-.19238,6.71973-.38477,2.36621-.19141,4.6709-.38281,6.91113-.5752,2.23828-.19238,4.12891-.35059,5.66406-.47949,2.68848-.25586,5.31055-.41406,7.87305-.48047,2.55859-.06348,5.11719-.03027,7.67969.0957.76758.12891,2.11133.19141,4.03125.19141s3.9043-.0293,5.95312-.0957c2.04492-.0625,3.90234-.19141,5.56738-.38379,1.66211-.19238,2.55957-.41406,2.68848-.67188l.19141-12.28809-1.53516-.76758-.19238-.19238Zm3.83984-42.04785c-.89746.12891-2.14551.22461-3.74414.28809-1.60254.06543-3.04199.22461-4.31934.47949-1.15234.38477-3.33008.57617-6.5293.57617-3.2002,0-6.71875-.0293-10.55859-.0957-3.84082-.0625-7.61719-.15918-11.32812-.28809-3.71484-.12598-6.6582-.19238-8.83203-.19238-2.17871,0-4.12891-.0293-5.85645-.0957-1.72754-.0625-3.48926-.0957-5.28027-.0957-1.79395,0-3.68066.06641-5.66406.19141-1.98633.12891-4.19336.4502-6.62305.96094-.76855,4.86523-1.02734,9.02344-.76855,12.47949,1.02246-.12598,2.0459-.22168,3.07129-.28809,1.02344-.0625,2.1123-.0293,3.26465.0957,2.0459.12891,2.62207,0,1.72754-.38379,2.04688-.12598,3.80664-.19238,5.28027-.19238,1.46973,0,2.87988.06641,4.22363.19238,1.34375.12891,2.75195.22559,4.22461.28809,1.46973.06641,3.23047.0957,5.2793.0957h2.68848c1.79102-.125,3.96582-.25488,6.52832-.38379,2.55859-.12598,5.37598-.22168,8.44727-.28809,3.07227-.0625,5.88672-.1582,8.44824-.28711,2.55957-.12695,4.73438-.19336,6.52832-.19336l2.6875-.19141c.12695,0,.60645-.0293,1.44043-.0957.83105-.06348,1.69434-.0957,2.5918-.0957h2.30371l1.15234-.19238v-12.09668l-.38379-.19141Zm-69.50391,30.33594l.19238.38379c.63867,0,1.21484-.25488,1.72754-.76758l-.38379-.19238-1.53613.57617Zm11.13574,49.72852c-1.91992,0-3.35938-.06348-4.32031-.19238-.95898-.12598-1.76074.12891-2.39941.76855l.19238.5752c3.19727.25879,6.46094.06543,9.79102-.5752l-.19141-.19336h-2.88086l-.19141-.38281Zm-1.53613-53.95312c-1.02637,0-1.72754.06641-2.1123.19238l.38477.57617,1.72754-.19238.19238-.38379-.19238-.19238Zm.19238-47.42383l.57617.38477.38379-.38477-.38379-.19141-.57617.19141Zm1.15234-.19141l.95898.19141.38477-.19141-.38477-.19238-.95898.19238Zm4.60742,52.22363l.38477.19238.19141-.19238-.19141-.19238-.38477.19238Zm21.69629-47.80762c-1.66504,0-2.81738.06641-3.45605.19141l.19141.19238h3.26465l.19238-.19238-.19238-.19141Zm2.68848,35.32812c-1.02734,0-2.17871.12891-3.45703.38379l.19238.19238h3.26465l.19141-.19238-.19141-.38379Zm15.16797.38379l.38281.19238c1.02344.12891,2.04688.16211,3.07227.0957,1.02344-.0625,2.1123-.22266,3.26367-.48047l-.5752-.19141-.19238-.19238-5.95117.57617Zm.76758,16.31934l.38379,2.11328c.63965.12891,1.59863.06543,2.87988-.19336l-1.91992-2.11133-.19141-.19141-1.15234.38281Zm12.67188,72.76855l.38379.57617.76855-.57617c-.12891-.50977-.22559-1.02246-.28906-1.53613-.06543-.50977-.03223-1.08594.09668-1.72852l-.19238-.19141-.76758,3.45605Zm.57617-89.47168l.19141.19141.19238-.19141-.19238-.19238-.19141.19238Zm8.25586,3.26367c-.12891.89648-.06641,1.98633.19141,3.26367.25586-.50977.41406-1.02246.48047-1.53516.0625-.51074.15918-1.08594.28809-1.72852l-.19238-.38379-.76758.38379Zm.19141,39.74414l.38477.57617.19141-.57617-.19141-.38477-.38477.38477Zm0,12.0957l.38477.76758.19141-.76758-.19141-.19141-.38477.19141Zm0,13.24805c0,1.02539.19238,1.98633.57617,2.87988.25586-.63867.44727-1.27832.57617-1.91992l.38477-1.91992-.19336-.19238-1.34375,1.15234Zm.57617,19.00781l.19238.57617.19238-.57617-.19238-.19141-.19238.19141Zm6.7207-75.64746l.19141.38379v-.57617l-.19141.19238Zm.19141-.57617l.19238-1.91992.19238-.38379-.19238-.38477-.19238,2.68848Zm6.52832-4.7998l.19238.19141.19141-.19141-.19141-.19238-.19238.19238Zm2.30371,34.75195l.38477.57617.19141-.19238-.19141-.38379-.19336-.19238-.19141.19238Zm3.26367-2.1123c.38477.6416.96094.76855,1.72852.38379l-.76758-.95898-.57617-.19336-.38477.76855Zm.38477-82.75195l.57617.38379.19141-.57617-.19141-.38379-.57617.57617Zm1.53516,49.15137l.38477.76855.76758-1.53613-.38379-.19141-.76855.95898Zm1.15234,18.625l1.34375,2.6875.57617-2.11133-1.34375-.57617-.19141-.19238-.38477.19238Zm1.15234,50.11133l.57617.19238,1.72754-.76855-.5752-5.18359-.19336-.19141-1.53516,5.95117Zm2.49609-19.58398l.38379,1.15234.95996-1.15234-.19141-.19141-.38477-.19238-.76758.38379Z"/>
      <path class="cls-1" d="m438.33594,2.64859c.25488.51367.38379.96094.38379,1.34375,0,.38477.12598.83398.38477,1.34473v1.15137c0,.64258.0625,1.41016.19141,2.30469.12598.89648.19141,1.72754.19141,2.49609l.19238,1.15234c.25488,0,.63965-.12695,1.15234-.38477l2.87988-.38379c1.66211-.12598,2.91016-.06348,3.74414.19238.83008.25781,1.75781.70508,2.7832,1.34375,0,.89648-.06543,2.7832-.19141,5.66406-.12891,2.87988-.28809,6.04785-.48047,9.50391-.19141,3.45508-.44922,6.91211-.76758,10.36719-.32031,3.45703-.67188,6.21094-1.05664,8.25586l-1.15137,2.30469c-.12891.25781-.6416,1.34375-1.53613,3.26367-.89648,1.91992-1.88965,4.16113-2.97559,6.7207-1.08887,2.56152-2.20801,5.18359-3.36035,7.87109-1.15234,2.68848-2.04883,4.92969-2.6875,6.7207l.19141.38379c2.17578.89746,4.22461,1.44043,6.14453,1.63184,1.91992.19238,3.26367.92969,4.03125,2.20801l.19238,2.30371c.12598,1.53711.25488,3.29688.38379,5.28125.12695,1.98535.28809,3.90527.48047,5.75977.19141,1.85645.28711,3.10449.28711,3.74414.12695,3.2002.25586,5.79297.38477,7.77539.12598,1.98633.19141,3.71387.19141,5.18359,0,1.47266-.06543,2.85059-.19141,4.12891-.12891,1.28027-.4502,2.75391-.95996,4.41602-.89746.89648-1.79395,1.37695-2.68848,1.43945-.89648.06641-1.98633-.0293-3.26367-.28809-1.02539-.25488-1.72852-.41406-2.11133-.47949-.38477-.06348-.67285-.06348-.86523,0-.19141.06543-.44922.12891-.76758.19141-.32031.06641-.99219.0957-2.01562.0957,0,.25781.0293.76855.0957,1.53711.0625.76758.15918,1.79297.28809,3.07129.12598,1.28125.19238,2.56152.19238,3.83984v3.84082c0,.89648.0293,2.17773.0957,3.83984.0625,1.66406.12598,3.29688.19141,4.89551.06348,1.60254.09668,3.04199.09668,4.31934,0,1.28125-.06641,1.98438-.19238,2.11328-1.02539.25391-1.79395.83008-2.30371,1.72754-.12891.12598-1.08887.25488-2.87988.38379-1.79492.12598-4.03223.25488-6.7207.38477-2.6875.125-5.63281.25391-8.83203.38281-3.20117.12695-6.17578.19238-8.92773.19238-2.75391,0-5.08789.03027-7.00781.09668-1.91992.0625-3.00879.0293-3.26367-.09668l-1.15234-.95996c0-.12891.0957-1.31445.28809-3.55176.19238-2.23828.38379-4.7334.57617-7.48828.19238-2.75098.38379-5.40527.5752-7.96777.19336-2.55859.35156-4.1582.48047-4.80078.25586-2.04492.44727-3.96484.57617-5.75977.12598-1.79102.19141-3.64746.19141-5.56738l-7.4873,7.87207-4.41602,3.45508-2.1123-.95898c-.12891-.63867-.25781-1.59961-.38379-2.88086-.12891-1.27734-.28809-2.5918-.47949-3.93555-.19238-1.34375-.35449-2.62207-.48047-3.83984-.12891-1.21484-.19141-2.14258-.19141-2.78418l-.57617-3.07129c-.25781-2.04688-.57617-4.35059-.96094-6.91211-.38281-2.55957-.76758-4.86328-1.15137-6.91211l-.38379-3.07227,1.91992-1.15234c6.52734-7.03711,11.64551-12.70117,15.35938-16.99219,3.71094-4.28711,6.14453-7.19922,7.29688-8.73535,1.15137-1.40723,2.52539-3.19824,4.12695-5.37598,1.59961-2.17578,3.29492-4.6084,5.08789-7.29688l-.19141-.38281-2.6875.38281c-1.66602.12891-3.48926.28906-5.47266.48047-1.98633.19238-3.80957.35352-5.47168.48047l-2.30371.19141c-3.71484.38477-6.88281.64258-9.50391.76758-2.625.12988-4.25781,0-4.89648-.38281-.25781-.76855-.25781-2.78516,0-6.04883.25488-3.26367.63867-6.75,1.15234-10.46387.50977-3.71094,1.05566-7.22949,1.63184-10.55957.5752-3.32715,1.05566-5.37598,1.44043-6.14453l-.19336-.95898c.25586,0,.63965-.06348,1.15234-.19336.50977,0,1.40723-.125,2.68848-.38281,1.15137-.12695,2.36621-.31836,3.64746-.57617,1.40723-.12695,2.75195-.25586,4.03223-.38477,1.02344-.125,1.9834-.22168,2.87988-.28711.89453-.06348,1.4707-.16016,1.72852-.28906-.51367-1.02246-.54688-1.94922-.0957-2.7832.44629-.83105.99023-1.75781,1.63086-2.78418l14.0166-2.87988c.38379-.12598,1.18262-.35156,2.39941-.67188,1.21582-.31836,2.62305-.70215,4.22461-1.15234,1.59961-.44727,3.26367-.86328,4.99219-1.24805,1.72852-.38379,3.35938-.70117,4.89648-.95996l.19141-.38379,3.45605.76758Zm-52.7998,87.93652c-.38477,1.02637-.38477,1.79395,0,2.30371.125-.38379.19141-1.02344.19141-1.91992l-.19141-.38379Zm2.30371,10.36816c-.5127,1.28125-.25781,2.24023.76855,2.87891l.57617-.95898-1.15234-1.72852-.19238-.19141Zm2.1123-53.95312l-.38477.38477.38477.57617,4.7998-.96094.38379-.5752-.19141-.19238-4.99219.76758Zm5.18359-11.32715l.19141.38379.19336-.38379-.19336-.19238-.19141.19238Zm2.6875,4.99121v1.34473c.51074.38379,1.15234.38379,1.91992,0l-1.53516-1.53613-.38477.19141Zm4.80078,92.54492c-.12891.89648-.16211,1.76074-.0957,2.5918.0625.83398.1582,1.56836.28711,2.20801.12695-.63965.22266-1.37402.28906-2.20801.0625-.83105.2207-1.69531.47949-2.5918l-.19238-.19238-.76758.19238Zm2.11133-60.67188c-.89648.89648-1.60156,1.79297-2.11133,2.6875.50977.38477,1.21484.38477,2.11133,0l.19238-2.49609-.19238-.19141Zm-1.15137-48.96094l1.15137.38477.19238-.38477-.19238-.19141-1.15137.19141Zm1.34375.38477l.76855.19141.19141-.19141-.19141-.38477-.76855.38477Zm10.55957,15.35938c-1.15137,0-1.98535.06641-2.49609.19238l.19336.95996c.89258,0,1.79004-.25488,2.6875-.76758l-.38477-.38477Zm.76855,24l.57617.38477-.19238.76758.57617.76758.38379-2.30371-.19238-.19238-1.15137.57617Zm.57617,74.30469l.19238.19141.19141-.19141-.19141-.19238-.19238.19238Zm1.53613-12.48047l.38379,1.15234.5752-.76758-.19141-.38477-.19141-.19141-.57617.19141Zm2.49609,1.15234l.19141.38379h1.53613l.57617-.38379-.57617-.38477-.76855-.19141-.95898.57617Zm1.34375-95.80859l.19141.76855.96094-.76855-.19238-.57617-.38379-.19141-.57617.76758Zm4.03125,79.10449l.19238.19238.19238-.19238-.19238-.19238-.19238.19238Zm2.11328-71.23145l-1.53711,3.64746.38477.38379,1.53516,1.15234,1.72852-4.6084-.57617-.19238-.19141-.38281h-1.34375Zm5.95117,63.93555l.19141.57617.19336-.19238-.19336-.57617-.19141.19238Zm.19141-.38477l.19336.38477.19141-.19238-.19141-.38379-.19336.19141Zm.38477-12.28711c-.38477,1.02539-.32031,1.85742.19141,2.49609l.19238-.19238-.19238-2.1123-.19141-.19141Zm-.19141,12.0957l.19141.19141.19141-.19141-.19141-.19141-.19141.19141Zm7.87109,5.18359c-.5127.89746-.76758,1.85742-.76758,2.88086l.57617.38379.38379-.19238.38379-1.91992-.38379-.95996-.19238-.19238Zm7.29688,14.0166l-.19238-.19238h.19238c-.38477-3.83984-.41797-7.35938-.09668-10.55957.31738-3.19824.54297-7.2959.67188-12.28809,0-.89453.06348-2.6875.19238-5.37598.12598-2.68848.22168-5.85645.28711-9.50488.06348-3.64746.16016-7.58398.28906-11.80664.125-4.22461.25488-8.28711.38379-12.19336.12598-3.90234.22168-7.4873.28809-10.75195.0625-3.26367.0957-5.78906.0957-7.58398,0-1.53516.0625-3.10156.19141-4.70312.12695-1.59961.31836-3.10156.57617-4.51172.25586-1.4082.54297-2.62305.86426-3.64844.31836-1.02344.67285-1.66211,1.05566-1.91992.76855-.63867,1.4707-1.05664,2.11328-1.24805.63867-.19141,1.27734-.28809,1.91992-.28809h2.49609c1.02246,0,2.2373-.12598,3.64746-.38379l9.9834-.38477c1.27832,0,2.49609-.0293,3.64844-.0957,1.15234-.0625,2.23828-.1582,3.26367-.28711,1.15234-.12695,2.17578-.19336,3.07227-.19336-.12891-.125-.19141-.38281-.19141-.76758,0-.38379.0625-.70117.19141-.95898,0-.12695.0625-.92773.19141-2.40039.12695-1.4707.28906-3.03906.48047-4.7041.19238-1.66211.41406-3.23145.67188-4.7041.25586-1.4707.50977-2.27148.76758-2.40039.89453-.50977,2.68848-.67188,5.37695-.47949,2.6875.19238,5.75977-.22168,9.21582-1.24805l2.1123-.38379c1.40625-.25586,2.97559-.54297,4.70312-.86426,1.72852-.31836,3.32812-.63965,4.80078-.95996,1.46973-.31836,2.27051-.48047,2.40039-.48047l.19141-.19141h2.87988c.38379,1.02539.86426,1.76074,1.44043,2.20703.57617.45117.73438,1.12305.47949,2.0166-.12891.5127-.12891,1.47363,0,2.87988.12598,1.41016.31836,2.94629.57617,4.6084.25488,1.66504.50977,3.26367.76855,4.7998.25391,1.53613.50977,2.6875.76758,3.45605,3.32617-.12598,7.23047-.19238,11.71191-.19238h11.90332l.38477.38477c.12598,0,.50977.19141,1.15234.57617l1.72754.76758c.25488.89648.51074,2.11133.76855,3.64844.63867,4.22266,1.18164,9.59961,1.63086,16.12695.44727,6.52832.86523,13.44043,1.24805,20.73633.38477,7.2959.70312,14.6875.96094,22.17578.25391,7.48828.44727,14.27441.57617,20.35156.125,6.08203.2207,11.20312.28711,15.36133.0625,4.16016.0957,6.56055.0957,7.19922-.76758.38477-2.17773.60938-4.22266.67188-2.0498.06641-3.64844-.0293-4.80078-.28711-.64258-.12695-2.11133-.19238-4.41602-.19238h-7.10352c-2.5625,0-4.89648.03223-7.00781.0957-2.11328.06543-3.42676.09668-3.93652.09668-.12891,2.56152.0957,5.18359.67188,7.87109.57617,2.68848.92676,5.31348,1.05566,7.87305l-.76758.5752.19141,1.91992c-.12891.12598-1.08789.19238-2.87891.19238h-11.9043c-1.91992,0-3.20117.0625-3.83984.19141l-8.06445.57617h-1.53613l-1.15137.19238c-1.41016.12598-2.94629.15918-4.6084.0957-1.66504-.06543-2.81738-.22559-3.45605-.47949l-.19141.19141-.76855-.38379c-.5127-.12891-1.05566-.28809-1.63184-.47949-.57617-.19238-1.12207-.41797-1.63281-.67188l-.76758-.19336c-.25781-.89648-.38379-2.36914-.38379-4.41602,0-2.04492.06348-4.12695.19238-6.23926.125-2.1123.25391-3.99902.38281-5.66406.12695-1.66211.19336-2.55957.19336-2.68848h-10.36914c-1.79297,0-3.07129-.0625-3.83984-.19141-1.02539,0-2.30371.06641-3.83984.19141-1.53516.12891-3.1377.25781-4.7998.38477l-4.7998.19141c-1.53613,0-2.75391-.0625-3.64844-.19141-.5127-.63867-.83398-1.40723-.95996-2.30469-.12891-.89355-.25781-1.98242-.38379-3.26367-.12891-.63867-.19141-1.15234-.19141-1.53516v-.76855Zm13.24805-86.59277l.38281.38477,3.26465-.38477-.76855-.19141-2.49609-.19141-.38281.38281Zm.5752,22.27246l2.68848,1.34473.76758-1.34473h-3.45605Zm5.56836-27.83984c-1.41016,0-2.43262.06543-3.07227.19238.89355.6416,1.85449.83398,2.87988.57617l.38477-.57617-.19238-.19238Zm-.95996,20.92871l1.53516.5752-.19141-.19238-1.53613-.57617.19238.19336Zm.19141-10.17676l.19238.76855.38379-.57617-.38379-.38477-.19238.19238Zm.19238,64.7041c-.25781,1.02539-.12891,1.85742.38379,2.49609l.95996-.38477-.38379-2.11133-.19141-.38477-.76855.38477Zm0-65.08789l.38379.38379.19238-.19238-.19238-.38379-.38379.19238Zm.38379-.38477l.19238.38477.19238-.19238-.19238-.5752-.19238.38281Zm.19238-.38281l.19238.38281.19141-.38281-.19141-.19238-.19238.19238Zm3.26367,17.2793c-.25781.64258-.12891,1.21875.38379,1.72852.12695-.38477.19238-.96094.19238-1.72852l-.19238-.19141-.38379.19141Zm5.76074,63.35938c.125.12988-.25879.25879-1.15234.38477l.19141.19141,2.88086-.19141.38281-.38477h-2.30273Zm1.15137-31.4873c0,1.53613-.06543,3.00879-.19238,4.41602-.12891,1.41016-.12891,2.81738,0,4.22363,1.02344.12891,2.30469.12891,3.83984,0,1.53711-.125,2.94336-.31738,4.22461-.57617-.12891-1.40625-.06641-2.81348.19141-4.22363.25586-1.40723.38477-2.81348.38477-4.22363l-.19238-.19238-8.25586.57617Zm9.02441-33.79199c-1.02637.25781-2.20898.41699-3.55273.48047-1.34375.06543-2.5293.0957-3.55176.0957,0,1.41016-.16211,3.20117-.47949,5.37598-.32129,2.17773-.35449,3.96875-.0957,5.37598h1.34375c.125,0,.54297-.03027,1.24805-.0957.70117-.06348,1.18164-.15918,1.43945-.28906-.12891.12988.38477.12988,1.53613,0,1.15137-.125,1.66211-.19141,1.53613-.19141l.76758-10.36816-.19141-.38379Zm-6.33594,62.97656l.19141.38281c.76758.25879,1.40723.19336,1.91992-.19141l-.19141-.19141h-.96094l-.19141-.19238-.76758.19238Zm.19141-87.36035l.19141.38379c.63965.64258,1.34473.70508,2.11328.19141l-.19238-.5752h-2.1123Zm7.87207,88.31934l.38379.19238.19238-.19238-.19238-.19141-.38379.19141Zm5.56738-59.13574l-1.15137,1.34473.57617,2.11133,2.1123-.76758-1.15234-1.91992-.38477-.76855Zm.19336-28.03223l1.53516-1.34375-1.15234-.76758-.95898,1.34375.57617.76758Zm0,12.09668c.63867.38379,1.15137.38379,1.53516,0l-.38379-.76855-1.15137.76855Zm.19141-33.21582l.57617.19141.19141-.76758-.19141-.19238-.57617.76855Zm1.72852,53.18359l-.76855.19141.57617.57617h.19238l.38281-.57617-.19141-.19141h-.19141Zm-.57617.19141l.38379.57617.38379-.57617-.19141-.19141-.57617.19141Zm.76758-43.77539l-.38379,1.53613.19238.19238.38281-1.72852-.19141-.38379-.19141.19238v-.19238c-.64258,1.02637-.70508,1.72754-.19238,2.1123v-.19238c-.25879-.25488-.19238-.83105.19238-1.72754l.19141.19141Zm1.15234,117.3125c-.25781.25781-.32129.54492-.19238.86328.12598.32129.25488.67188.38379,1.05664l1.15234-1.53711-.38477-.38281h-.95898Zm1.53516-6.91211c-.38281.12891-.57617.22461-.57617.28711,0,.06641-.12891.16211-.38281.28906l.38281.38281.76855-.76758-.19238-.19141Zm-.57617,6.91211l.38477.19141.19141-.19141-.19141-.19238-.38477.19238Zm.76855-84.48047l1.53613,2.11133,1.15234-2.11133-1.15234-1.34375-1.53613,1.34375Zm.57617-29.18359l.19238.19141.57617-.38379-.38477-.38379-.38379.57617Zm.95996-4.22461l.19141,3.26367.57617-.38281-.19141-.38477-.19238-.19141-.38379-2.30469Zm2.49609-9.98438l.38379.19238.19238-.19238-.19238-.19141-.38379.19141Zm.19141,80.44922l.19238.76758.19238-.19238-.19238-.5752-.19238-.19336v.19336Zm2.30469,4.22266c-.25781.12988-.51367.28906-.76758.48047-.25879.19238-.51367.35352-.76855.48047l.19238.19141,1.53516-.76758.19238-.19141-.38379-.19336Zm-.38477-51.26367v.38477l.57617.19141-.57617-.57617Zm.96094-15.16797v-.38379l-.19238.19238.19238.19141Zm0,51.07227l1.91992-.38379-1.15234-2.68848-.57617-.19141-.19141,3.26367Zm.57617,15.35938l.38281.76855,2.68848.57617.19238-.19238-.76758-1.91992-.19336-.19141-2.30273.95898Zm.57617-5.95117l.19141-.57617-.19141-.19141-.19336.19141.19336.57617Zm.19141-55.10352l-.19141.38281.38281-.38281h-.19141Zm-.19141,55.10352l.19141.57617.19141-.57617-.19141-.19238-.19141.19238Zm.38281-55.10352l-.19141.38281.38379-.38281h-.19238Zm1.53711-10.17676c-.89746,1.02637-1.15234,2.24121-.76855,3.64746l.19238-.19141.76758-3.26367-.19141-.19238Zm4.99121,112.32031c.25488-1.02344.41406-1.72754.47949-2.1123.06348-.38379-.22461-.89453-.86328-1.53613l-2.49609,3.26465,2.87988.38379Zm1.15234-86.78418l.5752.19141.57617-.57617-.19141-.19141-.95996.57617Zm8.83203,6.52734c-1.02637,0-2.20801.06641-3.55176.19238-1.34375.12988-2.4668.25879-3.36035.38379,0,1.28125.25488,2.75391.76855,4.41602.50977,1.66602.70117,2.81738.5752,3.45703-.12891.6416-.12891,1.18457,0,1.63086.12598.45117.25488.80176.38379,1.05664h2.30469c.89355,0,1.79102-.0625,2.6875-.19141.89453-.12695,1.85352-.25586,2.88086-.38477l-2.30469-10.56055-.19141-.19141-.19238.19141Zm.95996,32.25684c-1.28125.12891-2.5625.22461-3.83984.28809-1.28125.06641-2.43359.0957-3.45703.0957.25586,2.30469.44727,4.16113.57617,5.56836.12695,1.41016.38477,2.49609.76855,3.26367,1.02246.12891,2.30371.16211,3.83984.0957,1.53613-.0625,2.87988-.1582,4.03223-.28711-.12891-1.4082-.48047-2.84766-1.05664-4.32031-.57617-1.4707-.80078-2.97656-.67188-4.51172l-.19141-.19238Zm-5.75977,28.03223l.19141,1.15137c.76758.12988,1.40723-.06348,1.91992-.5752l-.19141-.76855-.19238-.38379-1.72754.57617Zm.19141-9.79297l.38477.38477.38281-.57617-.38281-.38477-.38477.57617Zm4.80078,8.44922c-.38477.89648-.38477,1.60156,0,2.11133l.95898-.19141v-1.72852l-.95898-.19141Zm1.34375-78.91211c0,.12891-.12891.19141-.38477.19141l.38477,1.53613,1.91992-1.15234-.57617-.5752h-1.34375Zm6.91211,25.53516l2.11133,1.15234c.12598-.25488.19238-.76758.19238-1.53613l-.19238-.19238-2.11133.57617Zm6.52734-25.72754l.95996.19238.19238-.19238-.19238-.38379-.95996.38379Zm0,85.24707v.19336c.50977.12891.67188.12891.48047,0-.19238-.12695-.0332-.31836.47949-.57617l.57617-.38477-.38379-.19141-1.15234.95898Zm.19238-4.03125l.19238,1.15234.5752-.19238.19238-.95996-.19238-.19141-.76758.19141Zm4.03223-52.03223c0,1.66504.25391,2.94629.76758,3.84082l.38379-.19238v-1.72754c0-.63965-.06543-1.2793-.19238-1.9209l-.19141-.19238-.76758.19238Z"/>
      <path class="cls-1" d="m606.7207,1.30484c.76758,0,1.66211.19141,2.6875.57617,1.79102,2.94531,3.00586,4.99219,3.64844,6.14453.63867,1.15137.57617,1.34375-.19238.5752,1.91992,3.58496,3.55176,6.65723,4.89648,9.21582,1.34375,2.5625,2.36621,4.77051,3.07129,6.625.70215,1.85645,1.05664,3.45508,1.05664,4.79883,0,1.34473-.32129,2.5918-.95996,3.74414-1.79395,2.5625-3.07227,4.77051-3.84082,6.625-.76758,1.85645-1.24707,3.58398-1.43945,5.18359-.19238,1.60156-.19238,3.23438,0,4.89648.19238,1.66406.28809,3.58398.28809,5.75977-.12891,1.28027-.16211,2.87891-.0957,4.79883.0625,1.9209.12598,3.96973.19141,6.14453.06348,2.17773.0957,4.41602.0957,6.7207v5.75977c0,3.20117.06348,5.63379.19238,7.2959.12598,1.66504.19238,3.2002.19238,4.6084,0,1.40918-.0332,3.00781-.09668,4.79883-.06543,1.79492-.22461,4.35352-.47949,7.68066-.12891.5127-.12891,1.79395,0,3.83984.12598,2.04883.19141,3.90625.19141,5.56738v18.81641c0,6.01758-.12891,11.07324-.38379,15.16797-.38379,0-1.02539.25586-1.91992.76758-.6416.51074-.89648.51074-.76758,0-.64258.25586-1.18555.44727-1.63184.57617-.4502.12695-.73828.25586-.86426.38477-.38379.25488-.70508.25488-.95996,0l-3.45605.38379c-.89746.12598-1.69824.22168-2.40039.28809-.70508.0625-.99316.0957-.86426.0957-1.15137.25586-3.07129.41406-5.75977.48047-2.6875.0625-4.86621-.0957-6.52734-.48047-1.9209-.38379-3.90625-.48047-5.95215-.28711-2.04883.19141-3.45605.0293-4.22461-.48047-.12891-1.02637-.16211-1.89062-.0957-2.5918.06348-.70508.15918-1.31445.28809-1.82422,0-.25586.0625-1.59961.19238-4.03223.12598-2.43066.25488-5.40527.38379-8.92871.12598-3.51758.28809-7.3584.47949-11.51953.19238-4.1582.35156-8.12695.48047-11.9043.12598-3.77344.19141-7.00781.19141-9.69531v-5.18359c-.25781-1.66211-.41699-3.45703-.47949-5.37695-.06641-1.91992-.0957-3.74414-.0957-5.47168s.0293-3.29395.0957-4.7041c.0625-1.40625.15918-2.49609.28809-3.26367l-.38379-.38477c-1.02637,1.15234-1.95312,2.33789-2.78418,3.55273-.83398,1.21777-1.56934,2.46582-2.20801,3.74414-1.53613,1.15234-3.20117,1.21777-4.99219.19141-.6416-6.91211-1.15234-11.45312-1.53613-13.63184-.25781-2.0459-.38379-2.0459-.38379,0-.25781-1.40723-.60938-3.29395-1.05566-5.66309-.4502-2.36719-.80176-4.60938-1.05664-6.7207-.25781-2.11133-.4502-3.90234-.57617-5.37598-.12891-1.46973,0-2.20801.38477-2.20801,1.15137-2.1748,1.91992-3.51953,2.30371-4.03223.38379-.50977.63867-.83105.76758-.95996l.57617-.95996c.25488-.38379.95996-1.53613,2.1123-3.45605.63867-1.02344,1.82422-2.55859,3.55176-4.60742,1.72852-2.04688,3.74414-4.35059,6.04785-6.91211,2.30469-2.55859,4.73438-5.21484,7.2959-7.96875,2.55957-2.75,4.92676-5.2793,7.10449-7.58398,2.1748-2.30371,3.99902-4.25391,5.47168-5.85547,1.46973-1.59961,2.33398-2.5918,2.5918-2.97656l1.15234-.38379.19238-.38379Zm-31.87207,39.74414l.38379.57617,1.34375-1.72852-.19141-.57617-1.53613,1.72852Zm1.53613-1.72852l.19141.38477.19238-.38477-.19238-.19141-.19141.19141Zm.19141,6.91211l.38379.19238.19238-.19238-.19238-.38379-.38379.38379Zm1.91992.19238l-.19141.95996.95996,1.15234.57617-2.1123-.19238-.19238-1.15234.19238Zm2.68848,15.93652l.76758,1.53516.76855-1.34375-1.15234-.76758-.19238-.19238-.19141.76855Zm5.75977,62.5918l.38379.57617.57617-.57617-.19238-.19238-.76758.19238Zm.95996-4.99219c-.76758,1.02539-.83398,1.91992-.19238,2.6875l.76855-.57617-.38379-1.91992-.19238-.19141Zm-.19238-20.73633c-.25781.51367-.32031.99316-.19141,1.43945.12598.45117.25488.93066.38379,1.44043.25488-1.27832.50977-2.2373.76758-2.87988l-.19141-.19141-.76855.19141Zm.19238,43.2002l.57617,1.15137.76758-.95898-.57617-.38477-.38379-.19141-.38379.38379Zm1.53613-117.50391l.19238.38379,1.53516-.57617-.38379-.76758-.19141-.19238-1.15234,1.15234Zm1.72754,26.1123l.38477.38281.76758-.38281-.76758-.76855-.38477.76855Zm2.1123-23.42383l.19238.5752.76758-.38379.76855-.76758-.38477-.57617-.38379-.19238-.95996,1.34473Zm3.45605,86.20703c-.38379.76855-.38379,1.28125,0,1.53613l.76758-.5752-.38379-.57617-.38379-.38477Zm0,18.625l-.19238.5752.57617.57617.95996-.19238.19238-.76758-.19238-.19141h-1.34375Zm.57617-76.41602l.38379.38281,1.34375-.95898-.38379-.38477-.76758-.19141-.57617,1.15234Zm.57617,68.15918l.38379.57617.76758-2.68848-.19141-.38281-.95996,2.49512Zm.95996-30.91113c-.64258.76758-.64258,1.47266,0,2.11133l.38379-.19141-.19238-1.72852-.19141-.19141Zm2.30371-48.19336l.19238.38477.38379-.38477-.19238-.19141-.38379.19141Zm1.15234-29.75977l.19141.38477,1.72852-1.53613-.19238-.38379-.76758-.19238-.38477-.19238-.5752,1.91992Zm0,27.64844l.76758.19141.19238-.76758-.19238-.19141-.76758.76758Zm.95996-7.87207c-.64258.6416-.76855,1.28125-.38477,1.91992l1.34473-1.53613-.19238-.19141-.76758-.19238Zm.95996,73.72754c-.76855.76855-.89746,1.53711-.38379,2.30469l.76758-.76758-.19238-1.34473-.19141-.19238Zm.95996-54.14355l.19141.38379.38477-.38379-.19238-.19238-.38379.19238Zm.19141-31.4873l.19238.19141.38379-.19141.19238-.76855-.19238-.19238-.57617.96094Zm.57617,81.02344l.57617.57617,1.91992,1.72754c.12598-.38379.19238-.95996.19238-1.72754l-1.15234-.76758-.19238-.19336-1.34375.38477Zm.19238-44.73633l1.15137,1.91992c.12598-.38379.19238-1.02246.19238-1.91992l-.19238-.19141-1.15137.19141Zm1.53613-43.58398l.38379.19238.95996-.95996-.19238-.19238-1.15137.95996Zm1.53613,9.02441l2.49512.76855.19238-.76855-1.15234-.95996-.19141-.19238-1.34375,1.15234ZM679.87207.53727c1.27832,0,3.03906.0332,5.28027.0957,2.23828.06641,4.54199.12891,6.91211.19141,2.36719.06641,4.54199.06641,6.52832,0,1.98242-.0625,3.42285-.28711,4.31934-.67188,1.40723-.25391,2.5918-.19141,3.55176.19238.96094.38379,1.9502.83398,2.97656,1.34375.38379,1.79395.0957,3.36035-.86426,4.7041s-2.14453,3.61816-3.55176,6.81641c2.6875,1.02539,4.22363,1.66406,4.6084,1.91992,1.79004.76758,3.29395,1.34375,4.51172,1.72852,1.21484.38281,2.36719.7041,3.45605.95898,1.08594.25781,2.20801.51367,3.35938.76855,1.15234.25781,2.49609.5752,4.03223.95996,1.53613.5127,3.23145.83398,5.08789.95996,1.85449.12891,3.74414.22461,5.66406.28809,1.91992.06641,3.74414.0957,5.47266.0957,1.72754,0,3.16797.12891,4.31934.38477.12598.64062.41406,1.34375.86426,2.11133.44727.76758.67188,1.79395.67188,3.07227,0,.25781-.12891.92969-.38379,2.01562-.25781,1.08887-.57617,2.37012-.95996,3.83984-.38379,1.47266-.73828,2.94629-1.05664,4.41602-.32031,1.47266-.47949,2.6582-.47949,3.55273l-.57617,4.99219c-.12891,1.28027-.80078,2.5918-2.01562,3.93555-1.21777,1.34375-1.82422,2.14453-1.82422,2.40039-3.83984-.25586-6.24023-.70312-7.2002-1.34473-.95996-.63965-1.69824-1.08594-2.20801-1.34375l-1.53613-.19238c-.25781-.12598-.5127-.19141-.76758-.19141h-.57617c0,.12891.06348.25781.19238.38379-.51367,4.48145-.80176,7.64941-.86426,9.50391-.06641,1.85645-.60938,3.42578-1.63184,4.7041-1.53613,0-2.91309.16211-4.12793.48047-1.21875.32031-2.40039.6084-3.55273.86328-1.15137.25781-2.30371.38477-3.45605.38477-1.15137,0-2.49512-.25586-4.03125-.76855l-11.32812-.76855h-2.49609c-.76758,0-1.47266.06641-2.1123.19238-1.53613.12891-4.09766.12891-7.67969,0-1.66504,0-3.61816.06543-5.85645.19238-2.24023.12891-4.54492.25781-6.91113.38379-2.37012.12891-4.7041.22559-7.00879.28809-2.30371.06641-4.41602-.03027-6.33594-.28809-4.48145-.25488-8.00098-.19238-10.55957.19238-2.94629.38281-5.31348.57617-7.10449.57617-1.41016.12891-2.84961.0957-4.31934-.09668-1.47363-.19238-2.20801-.60645-2.20801-1.24805,0-.38379.1582-1.02246.47949-1.91992.31836-.89355.67188-1.91992,1.05664-3.07227.38379-1.15137.76758-2.33398,1.15137-3.55176.38379-1.21484.63867-2.33398.76855-3.35938l-.38477-.38477c.25488-.25488.57617-.50977.95996-.76758.25586-.25586.63965-.50977,1.15234-.76758-2.30371.38281-4.35254.7041-6.14355.95898-1.79395.25781-2.75391.38477-2.88086.38477-.25781.12891-.80078.28711-1.63184.47949-.83398.19238-1.72754.38379-2.6875.57617s-1.79395.35449-2.49609.47949c-.70508.12891-1.12207.19238-1.24805.19238-.5127-.89355-.70508-1.40723-.57617-1.53613-.25781-1.40625-.5127-2.5918-.76758-3.55176-.25781-.95996-.38477-2.33398-.38477-4.12793l-.38379-9.2168v-5.75977c0-.125-.0332-.28711-.0957-.47949-.06641-.19238-.12891-.67285-.19238-1.44043-.06543-.76758-.16211-2.23828-.28809-4.41602.25586-.25488.41406-.50977.48047-.76758.0625-.25488.22168-.57617.47949-.95996.38477-.25488.83105-.38379,1.34473-.38379.12598.12891.44629.06543.95996-.19238l1.53613-.19238c1.02246-.125,2.11133-.22168,3.26367-.28711,1.15234-.06348,2.20801-.09668,3.16797-.09668s1.37402.06641,1.24805.19238c2.55859-.12598,4.6709-.44727,6.33594-.95996,1.02344-.25488,3.32715-.51074,6.91211-.76855,1.27832,0,3.07227-.31836,5.37598-.95898,2.30371-.63965,3.96582-1.08691,4.99219-1.34473,2.81348-.76855,5.15039-1.66211,7.00781-2.68848,1.85352-1.02246,3.67773-2.2373,5.47168-3.64746l9.60059-8.44824.19141-.19141Zm.95996,67.00781c1.02344.12891,2.14258.22461,3.36035.28711,1.21484.06641,2.40039.0332,3.55176-.0957,1.15234,3.83984,1.53613,6.08203,1.15234,6.7207.25488,2.94531.25488,6.30566,0,10.08008-.25781,3.77734-.38379,8.09668-.38379,12.95898-.12891,9.60059-.25879,18.01855-.38477,25.24805-.12891,7.2334-.32031,12.70508-.5752,16.41602-.12988,1.15234-.16211,2.17871-.09668,3.07227.06348.89746.09668,1.69824.09668,2.40039s-.06641,1.40625-.19238,2.11133c-.12891.70312-.4502,1.50391-.95996,2.40039-.25781,0-1.24805.03027-2.97559.0957-1.72852.06348-3.61816.09668-5.66406.09668h-5.95215c-1.79395,0-3.00879-.06641-3.64844-.19238-2.43262-.25781-4.12793-.22461-5.08789.0957-.95996.31836-1.88965-.16211-2.78418-1.43945.25488-2.17773.44727-4.19141.57617-6.04785.12598-1.85449-.06641-3.03906-.57617-3.55176-.38379.38379-1.02539.54492-1.91992.47949-.89648-.06348-1.82422-.19238-2.78418-.38379-.95996-.19238-1.88965-.25586-2.7832-.19238-.89746.06641-1.53613.35449-1.9209.86426,0,2.94531.09668,5.02539.28809,6.24023.19238,1.21484-.16211,2.46289-1.05566,3.74414-.12891,0-.5459.0625-1.24805.19141-.70508.12598-1.53613.22266-2.49609.28809-.95996.06348-1.98535.12598-3.07227.19238-1.08887.0625-2.01562.0957-2.7832.0957h-5.18457c-1.79395,0-3.52148-.0332-5.18359-.0957-1.66504-.06641-3.13867-.22461-4.41602-.48047-1.28125-.25781-2.1123-.57617-2.49609-.95996-1.28125-1.28027-1.47266-2.68848-.57617-4.22363.25488-1.66211.41406-3.71094.48047-6.14453.0625-2.42969.1582-4.41602.28809-5.95117.25488-2.81445.35059-6.24023.28711-10.27246-.06543-4.03223.03027-7.77637.28809-11.23145.12598-3.45703.22266-7.20117.28809-11.23242.06348-4.03223.12598-7.93555.19238-11.71289.0625-3.77344.25488-7.16602.57617-10.17578.31738-3.00586.79785-5.21289,1.43945-6.62305.76855-.12695,2.30469-.28906,4.6084-.48047s4.7998-.35156,7.48828-.48047l8.25586-.38281c2.81348-.12695,5.05469-.25586,6.71973-.38477.12598,0,1.59863-.0625,4.41602-.19141,2.81348-.12695,5.88574-.25586,9.21582-.38477,3.32715-.12598,6.33594-.25488,9.02441-.38379l4.22363-.19238.38379-.19141Zm-52.22363-41.28027l-.19238.57617.38477.38379.95996-.95996-.19238-.19238-.95996.19238Zm3.83984,55.87207l.95996,1.91992c.76855,0,1.46973-.25488,2.1123-.76758-.64258-.50977-1.21777-.83203-1.72852-.96094l-.76758-.5752-.19238-.19238-.38379.57617Zm.95996-43.39258v-.5752l-.19141.19238.19141.38281Zm.95996,103.68066l.19238.95996.76758-.57617-.57617-.38379-.19141-.19238-.19238.19238Zm1.72852-96.76855l.19141-.38281-.19141-.19336-.95996.19336.95996.38281Zm.76758-.38281l.19238-.19336h-.38477l.19238.19336Zm1.72852-3.26465l.19141-.19238-.19141-.19141-.57617.19141.57617.19238Zm2.49512-2.30371l.19238-.19238-.19238-.19238-.38379.19238.38379.19238Zm1.53613,34.94336c-1.53613,1.41016-1.66504,2.5625-.38379,3.45605l1.15234-1.91992-.76855-1.53613Zm-.76758,17.85645l.57617.19238.76758-.57617-.76758-.19238-.19238-.19238-.38379.76855Zm3.83984-7.10449c.12598.12891-.06641.25781-.57617.38477l.19238.38379,1.91992.19238.19238-.96094h-1.72852Zm.57617-57.02344l.38379-.57617-.57617-.38477-.57617.76855.38477.38379.38379-.19141Zm.38379,66.62305l.19238.38477.38379-.38477-.19238-.19141-.38379.19141Zm1.53613,5.18457l.57617-.38379v-1.72852l-.19238-.19141-1.34375.38379v1.53613l.95996.38379Zm-.19238,25.34473l-.76758.5752,1.15234.38379.19141-.19141-.38379-.57617-.19238-.19141Zm-.19141-99.83984l-.19238.19141.19238.19141v-.38281Zm.95996,118.46289l.57617-.38379-.38477-.38379-.38379.38379.19238.38379Zm11.71191-54.33594c-2.30371.25781-4.16113.41797-5.56836.48047-1.41016.06641-2.625.28809-3.64746.67188-.12891.89648-.16211,1.72852-.09668,2.49609.06348.76758.15918,1.60156.28809,2.49609,3.07227.38379,6.07812.32031,9.02441-.19238-.12891-1.02246-.16211-1.9834-.0957-2.87988.0625-.89453.1582-1.85352.28711-2.87988l-.19141-.19238Zm.19141,25.53613h-7.2959c-.5127,0-.70508.06641-.5752.19238h-1.53613c-.12891.89648-.16211,1.76074-.09668,2.5918.06348.83398.15918,1.56836.28809,2.20801h5.18457c.89355-.12598,1.66211-.12598,2.30371,0,.63867.12891,1.27832.06543,1.91992-.19238v-2.49609c0-.76758-.06641-1.53516-.19238-2.30371Zm-8.83105,15.55176l.19141-.38379-.19141-.19238-.38477.19238.38477.38379Zm1.34375-50.6875v-.38477l-.57617.19336.57617.19141Zm.76758,24l.38379-.38477-.19141-.38281-.76855.57617.57617.19141Zm-.38379-67.39258l.38379.19238,1.72852-.76855-.38477-.19141-.5752-.19141-1.15234.95898Zm3.26367,66.625l.76855-.57617-.19238-.19238-.95996.38379.38379.38477Zm1.34473-70.27246l-.19238-.57617-.38379-.19238-.19238.57617.19238.76855.57617-.57617Zm1.15137,75.45605l.38379-.57617-.19141-.19141-.76855.38281.57617.38477Zm2.1123-54.52832c-.76855-.12598-1.60254.12988-2.49609.76855l.19238.19141c.50977.12891,1.34375-.125,2.49609-.76758l-.19238-.19238Zm.57617,24.95996c.38379.12891.89355.19238,1.53613.19238.38379.25781.5752.25781.5752,0l-.5752-.76855-.19238-.19141-1.34375.76758Zm1.53613-51.07227l.19141-.19141-.19141-.38477v.57617Zm.95996-2.11133l-.19238-.19141-.57617,1.34375.38379.38281.57617-.76758-.19141-.76758Zm2.30371,16.32031h8.63965c2.43066,0,5.31055-.03027,8.64062-.09668,3.32617-.06348,6.81543-.12598,10.46387-.19238,3.64746-.0625,6.75-.0957,9.31152-.0957-.76758-.25488-1.47266-.50977-2.11133-.76758-.64258-.25488-1.21875-.50977-1.72852-.76758-.5127-.25586-1.02637-.44727-1.53613-.57617-1.41016-.25586-2.49609-.76855-3.26367-1.53613-.89746-.63965-1.91992-1.21582-3.07227-1.72754-1.15137-.51074-1.91992-.83203-2.30371-.96094-.38379-.12598-.73828-.25488-1.05566-.38379-.32129-.12598-.70508-.25488-1.15234-.38379-.4502-.12598-1.24805-.44727-2.40039-.95996-4.99219,2.81738-7.87207,4.29004-8.63965,4.41602-1.66504.76758-3.33008,1.47266-4.99219,2.1123-1.66504.6416-3.26367,1.28027-4.7998,1.91992Zm.38379,4.79883l-.19141.19336.19141.19141v-.38477Zm.76855-.38281l-.38477.19141.38477.19141.19141-.19141-.19141-.19141Zm4.41602,71.61523c-.25879.25781-.32129.70508-.19238,1.34375.12598.64258.31836,1.28125.57617,1.91992l.38379-.5752-.38379-2.49609-.38379-.19238Zm2.87988-2.6875c-.89746,0-1.31445-.03027-1.24805-.0957.0625-.06348-.35449.0332-1.24805.28711,1.27734,1.15234,2.81348,1.41016,4.60742.76855l-2.11133-.95996Zm-1.72852,21.11914l.19238,2.30469,1.53613-1.34375-.95996-1.15234-.57617-.19141-.19238.38281Zm5.18457-59.13477l1.34375-.76855-1.91992-1.15137-.19238.19141.76855,1.72852Zm3.07129-75.64844l-.38379.19141.38379.19238.19238-.19238-.19238-.19141Zm0,16.89648l.19238.19141.76758-.95996v-.19238l.38477-.38379-.19238-.19238-.19238.19238v.19238l-.95996,1.15234Zm1.15234,125.56738l.95996-.19238.19238-.76758-.19238-.19141-1.15234.76758.19238.38379Zm.95996-130.55957l-.38379.95898.19141.38477.38477-1.15234-.19238-.19141Zm.38379,79.67969c-.76758,1.66504-.83398,3.33008-.19141,4.99219.38379-.38477.60547-.99023.67188-1.82422.0625-.83105.0957-1.88672.0957-3.16797l-.19238-.19141-.38379.19141Zm-.38379-63.74414l.19238.38379.5752-.5752-.38379-.38477-.38379.57617Zm6.91211-9.21582l-.57617.38379.57617.76758.38379-.38281-.19141-.76855h-.19238Zm0-17.85645l.38379-.38379-.19141-.38379-.38477.38379.19238.38379Zm1.15234,52.03223l.38379-.76855-.76855-.19141-.38379.38379.76855.57617Zm45.50391,11.13574c1.02246.12891,1.98242.19238,2.87988.19238h3.07227l.38379.76855c.12598.25781.22168,1.34375.28809,3.26367.0625,1.91992.0957,4.41602.0957,7.48828,0,3.07129-.06641,6.56055-.19238,10.46289-.12891,3.90625-.25781,8.03516-.38379,12.38477-.25781,6.52734-.41699,11.9043-.47949,16.12793-.06641,4.22363.0293,7.4248.28809,9.59961.25488,3.45605.1582,7.10449-.28809,10.94434-.4502,3.83984-.93066,8.12695-1.44043,12.86328-12.5459-.25781-22.17578-.47949-28.89551-.67188-6.7207-.19141-10.59375-.28711-11.61621-.28711h-4.99219c-2.04883-.25781-3.39258-.57617-4.03223-.96094,0-1.28027-.0332-3.16797-.0957-5.66406-.06641-2.49609-.0957-5.08789-.0957-7.77539s.0293-5.24707.0957-7.67969c.0625-2.42969.15918-4.22461.28809-5.37695l1.53613-1.34375c2.0459,0,4.25391.4502,6.62402,1.34375,2.36621.89746,4.25391,1.28125,5.66406,1.15234.38379,0,1.15137.16211,2.30371.48047,1.15234.32031,2.39941.6416,3.74414.95996,1.34375.32129,2.5918.6084,3.74414.86426,1.15137.25781,1.85352.32031,2.11133.19141.12598-1.53516.22266-2.75098.28809-3.64844.06348-.89355.0957-1.59766.0957-2.11133v-1.34375c-.12891.25781-.19141.25781-.19141,0,0-.25586.12598-1.53613.38379-3.83984.12598-.89453.19238-2.68848.19238-5.37695,0-2.6875.0625-6.39844.19141-11.13477,0-4.73438.03027-8.54492.09668-11.4248.0625-2.87988.1582-4.83008.28809-5.85645.12598-1.15137.19141-2.36719.19141-3.64746v-3.83984c0-1.27832.0957-2.36719.28809-3.26465.19238-.89355.54297-1.53516,1.05566-1.91992,1.02344-.38379,1.91992-.67188,2.68848-.86328.76758-.19238,2.0459-.35156,3.83984-.48047l9.79199-.38379.19238-.19238Zm-44.73633-19.19922l.95996.38281.19238-.38281h-1.15234Zm18.04785,22.46289c.89453.12988,1.50293.16211,1.82422.09668.31836-.06348.57617-.09668.76758-.09668.19238,0,.41406.0332.67188.09668.25586.06543.89453.28809,1.9209.67188v2.1123c0,.89648-.0332,1.91992-.09668,3.07227-.06543,1.15137-.12891,2.33594-.19141,3.55176-.06641,1.21777-.09668,2.27441-.09668,3.16797-.12891,2.68848-.25781,5.56738-.38379,8.63965-.12891,3.07227-.22461,6.20996-.28809,9.4082-.06543,3.20117-.12891,6.33594-.19141,9.4082-.06641,3.07227-.09668,5.82617-.09668,8.25586-.38379.5127-1.08887.80078-2.11133.86328-1.02637.06641-2.14551,0-3.36035-.19141-1.21777-.19141-2.46582-.38379-3.74414-.57617-1.28125-.19141-2.37012-.35059-3.26367-.48047-1.02637-.125-1.82422-.2207-2.40039-.28711-.57617-.06348-1.08887-.12695-1.53613-.19238-.44922-.06348-.95996-.15918-1.53613-.28809-.5752-.12598-1.31348-.31836-2.20801-.57617l-.5752-.76758c.12598-1.79102.0293-3.32715-.28809-4.60742-.32129-1.2793-.41699-2.30469-.28809-3.07227,0-.38477.03027-.70215.0957-.96094.06348-.25391.12598-.67188.19238-1.24805.0625-.5752.12598-1.37305.19141-2.39941.06348-1.02246.15918-2.43066.28809-4.22363.12598-3.58203.06348-6.27051-.19141-8.06445-.25879-1.79102-.32129-3.64844-.19238-5.56836,0-2.42969.06348-5.02148.19238-7.77539.12598-2.75098.19141-4.63867.19141-5.66406l1.15234-.57617h1.34375l3.83984-.38379h1.53613c1.02344-.12598,2.20801-.28809,3.55176-.47949,1.34473-.19238,2.52637-.35156,3.55273-.48047l1.53613-.19141.19141-.19336Zm-12.86426,43.20117l.19238-.19238-.19238-.19238-.5752.19238.5752.19238Zm.95996-63.74414l.19238-.38477v-.19141l-.57617.19141.38379.38477Zm1.15234-20.54492l.19238-.19141-.19238-.38477-.19141.38477.19141.19141Zm.57617,47.42383l.19238-.19141-.19238-.19141-.57617.19141.57617.19141Zm1.72754-.95898l-.76758.19141.76758.38477.19238-.38477-.19238-.19141Zm-.5752,40.12793l-.19238.76758.76758.19238.57617-.38477-.19141-.5752-.19238-.19238-.76758.19238Zm.95996-72.38379l-.19238.38379,1.15234.5752.76758-.95898-.38379-.19238-1.34375.19238Zm.95996-12.67188c.38379.51172.76758.5752,1.15137.19141l-.38379-.38379-.76758.19238Zm1.34375.38281l-.19238-.19141-.19141.19141.19141.19238.19238-.19238Zm0,81.79297l-.19238.57617.57617.57617,1.34375-1.34473.38477-.19238-.38477-.19141-.19141.19141-1.53613.38477Zm2.30371,20.35156c-1.15137,0-1.91992.06641-2.30371.19141l1.53613.57617.95996-.57617-.19238-.19141Zm-.95996-80.64062c-.5127.64258-.80078.93066-.86426.86523-.06543-.06348.09668.35352.48047,1.24805l.38379-.19238.38379-1.72754-.38379-.19336Zm-.57617,64.5127l.19238.38379.57617-.76758-.38379-.38477-.38477.76855Zm3.26465-87.36035l.76758.57617.38379-.57617h-1.15137Zm2.87988,89.47266l.19141-.96094-.19141-.19141-.57617.76758.57617.38477Zm.19141-81.59961l.76855.5752.38379-.19238-.57617-.57617-.57617.19336Zm1.53613,37.63086l.19238-.38281-.19238-.19336-.19141.19336.19141.38281Zm9.02441,66.81641c-1.15234.38477-2.17773.57617-3.07227.57617l.19238.76758h1.91992l1.15137-1.15234-.19141-.19141Zm.76758-103.67969l.57617.19141.38379-.57617-.38379-.38281-.57617.76758Zm.57617,98.49609c.38379.38379.76855,1.08887,1.15234,2.11133l1.15137-.19141-2.11133-2.1123-.19238.19238Zm3.26367-6.91211c-.6416.6416-.76758,1.28125-.38379,1.91992l1.15234.19141c.38379-.50977.44727-1.15137.19141-1.91992h-.76758l-.19238-.19141Zm1.34473-52.80078c-.38477-.125-.70508-.1582-.95996-.0957-.25879.06641-.51367.16211-.76855.28809l-.19141,1.15234.76758.76758.76758-.95996.38477-1.15234Zm.95996,22.08008c-.64258,1.02637-.76855,2.1123-.38379,3.26465l1.15137-.57617-.57617-2.49609-.19141-.19238Zm0-18.81543l.95996-1.53613-.19238-.19141-.95996.95898.19238.76855Zm4.99219-44.16016l.38379-.76855-.19238-.19141-.76758.57617.57617.38379Zm.95996,45.50391l.19141.19238.76855-.19238-.38477-.5752-.19141-.19336-.38379.76855Zm1.53516-48.19238l.57617-.19141.38379-.76758-.38379-.19238-.57617.95996v.19141Zm.19238,80.83203l.19238-.19141-.19238-.19141-.19238.19141.19238.19141Zm0-42.43164l.76758.95996h1.15234l.57617-1.91992-.57617-.19238-1.91992,1.15234Zm.76758-42.24023l.38477.57617v-.95996l-.38477.38379Zm.76855,117.69629l.19238-.76855-.19238-.19141-.38379.38477.38379.5752Z"/>
    </g>
  </g>
</svg>